VotoSerifGX-ExtendedBoldDisplay.ufo
<glyph name="parenleft" format="2">
  <advance width="513"/>
  <unicode hex="0028"/>
  <outline>
    <contour>
      <point x="475" y="-152" type="curve"/>
      <point x="475" y="-142" type="line"/>
      <point x="343" y="-61"/>
      <point x="303" y="86"/>
      <point x="303" y="320" type="curve" smooth="yes"/>
      <point x="303" y="551"/>
      <point x="343" y="696"/>
      <point x="475" y="777" type="curve"/>
      <point x="475" y="787" type="line"/>
      <point x="182" y="678"/>
      <point x="67" y="504"/>
      <point x="67" y="320" type="curve" smooth="yes"/>
      <point x="67" y="133"/>
      <point x="182" y="-44"/>
    </contour>
  </outline>
</glyph>
<glyph name="period" format="2">
  <advance width="379"/>
  <unicode hex="002E"/>
  <outline>
    <contour>
      <point x="190" y="-10" type="curve" smooth="yes"/>
      <point x="241" y="-10"/>
      <point x="286" y="14"/>
      <point x="286" y="86" type="curve" smooth="yes"/>
      <point x="286" y="160"/>
      <point x="241" y="182"/>
      <point x="190" y="182" type="curve" smooth="yes"/>
      <point x="135" y="182"/>
      <point x="93" y="160"/>
      <point x="93" y="86" type="curve" smooth="yes"/>
      <point x="93" y="14"/>
      <point x="135" y="-10"/>
    </contour>
  </outline>
</glyph>
<glyph name="six" format="2">
  <advance width="662"/>
  <unicode hex="0036"/>
  <outline>
    <contour>
      <point x="347" y="-10" type="curve" smooth="yes"/>
      <point x="541" y="-10"/>
      <point x="630" y="88"/>
      <point x="630" y="233" type="curve" smooth="yes"/>
      <point x="630" y="367"/>
      <point x="541" y="444"/>
      <point x="405" y="444" type="curve" smooth="yes"/>
      <point x="339" y="444"/>
      <point x="305" y="448"/>
      <point x="252" y="415" type="curve"/>
      <point x="255" y="635"/>
      <point x="286" y="715"/>
      <point x="357" y="715" type="curve" smooth="yes"/>
      <point x="426" y="715"/>
      <point x="448" y="669"/>
      <point x="448" y="508" type="curve"/>
      <point x="573" y="508"/>
      <point x="605" y="555"/>
      <point x="605" y="609" type="curve" smooth="yes"/>
      <point x="605" y="675"/>
      <point x="542" y="724"/>
      <point x="359" y="724" type="curve" smooth="yes"/>
      <point x="162" y="724"/>
      <point x="44" y="594"/>
      <point x="44" y="328" type="curve" smooth="yes"/>
      <point x="44" y="97"/>
      <point x="158" y="-10"/>
    </contour>
    <contour>
      <point x="342" y="0" type="curve" smooth="yes"/>
      <point x="265" y="0"/>
      <point x="252" y="68"/>
      <point x="252" y="405" type="curve"/>
      <point x="279" y="418"/>
      <point x="315" y="433"/>
      <point x="340" y="433" type="curve" smooth="yes"/>
      <point x="404" y="433"/>
      <point x="424" y="382"/>
      <point x="424" y="223" type="curve" smooth="yes"/>
      <point x="424" y="53"/>
      <point x="404" y="0"/>
    </contour>
  </outline>
</glyph>
<glyph name="semicolon" format="2">
  <advance width="369"/>
  <unicode hex="003B"/>
  <outline>
    <contour>
      <point x="67" y="-152" type="line"/>
      <point x="228" y="-116"/>
      <point x="289" y="-41"/>
      <point x="289" y="50" type="curve" smooth="yes"/>
      <point x="289" y="127"/>
      <point x="247" y="182"/>
      <point x="178" y="182" type="curve" smooth="yes"/>
      <point x="117" y="182"/>
      <point x="79" y="142"/>
      <point x="79" y="90" type="curve" smooth="yes"/>
      <point x="79" y="6"/>
      <point x="184" y="41"/>
      <point x="184" y="-45" type="curve" smooth="yes"/>
      <point x="184" y="-107"/>
      <point x="136" y="-119"/>
      <point x="67" y="-143" type="curve"/>
    </contour>
    <contour>
      <point x="184" y="360" type="curve" smooth="yes"/>
      <point x="235" y="360"/>
      <point x="281" y="384"/>
      <point x="281" y="456" type="curve" smooth="yes"/>
      <point x="281" y="530"/>
      <point x="235" y="552"/>
      <point x="184" y="552" type="curve" smooth="yes"/>
      <point x="129" y="552"/>
      <point x="87" y="530"/>
      <point x="87" y="456" type="curve" smooth="yes"/>
      <point x="87" y="384"/>
      <point x="129" y="360"/>
    </contour>
  </outline>
</glyph>
<glyph name="F" format="2">
  <advance width="750"/>
  <unicode hex="0046"/>
  <anchor x="248" y="0" name="bottom"/>
  <anchor x="375" y="714" name="top"/>
  <anchor x="730" y="714" name="topright"/>
  <outline>
    <contour>
      <point x="24" y="0" type="line"/>
      <point x="497" y="0" type="line"/>
      <point x="497" y="10" type="line"/>
      <point x="426" y="10" type="line" smooth="yes"/>
      <point x="380" y="10"/>
      <point x="363" y="31"/>
      <point x="363" y="54" type="curve" smooth="yes"/>
      <point x="363" y="346" type="line"/>
      <point x="637" y="346" type="line"/>
      <point x="637" y="356" type="line"/>
      <point x="363" y="356" type="line"/>
      <point x="363" y="704" type="line"/>
      <point x="534" y="704" type="line" smooth="yes"/>
      <point x="649" y="704"/>
      <point x="689" y="670"/>
      <point x="704" y="564" type="curve" smooth="yes"/>
      <point x="709" y="519" type="line"/>
      <point x="719" y="519" type="line"/>
      <point x="711" y="714" type="line"/>
      <point x="24" y="714" type="line"/>
      <point x="24" y="704" type="line"/>
      <point x="83" y="704" type="line" smooth="yes"/>
      <point x="109" y="704"/>
      <point x="132" y="688"/>
      <point x="132" y="658" type="curve" smooth="yes"/>
      <point x="132" y="54" type="line" smooth="yes"/>
      <point x="132" y="25"/>
      <point x="114" y="10"/>
      <point x="65" y="10" type="curve" smooth="yes"/>
      <point x="24" y="10" type="line"/>
    </contour>
  </outline>
</glyph>
<glyph name="R" format="2">
  <advance width="878"/>
  <unicode hex="0052"/>
  <anchor x="440" y="0" name="bottom"/>
  <anchor x="440" y="714" name="top"/>
  <anchor x="858" y="714" name="topright"/>
  <outline>
    <contour>
      <point x="24" y="0" type="line"/>
      <point x="450" y="0" type="line"/>
      <point x="450" y="10" type="line"/>
      <point x="422" y="10" type="line" smooth="yes"/>
      <point x="394" y="10"/>
      <point x="364" y="8"/>
      <point x="364" y="62" type="curve" smooth="yes"/>
      <point x="364" y="335" type="line"/>
      <point x="426" y="335" type="line"/>
      <point x="535" y="84" type="line" smooth="yes"/>
      <point x="571" y="2"/>
      <point x="692" y="0"/>
      <point x="803" y="0" type="curve" smooth="yes"/>
      <point x="878" y="0" type="line"/>
      <point x="878" y="10" type="line"/>
      <point x="876" y="10" type="line" smooth="yes"/>
      <point x="852" y="10"/>
      <point x="827" y="22"/>
      <point x="811" y="49" type="curve" smooth="yes"/>
      <point x="647" y="342" type="line"/>
      <point x="720" y="363"/>
      <point x="796" y="409"/>
      <point x="796" y="525" type="curve" smooth="yes"/>
      <point x="796" y="633"/>
      <point x="706" y="714"/>
      <point x="445" y="714" type="curve" smooth="yes"/>
      <point x="24" y="714" type="line"/>
      <point x="24" y="704" type="line"/>
      <point x="68" y="704" type="line" smooth="yes"/>
      <point x="75" y="704"/>
      <point x="132" y="704"/>
      <point x="132" y="651" type="curve" smooth="yes"/>
      <point x="132" y="62" type="line" smooth="yes"/>
      <point x="132" y="8"/>
      <point x="85" y="10"/>
      <point x="68" y="10" type="curve" smooth="yes"/>
      <point x="24" y="10" type="line"/>
    </contour>
    <contour>
      <point x="364" y="345" type="line"/>
      <point x="364" y="704" type="line"/>
      <point x="415" y="704" type="line" smooth="yes"/>
      <point x="515" y="704"/>
      <point x="548" y="653"/>
      <point x="548" y="496" type="curve" smooth="yes"/>
      <point x="548" y="395"/>
      <point x="516" y="345"/>
      <point x="417" y="345" type="curve" smooth="yes"/>
    </contour>
  </outline>
</glyph>
<glyph name="W" format="2">
  <advance width="1262"/>
  <unicode hex="0057"/>
  <anchor x="631" y="0" name="bottom"/>
  <anchor x="631" y="714" name="top"/>
  <anchor x="1292" y="714" name="topright"/>
  <outline>
    <contour>
      <point x="316" y="0" type="line"/>
      <point x="453" y="0" type="line"/>
      <point x="607" y="602" type="line"/>
      <point x="802" y="0" type="line"/>
      <point x="965" y="0" type="line"/>
      <point x="1152" y="626" type="line" smooth="yes"/>
      <point x="1172" y="692"/>
      <point x="1195" y="704"/>
      <point x="1241" y="704" type="curve" smooth="yes"/>
      <point x="1270" y="704" type="line"/>
      <point x="1270" y="714" type="line"/>
      <point x="1045" y="714" type="line"/>
      <point x="1045" y="704" type="line"/>
      <point x="1078" y="704" type="line" smooth="yes"/>
      <point x="1120" y="704"/>
      <point x="1140" y="687"/>
      <point x="1140" y="645" type="curve" smooth="yes"/>
      <point x="1140" y="621"/>
      <point x="1134" y="595"/>
      <point x="1123" y="558" type="curve" smooth="yes"/>
      <point x="978" y="35" type="line" smooth="yes"/>
      <point x="981" y="59"/>
      <point x="976" y="46"/>
      <point x="968" y="13" type="curve"/>
      <point x="960" y="46"/>
      <point x="953" y="74"/>
      <point x="944" y="103" type="curve" smooth="yes"/>
      <point x="764" y="707" type="line"/>
      <point x="626" y="707" type="line"/>
      <point x="474" y="110" type="line" smooth="yes"/>
      <point x="483" y="154"/>
      <point x="480" y="143"/>
      <point x="478" y="131" type="curve"/>
      <point x="455" y="208"/>
      <point x="448" y="202"/>
      <point x="426" y="278" type="curve" smooth="yes"/>
      <point x="335" y="581" type="line" smooth="yes"/>
      <point x="329" y="603"/>
      <point x="320" y="642"/>
      <point x="320" y="653" type="curve" smooth="yes"/>
      <point x="320" y="688"/>
      <point x="344" y="704"/>
      <point x="391" y="704" type="curve" smooth="yes"/>
      <point x="410" y="704" type="line"/>
      <point x="410" y="714" type="line"/>
      <point x="-7" y="714" type="line"/>
      <point x="-7" y="704" type="line"/>
      <point x="-14" y="704" type="line" smooth="yes"/>
      <point x="43" y="704"/>
      <point x="66" y="693"/>
      <point x="80" y="651" type="curve" smooth="yes"/>
    </contour>
  </outline>
</glyph>
<glyph name="backslash" format="2">
  <advance width="250"/>
  <unicode hex="005C"/>
  <outline>
    <contour>
      <point x="240" y="-121" type="line"/>
      <point x="250" y="-121" type="line"/>
      <point x="10" y="760" type="line"/>
      <point x="0" y="760" type="line"/>
    </contour>
  </outline>
</glyph>
<glyph name="a" format="2">
  <advance width="729"/>
  <unicode hex="0061"/>
  <anchor x="364" y="0" name="bottom"/>
  <anchor x="364" y="536" name="top"/>
  <anchor x="709" y="536" name="topright"/>
  <outline>
    <contour>
      <point x="254" y="-10" type="curve" smooth="yes"/>
      <point x="311" y="-10"/>
      <point x="369" y="1"/>
      <point x="399" y="84" type="curve"/>
      <point x="401" y="84" type="line"/>
      <point x="401" y="0" type="line"/>
      <point x="700" y="0" type="line"/>
      <point x="700" y="10" type="line"/>
      <point x="695" y="10" type="line" smooth="yes"/>
      <point x="643" y="10"/>
      <point x="627" y="26"/>
      <point x="627" y="80" type="curve" smooth="yes"/>
      <point x="627" y="386" type="line" smooth="yes"/>
      <point x="627" y="509"/>
      <point x="537" y="552"/>
      <point x="359" y="552" type="curve" smooth="yes"/>
      <point x="215" y="552"/>
      <point x="97" y="524"/>
      <point x="97" y="444" type="curve" smooth="yes"/>
      <point x="97" y="390"/>
      <point x="155" y="372"/>
      <point x="278" y="372" type="curve"/>
      <point x="278" y="501"/>
      <point x="292" y="542"/>
      <point x="341" y="542" type="curve" smooth="yes"/>
      <point x="386" y="542"/>
      <point x="400" y="517"/>
      <point x="400" y="440" type="curve" smooth="yes"/>
      <point x="400" y="296" type="line"/>
      <point x="306" y="293" type="line" smooth="yes"/>
      <point x="133" y="288"/>
      <point x="48" y="237"/>
      <point x="48" y="138" type="curve" smooth="yes"/>
      <point x="48" y="44"/>
      <point x="126" y="-10"/>
    </contour>
    <contour>
      <point x="333" y="38" type="curve" smooth="yes"/>
      <point x="296" y="38"/>
      <point x="278" y="93"/>
      <point x="278" y="154" type="curve" smooth="yes"/>
      <point x="278" y="246"/>
      <point x="297" y="280"/>
      <point x="363" y="284" type="curve" smooth="yes"/>
      <point x="402" y="286" type="line"/>
      <point x="402" y="161" type="line" smooth="yes"/>
      <point x="402" y="88"/>
      <point x="376" y="38"/>
    </contour>
  </outline>
</glyph>
<glyph name="r" format="2">
  <advance width="654"/>
  <unicode hex="0072"/>
  <anchor x="238" y="0" name="bottom"/>
  <anchor x="328" y="536" name="top"/>
  <anchor x="654" y="536" name="topright"/>
  <outline>
    <contour>
      <point x="12" y="0" type="line"/>
      <point x="439" y="0" type="line"/>
      <point x="439" y="10" type="line"/>
      <point x="378" y="10" type="line" smooth="yes"/>
      <point x="358" y="10"/>
      <point x="327" y="10"/>
      <point x="327" y="79" type="curve" smooth="yes"/>
      <point x="327" y="302" type="line" smooth="yes"/>
      <point x="327" y="410"/>
      <point x="341" y="483"/>
      <point x="406" y="483" type="curve" smooth="yes"/>
      <point x="449" y="483"/>
      <point x="463" y="441"/>
      <point x="463" y="331" type="curve"/>
      <point x="563" y="331"/>
      <point x="637" y="373"/>
      <point x="637" y="446" type="curve" smooth="yes"/>
      <point x="637" y="501"/>
      <point x="593" y="550"/>
      <point x="504" y="550" type="curve" smooth="yes"/>
      <point x="420" y="550"/>
      <point x="349" y="504"/>
      <point x="327" y="419" type="curve"/>
      <point x="325" y="419" type="line"/>
      <point x="325" y="536" type="line"/>
      <point x="23" y="536" type="line"/>
      <point x="23" y="526" type="line"/>
      <point x="29" y="526" type="line" smooth="yes"/>
      <point x="76" y="526"/>
      <point x="101" y="523"/>
      <point x="101" y="451" type="curve" smooth="yes"/>
      <point x="101" y="89" type="line" smooth="yes"/>
      <point x="101" y="12"/>
      <point x="64" y="10"/>
      <point x="20" y="10" type="curve" smooth="yes"/>
      <point x="12" y="10" type="line"/>
    </contour>
  </outline>
</glyph>
<glyph name="u" format="2">
  <advance width="805"/>
  <unicode hex="0075"/>
  <anchor x="403" y="0" name="bottom"/>
  <anchor x="403" y="536" name="top"/>
  <anchor x="775" y="536" name="topright"/>
  <outline>
    <contour>
      <point x="293" y="-10" type="curve" smooth="yes"/>
      <point x="396" y="-10"/>
      <point x="450" y="30"/>
      <point x="469" y="121" type="curve"/>
      <point x="471" y="121" type="line"/>
      <point x="471" y="0" type="line"/>
      <point x="774" y="0" type="line"/>
      <point x="774" y="10" type="line"/>
      <point x="770" y="10" type="line" smooth="yes"/>
      <point x="722" y="10"/>
      <point x="695" y="13"/>
      <point x="695" y="72" type="curve" smooth="yes"/>
      <point x="695" y="536" type="line"/>
      <point x="382" y="536" type="line"/>
      <point x="382" y="526" type="line"/>
      <point x="388" y="526" type="line"/>
      <point x="443" y="526"/>
      <point x="468" y="522"/>
      <point x="468" y="463" type="curve" smooth="yes"/>
      <point x="468" y="210" type="line" smooth="yes"/>
      <point x="468" y="157"/>
      <point x="461" y="50"/>
      <point x="396" y="50" type="curve" smooth="yes"/>
      <point x="342" y="50"/>
      <point x="330" y="105"/>
      <point x="330" y="203" type="curve" smooth="yes"/>
      <point x="330" y="536" type="line"/>
      <point x="32" y="536" type="line"/>
      <point x="32" y="526" type="line"/>
      <point x="34" y="526" type="line" smooth="yes"/>
      <point x="86" y="526"/>
      <point x="102" y="525"/>
      <point x="102" y="456" type="curve" smooth="yes"/>
      <point x="102" y="179" type="line" smooth="yes"/>
      <point x="102" y="46"/>
      <point x="166" y="-10"/>
    </contour>
  </outline>
</glyph>
<glyph name="v" format="2">
  <advance width="730"/>
  <unicode hex="0076"/>
  <anchor x="375" y="0" name="bottom"/>
  <anchor x="375" y="536" name="top"/>
  <anchor x="740" y="536" name="topright"/>
  <outline>
    <contour>
      <point x="277" y="0" type="line"/>
      <point x="462" y="0" type="line"/>
      <point x="614" y="436" type="line" smooth="yes"/>
      <point x="635" y="497"/>
      <point x="658" y="526"/>
      <point x="678" y="526" type="curve" smooth="yes"/>
      <point x="732" y="526" type="line"/>
      <point x="732" y="536" type="line"/>
      <point x="489" y="536" type="line"/>
      <point x="489" y="526" type="line"/>
      <point x="578" y="526" type="line" smooth="yes"/>
      <point x="594" y="526"/>
      <point x="614" y="515"/>
      <point x="614" y="486" type="curve" smooth="yes"/>
      <point x="614" y="478"/>
      <point x="616" y="485"/>
      <point x="626" y="522" type="curve" smooth="yes"/>
      <point x="480" y="70" type="line" smooth="yes"/>
      <point x="484" y="87"/>
      <point x="480" y="81"/>
      <point x="473" y="57" type="curve"/>
      <point x="454" y="102"/>
      <point x="422" y="180"/>
      <point x="407" y="216" type="curve" smooth="yes"/>
      <point x="310" y="462" type="line" smooth="yes"/>
      <point x="302" y="483"/>
      <point x="300" y="496"/>
      <point x="300" y="500" type="curve" smooth="yes"/>
      <point x="300" y="521"/>
      <point x="317" y="526"/>
      <point x="346" y="526" type="curve" smooth="yes"/>
      <point x="373" y="526" type="line"/>
      <point x="373" y="536" type="line"/>
      <point x="8" y="536" type="line"/>
      <point x="8" y="526" type="line"/>
      <point x="44" y="526"/>
      <point x="59" y="513"/>
      <point x="72" y="482" type="curve" smooth="yes"/>
    </contour>
  </outline>
</glyph>
<glyph name="braceleft" format="2">
  <advance width="528"/>
  <unicode hex="007B"/>
  <outline>
    <contour>
      <point x="373" y="-122" type="curve" smooth="yes"/>
      <point x="510" y="-122" type="line"/>
      <point x="510" y="-112" type="line"/>
      <point x="456" y="-112" type="line" smooth="yes"/>
      <point x="386" y="-112"/>
      <point x="383" y="-69"/>
      <point x="383" y="-23" type="curve" smooth="yes"/>
      <point x="383" y="122" type="line" smooth="yes"/>
      <point x="383" y="249"/>
      <point x="306" y="312"/>
      <point x="115" y="321" type="curve"/>
      <point x="115" y="323" type="line"/>
      <point x="306" y="325"/>
      <point x="383" y="386"/>
      <point x="383" y="518" type="curve" smooth="yes"/>
      <point x="383" y="663" type="line" smooth="yes"/>
      <point x="383" y="707"/>
      <point x="386" y="750"/>
      <point x="456" y="750" type="curve" smooth="yes"/>
      <point x="510" y="750" type="line"/>
      <point x="510" y="760" type="line"/>
      <point x="373" y="760" type="line" smooth="yes"/>
      <point x="225" y="760"/>
      <point x="152" y="705"/>
      <point x="152" y="611" type="curve" smooth="yes"/>
      <point x="152" y="460" type="line" smooth="yes"/>
      <point x="152" y="356"/>
      <point x="119" y="324"/>
      <point x="18" y="325" type="curve"/>
      <point x="18" y="314" type="line"/>
      <point x="119" y="314"/>
      <point x="152" y="282"/>
      <point x="152" y="179" type="curve" smooth="yes"/>
      <point x="152" y="31" type="line" smooth="yes"/>
      <point x="152" y="-60"/>
      <point x="225" y="-122"/>
    </contour>
  </outline>
</glyph>
<glyph name="braceright" format="2">
  <advance width="528"/>
  <unicode hex="007D"/>
  <outline>
    <contour>
      <point x="18" y="-122" type="line"/>
      <point x="155" y="-122" type="line" smooth="yes"/>
      <point x="303" y="-122"/>
      <point x="376" y="-60"/>
      <point x="376" y="31" type="curve" smooth="yes"/>
      <point x="376" y="179" type="line" smooth="yes"/>
      <point x="376" y="282"/>
      <point x="409" y="314"/>
      <point x="510" y="314" type="curve"/>
      <point x="510" y="325" type="line"/>
      <point x="409" y="324"/>
      <point x="376" y="356"/>
      <point x="376" y="460" type="curve" smooth="yes"/>
      <point x="376" y="611" type="line" smooth="yes"/>
      <point x="376" y="705"/>
      <point x="303" y="760"/>
      <point x="155" y="760" type="curve" smooth="yes"/>
      <point x="18" y="760" type="line"/>
      <point x="18" y="750" type="line"/>
      <point x="72" y="750" type="line" smooth="yes"/>
      <point x="142" y="750"/>
      <point x="145" y="707"/>
      <point x="145" y="663" type="curve" smooth="yes"/>
      <point x="145" y="518" type="line" smooth="yes"/>
      <point x="145" y="386"/>
      <point x="222" y="325"/>
      <point x="413" y="323" type="curve"/>
      <point x="413" y="321" type="line"/>
      <point x="222" y="312"/>
      <point x="145" y="249"/>
      <point x="145" y="122" type="curve" smooth="yes"/>
      <point x="145" y="-23" type="line" smooth="yes"/>
      <point x="145" y="-69"/>
      <point x="142" y="-112"/>
      <point x="72" y="-112" type="curve" smooth="yes"/>
      <point x="18" y="-112" type="line"/>
    </contour>
  </outline>
</glyph>
<glyph name="cent" format="2">
  <advance width="652"/>
  <unicode hex="00A2"/>
  <outline>
    <contour>
      <point x="364" y="0" type="line"/>
      <point x="374" y="0" type="line"/>
      <point x="374" y="77" type="line"/>
      <point x="505" y="84"/>
      <point x="607" y="152"/>
      <point x="607" y="212" type="curve" smooth="yes"/>
      <point x="607" y="235"/>
      <point x="588" y="254"/>
      <point x="567" y="266" type="curve"/>
      <point x="551" y="161"/>
      <point x="509" y="92"/>
      <point x="374" y="92" type="curve"/>
      <point x="374" y="629" type="line"/>
      <point x="444" y="624"/>
      <point x="456" y="569"/>
      <point x="456" y="420" type="curve"/>
      <point x="622" y="420"/>
      <point x="628" y="512"/>
      <point x="628" y="524" type="curve" smooth="yes"/>
      <point x="628" y="574"/>
      <point x="571" y="635"/>
      <point x="374" y="639" type="curve"/>
      <point x="374" y="714" type="line"/>
      <point x="364" y="714" type="line"/>
      <point x="364" y="639" type="line"/>
      <point x="195" y="642"/>
      <point x="43" y="577"/>
      <point x="43" y="355" type="curve" smooth="yes"/>
      <point x="43" y="174"/>
      <point x="119" y="75"/>
      <point x="364" y="77" type="curve"/>
    </contour>
    <contour>
      <point x="364" y="92" type="line"/>
      <point x="284" y="99"/>
      <point x="269" y="180"/>
      <point x="269" y="356" type="curve" smooth="yes"/>
      <point x="269" y="567"/>
      <point x="284" y="632"/>
      <point x="364" y="629" type="curve"/>
    </contour>
  </outline>
</glyph>
<glyph name="plusminus" format="2">
  <advance width="693"/>
  <unicode hex="00B1"/>
  <outline>
    <contour>
      <point x="80" y="31" type="line"/>
      <point x="613" y="31" type="line"/>
      <point x="613" y="51" type="line"/>
      <point x="80" y="51" type="line"/>
    </contour>
    <component base="plus"/>
  </outline>
</glyph>
<glyph name="acute" format="2">
  <advance width="361"/>
  <unicode hex="00B4"/>
  <outline>
    <contour>
      <point x="40" y="605" type="line"/>
      <point x="50" y="605" type="line"/>
      <point x="131" y="639"/>
      <point x="284" y="721"/>
      <point x="321" y="756" type="curve"/>
      <point x="321" y="766" type="line"/>
      <point x="175" y="766" type="line"/>
      <point x="140" y="721"/>
      <point x="78" y="650"/>
      <point x="40" y="615" type="curve"/>
    </contour>
  </outline>
</glyph>
<glyph name="paragraph" format="2">
  <advance width="740"/>
  <unicode hex="00B6"/>
  <outline>
    <contour>
      <point x="197" y="-111" type="line"/>
      <point x="401" y="-111" type="line"/>
      <point x="401" y="750" type="line"/>
      <point x="490" y="750" type="line"/>
      <point x="490" y="-111" type="line"/>
      <point x="694" y="-111" type="line"/>
      <point x="694" y="-101" type="line"/>
      <point x="679" y="-101" type="line" smooth="yes"/>
      <point x="626" y="-101"/>
      <point x="583" y="-94"/>
      <point x="583" y="-31" type="curve" smooth="yes"/>
      <point x="583" y="678" type="line" smooth="yes"/>
      <point x="583" y="741"/>
      <point x="626" y="750"/>
      <point x="679" y="750" type="curve" smooth="yes"/>
      <point x="694" y="750" type="line"/>
      <point x="694" y="760" type="line"/>
      <point x="227" y="760" type="line" smooth="yes"/>
      <point x="96" y="760"/>
      <point x="47" y="689"/>
      <point x="47" y="582" type="curve" smooth="yes"/>
      <point x="47" y="478"/>
      <point x="89" y="386"/>
      <point x="225" y="386" type="curve" smooth="yes"/>
      <point x="308" y="386" type="line"/>
      <point x="308" y="-31" type="line" smooth="yes"/>
      <point x="308" y="-94"/>
      <point x="265" y="-101"/>
      <point x="213" y="-101" type="curve" smooth="yes"/>
      <point x="197" y="-101" type="line"/>
    </contour>
  </outline>
</glyph>
<glyph name="Oslash" format="2">
  <advance width="956"/>
  <unicode hex="00D8"/>
  <anchor x="478" y="0" name="bottom"/>
  <anchor x="478" y="714" name="top"/>
  <outline>
    <contour>
      <point x="229" y="-40" type="line"/>
      <point x="242" y="-40" type="line"/>
      <point x="279" y="23" type="line"/>
      <point x="336" y="1"/>
      <point x="401" y="-10"/>
      <point x="479" y="-10" type="curve" smooth="yes"/>
      <point x="745" y="-10"/>
      <point x="893" y="137"/>
      <point x="893" y="358" type="curve" smooth="yes"/>
      <point x="893" y="512"/>
      <point x="822" y="630"/>
      <point x="687" y="686" type="curve"/>
      <point x="729" y="755" type="line"/>
      <point x="716" y="755" type="line"/>
      <point x="676" y="691" type="line"/>
      <point x="622" y="713"/>
      <point x="556" y="725"/>
      <point x="480" y="725" type="curve" smooth="yes"/>
      <point x="200" y="725"/>
      <point x="63" y="580"/>
      <point x="63" y="359" type="curve" smooth="yes"/>
      <point x="63" y="202"/>
      <point x="132" y="82"/>
      <point x="270" y="26" type="curve"/>
    </contour>
    <contour>
      <point x="479" y="0" type="curve" smooth="yes"/>
      <point x="407" y="0"/>
      <point x="362" y="36"/>
      <point x="335" y="113" type="curve"/>
      <point x="627" y="587" type="line"/>
      <point x="642" y="531"/>
      <point x="648" y="455"/>
      <point x="648" y="358" type="curve" smooth="yes"/>
      <point x="648" y="110"/>
      <point x="601" y="0"/>
    </contour>
    <contour>
      <point x="331" y="126" type="line"/>
      <point x="315" y="183"/>
      <point x="307" y="260"/>
      <point x="307" y="358" type="curve" smooth="yes"/>
      <point x="307" y="605"/>
      <point x="353" y="715"/>
      <point x="480" y="715" type="curve" smooth="yes"/>
      <point x="551" y="715"/>
      <point x="597" y="678"/>
      <point x="622" y="601" type="curve"/>
    </contour>
  </outline>
</glyph>
<glyph name="uni0193" format="2">
  <advance width="945"/>
  <unicode hex="0193"/>
  <anchor x="472" y="0" name="bottom"/>
  <anchor x="472" y="714" name="top"/>
  <outline>
    <contour>
      <point x="513" y="-10" type="curve" smooth="yes"/>
      <point x="623" y="-10"/>
      <point x="720" y="11"/>
      <point x="821" y="54" type="curve"/>
      <point x="821" y="254" type="line" smooth="yes"/>
      <point x="821" y="304"/>
      <point x="832" y="333"/>
      <point x="882" y="333" type="curve" smooth="yes"/>
      <point x="892" y="333" type="line"/>
      <point x="892" y="343" type="line"/>
      <point x="492" y="343" type="line"/>
      <point x="492" y="333" type="line"/>
      <point x="515" y="333" type="line" smooth="yes"/>
      <point x="572" y="333"/>
      <point x="588" y="304"/>
      <point x="588" y="258" type="curve" smooth="yes"/>
      <point x="588" y="2" type="line"/>
      <point x="566" y="0"/>
      <point x="548" y="0"/>
      <point x="529" y="0" type="curve" smooth="yes"/>
      <point x="372" y="0"/>
      <point x="308" y="122"/>
      <point x="308" y="358" type="curve" smooth="yes"/>
      <point x="308" y="595"/>
      <point x="368" y="714"/>
      <point x="516" y="714" type="curve" smooth="yes"/>
      <point x="593" y="714"/>
      <point x="653" y="669"/>
      <point x="653" y="500" type="curve"/>
      <point x="778" y="500"/>
      <point x="834" y="551"/>
      <point x="834" y="603" type="curve" smooth="yes"/>
      <point x="834" y="711" type="line" smooth="yes"/>
      <point x="834" y="771"/>
      <point x="863" y="795"/>
      <point x="940" y="795" type="curve" smooth="yes"/>
      <point x="976" y="795"/>
      <point x="1006" y="789"/>
      <point x="1044" y="777" type="curve"/>
      <point x="1055" y="792"/>
      <point x="1061" y="807"/>
      <point x="1061" y="825" type="curve" smooth="yes"/>
      <point x="1061" y="869"/>
      <point x="1010" y="896"/>
      <point x="940" y="896" type="curve" smooth="yes"/>
      <point x="856" y="896"/>
      <point x="824" y="863"/>
      <point x="824" y="802" type="curve" smooth="yes"/>
      <point x="824" y="636" type="line"/>
      <point x="793" y="686"/>
      <point x="689" y="724"/>
      <point x="518" y="724" type="curve" smooth="yes"/>
      <point x="220" y="724"/>
      <point x="63" y="574"/>
      <point x="63" y="358" type="curve" smooth="yes"/>
      <point x="63" y="137"/>
      <point x="210" y="-10"/>
    </contour>
  </outline>
</glyph>
<glyph name="uni019C" format="2">
  <advance width="1437"/>
  <unicode hex="019C"/>
  <anchor x="719" y="0" name="bottom"/>
  <anchor x="719" y="714" name="top"/>
  <outline>
    <contour>
      <point x="379" y="-10" type="curve" smooth="yes"/>
      <point x="512" y="-10"/>
      <point x="567" y="33"/>
      <point x="590" y="135" type="curve"/>
      <point x="610" y="33"/>
      <point x="712" y="-10"/>
      <point x="827" y="-10" type="curve" smooth="yes"/>
      <point x="921" y="-10"/>
      <point x="1007" y="15"/>
      <point x="1026" y="87" type="curve"/>
      <point x="1028" y="87" type="line"/>
      <point x="1028" y="0" type="line"/>
      <point x="1349" y="0" type="line"/>
      <point x="1349" y="10" type="line"/>
      <point x="1301" y="10" type="line" smooth="yes"/>
      <point x="1278" y="10"/>
      <point x="1247" y="24"/>
      <point x="1247" y="72" type="curve" smooth="yes"/>
      <point x="1247" y="646" type="line" smooth="yes"/>
      <point x="1247" y="693"/>
      <point x="1267" y="704"/>
      <point x="1307" y="704" type="curve" smooth="yes"/>
      <point x="1349" y="704" type="line"/>
      <point x="1349" y="714" type="line"/>
      <point x="940" y="714" type="line"/>
      <point x="940" y="704" type="line"/>
      <point x="966" y="704" type="line" smooth="yes"/>
      <point x="1004" y="704"/>
      <point x="1027" y="693"/>
      <point x="1027" y="646" type="curve" smooth="yes"/>
      <point x="1027" y="179" type="line" smooth="yes"/>
      <point x="1027" y="67"/>
      <point x="985" y="12"/>
      <point x="905" y="12" type="curve" smooth="yes"/>
      <point x="834" y="12"/>
      <point x="800" y="53"/>
      <point x="800" y="169" type="curve" smooth="yes"/>
      <point x="800" y="646" type="line" smooth="yes"/>
      <point x="800" y="693"/>
      <point x="822" y="704"/>
      <point x="859" y="704" type="curve" smooth="yes"/>
      <point x="887" y="704" type="line"/>
      <point x="887" y="714" type="line"/>
      <point x="490" y="714" type="line"/>
      <point x="490" y="704" type="line"/>
      <point x="517" y="704" type="line" smooth="yes"/>
      <point x="551" y="704"/>
      <point x="580" y="692"/>
      <point x="580" y="650" type="curve" smooth="yes"/>
      <point x="580" y="196" type="line" smooth="yes"/>
      <point x="580" y="89"/>
      <point x="541" y="12"/>
      <point x="455" y="12" type="curve" smooth="yes"/>
      <point x="377" y="12"/>
      <point x="352" y="47"/>
      <point x="352" y="179" type="curve" smooth="yes"/>
      <point x="352" y="646" type="line" smooth="yes"/>
      <point x="352" y="693"/>
      <point x="376" y="704"/>
      <point x="412" y="704" type="curve" smooth="yes"/>
      <point x="437" y="704" type="line"/>
      <point x="437" y="714" type="line"/>
      <point x="29" y="714" type="line"/>
      <point x="29" y="704" type="line"/>
      <point x="71" y="704" type="line" smooth="yes"/>
      <point x="108" y="704"/>
      <point x="132" y="692"/>
      <point x="132" y="650" type="curve" smooth="yes"/>
      <point x="132" y="261" type="line" smooth="yes"/>
      <point x="132" y="78"/>
      <point x="193" y="-10"/>
    </contour>
  </outline>
</glyph>
<glyph name="uni019D" format="2">
  <advance width="940"/>
  <unicode hex="019D"/>
  <anchor x="470" y="-240" name="bottom"/>
  <anchor x="470" y="714" name="top"/>
  <outline>
    <contour>
      <point x="-11" y="-240" type="line"/>
      <point x="1" y="-240" type="line" smooth="yes"/>
      <point x="151" y="-240"/>
      <point x="182" y="-204"/>
      <point x="182" y="-28" type="curve" smooth="yes"/>
      <point x="182" y="661" type="line"/>
      <point x="729" y="0" type="line"/>
      <point x="794" y="0" type="line"/>
      <point x="794" y="647" type="line" smooth="yes"/>
      <point x="794" y="685"/>
      <point x="822" y="704"/>
      <point x="851" y="704" type="curve" smooth="yes"/>
      <point x="931" y="704" type="line"/>
      <point x="931" y="714" type="line"/>
      <point x="638" y="714" type="line"/>
      <point x="638" y="704" type="line"/>
      <point x="728" y="704" type="line" smooth="yes"/>
      <point x="752" y="704"/>
      <point x="784" y="690"/>
      <point x="784" y="651" type="curve" smooth="yes"/>
      <point x="784" y="238" type="line"/>
      <point x="383" y="714" type="line"/>
      <point x="24" y="714" type="line"/>
      <point x="24" y="704" type="line"/>
      <point x="113" y="704" type="line" smooth="yes"/>
      <point x="134" y="704"/>
      <point x="172" y="704"/>
      <point x="172" y="651" type="curve" smooth="yes"/>
      <point x="172" y="-20" type="line" smooth="yes"/>
      <point x="172" y="-167"/>
      <point x="139" y="-230"/>
      <point x="1" y="-230" type="curve" smooth="yes"/>
      <point x="-11" y="-230" type="line"/>
    </contour>
  </outline>
</glyph>
<glyph name="Ohorn" format="2">
  <advance width="1020"/>
  <unicode hex="01A0"/>
  <anchor x="511" y="0" name="bottom"/>
  <anchor x="511" y="714" name="top"/>
  <outline>
    <contour>
      <point x="479" y="-10" type="curve" smooth="yes"/>
      <point x="745" y="-10"/>
      <point x="893" y="137"/>
      <point x="893" y="358" type="curve" smooth="yes"/>
      <point x="893" y="400"/>
      <point x="887" y="439"/>
      <point x="876" y="474" type="curve"/>
      <point x="965" y="501"/>
      <point x="1043" y="567"/>
      <point x="1043" y="663" type="curve" smooth="yes"/>
      <point x="1043" y="734"/>
      <point x="998" y="770"/>
      <point x="941" y="770" type="curve" smooth="yes"/>
      <point x="891" y="770"/>
      <point x="852" y="741"/>
      <point x="852" y="692" type="curve" smooth="yes"/>
      <point x="852" y="604"/>
      <point x="978" y="640"/>
      <point x="978" y="570" type="curve" smooth="yes"/>
      <point x="978" y="514"/>
      <point x="905" y="491"/>
      <point x="874" y="483" type="curve"/>
      <point x="825" y="633"/>
      <point x="690" y="725"/>
      <point x="480" y="725" type="curve" smooth="yes"/>
      <point x="200" y="725"/>
      <point x="63" y="580"/>
      <point x="63" y="359" type="curve" smooth="yes"/>
      <point x="63" y="137"/>
      <point x="200" y="-10"/>
    </contour>
    <contour>
      <point x="479" y="0" type="curve" smooth="yes"/>
      <point x="354" y="0"/>
      <point x="307" y="110"/>
      <point x="307" y="358" type="curve" smooth="yes"/>
      <point x="307" y="605"/>
      <point x="353" y="715"/>
      <point x="480" y="715" type="curve" smooth="yes"/>
      <point x="603" y="715"/>
      <point x="648" y="605"/>
      <point x="648" y="358" type="curve" smooth="yes"/>
      <point x="648" y="110"/>
      <point x="601" y="0"/>
    </contour>
  </outline>
</glyph>
<glyph name="uni01AA" format="2">
  <advance width="455"/>
  <unicode hex="01AA"/>
  <anchor x="227" y="-240" name="bottom"/>
  <anchor x="227" y="766" name="top"/>
  <outline>
    <contour>
      <point x="422" y="-240" type="curve" smooth="yes"/>
      <point x="456" y="-240"/>
      <point x="502" y="-224"/>
      <point x="500" y="-223" type="curve"/>
      <point x="500" y="-213" type="line"/>
      <point x="479" y="-221"/>
      <point x="457" y="-226"/>
      <point x="435" y="-226" type="curve" smooth="yes"/>
      <point x="383" y="-226"/>
      <point x="337" y="-195"/>
      <point x="337" y="-122" type="curve" smooth="yes"/>
      <point x="337" y="548" type="line" smooth="yes"/>
      <point x="337" y="683"/>
      <point x="253" y="766"/>
      <point x="111" y="766" type="curve" smooth="yes"/>
      <point x="-56" y="766"/>
      <point x="-107" y="713"/>
      <point x="-107" y="628" type="curve" smooth="yes"/>
      <point x="-107" y="555"/>
      <point x="-66" y="510"/>
      <point x="13" y="510" type="curve" smooth="yes"/>
      <point x="63" y="510"/>
      <point x="94" y="533"/>
      <point x="110" y="563" type="curve"/>
      <point x="110" y="-36" type="line" smooth="yes"/>
      <point x="110" y="-188"/>
      <point x="190" y="-240"/>
    </contour>
    <contour>
      <point x="13" y="520" type="curve" smooth="yes"/>
      <point x="-57" y="520"/>
      <point x="-95" y="561"/>
      <point x="-95" y="628" type="curve" smooth="yes"/>
      <point x="-95" y="694"/>
      <point x="-54" y="735"/>
      <point x="14" y="735" type="curve" smooth="yes"/>
      <point x="72" y="735"/>
      <point x="110" y="696"/>
      <point x="110" y="637" type="curve" smooth="yes"/>
      <point x="110" y="559"/>
      <point x="73" y="520"/>
    </contour>
  </outline>
</glyph>
<glyph name="uni01AE" format="2">
  <advance width="795"/>
  <unicode hex="01AE"/>
  <anchor x="397" y="-240" name="bottom"/>
  <anchor x="397" y="714" name="top"/>
  <outline>
    <contour>
      <point x="563" y="-240" type="curve" smooth="yes"/>
      <point x="612" y="-240"/>
      <point x="672" y="-232"/>
      <point x="695" y="-223" type="curve"/>
      <point x="695" y="-213" type="line"/>
      <point x="663" y="-220"/>
      <point x="638" y="-222"/>
      <point x="625" y="-222" type="curve" smooth="yes"/>
      <point x="553" y="-222"/>
      <point x="516" y="-187"/>
      <point x="516" y="-118" type="curve" smooth="yes"/>
      <point x="516" y="704" type="line"/>
      <point x="618" y="704" type="line" smooth="yes"/>
      <point x="728" y="704"/>
      <point x="765" y="666"/>
      <point x="778" y="544" type="curve" smooth="yes"/>
      <point x="783" y="492" type="line"/>
      <point x="793" y="492" type="line"/>
      <point x="786" y="714" type="line"/>
      <point x="11" y="714" type="line"/>
      <point x="4" y="492" type="line"/>
      <point x="14" y="492" type="line"/>
      <point x="17" y="544" type="line" smooth="yes"/>
      <point x="24" y="666"/>
      <point x="69" y="704"/>
      <point x="179" y="704" type="curve" smooth="yes"/>
      <point x="281" y="704" type="line"/>
      <point x="281" y="25" type="line" smooth="yes"/>
      <point x="281" y="-166"/>
      <point x="375" y="-240"/>
    </contour>
  </outline>
</glyph>
<glyph name="uni023A" format="2">
  <advance width="919"/>
  <unicode hex="023A"/>
  <anchor x="459" y="-99" name="bottom"/>
  <anchor x="459" y="714" name="top"/>
  <anchor x="789" y="714" name="topright"/>
  <outline>
    <contour>
      <point x="287" y="-99" type="line"/>
      <point x="299" y="-99" type="line"/>
      <point x="631" y="760" type="line"/>
      <point x="619" y="760" type="line"/>
    </contour>
    <component base="A"/>
  </outline>
</glyph>
<glyph name="uni0240" format="2">
  <advance width="633"/>
  <unicode hex="0240"/>
  <anchor x="316" y="-228" name="bottom"/>
  <anchor x="316" y="536" name="top"/>
  <outline>
    <contour>
      <point x="514" y="-220" type="curve" smooth="yes"/>
      <point x="590" y="-220"/>
      <point x="629" y="-178"/>
      <point x="629" y="-129" type="curve" smooth="yes"/>
      <point x="629" y="-83"/>
      <point x="573" y="-51"/>
      <point x="529" y="-50" type="curve"/>
      <point x="529" y="-104"/>
      <point x="517" y="-132"/>
      <point x="478" y="-132" type="curve" smooth="yes"/>
      <point x="446" y="-132"/>
      <point x="440" y="-114"/>
      <point x="413" y="-81" type="curve" smooth="yes"/>
      <point x="373" y="-31"/>
      <point x="342" y="12"/>
      <point x="214" y="16" type="curve"/>
      <point x="600" y="526" type="line"/>
      <point x="600" y="536" type="line"/>
      <point x="55" y="536" type="line"/>
      <point x="41" y="344" type="line"/>
      <point x="51" y="344" type="line"/>
      <point x="54" y="376" type="line" smooth="yes"/>
      <point x="63" y="494"/>
      <point x="93" y="526"/>
      <point x="205" y="526" type="curve" smooth="yes"/>
      <point x="389" y="526" type="line"/>
      <point x="0" y="10" type="line"/>
      <point x="0" y="0" type="line"/>
      <point x="176" y="0" type="line" smooth="yes"/>
      <point x="293" y="0"/>
      <point x="291" y="-48"/>
      <point x="327" y="-112" type="curve" smooth="yes"/>
      <point x="358" y="-168"/>
      <point x="390" y="-220"/>
    </contour>
  </outline>
</glyph>
<glyph name="uni0264" format="2">
  <advance width="796"/>
  <unicode hex="0264"/>
  <anchor x="399" y="0" name="bottom"/>
  <anchor x="399" y="536" name="top"/>
  <outline>
    <contour>
      <point x="385" y="-10" type="curve" smooth="yes"/>
      <point x="506" y="-10"/>
      <point x="580" y="64"/>
      <point x="580" y="177" type="curve" smooth="yes"/>
      <point x="580" y="283"/>
      <point x="541" y="370"/>
      <point x="476" y="433" type="curve"/>
      <point x="498" y="437"/>
      <point x="553" y="461"/>
      <point x="610" y="461" type="curve" smooth="yes"/>
      <point x="662" y="461"/>
      <point x="716" y="437"/>
      <point x="753" y="377" type="curve"/>
      <point x="774" y="401"/>
      <point x="786" y="432"/>
      <point x="786" y="462" type="curve" smooth="yes"/>
      <point x="786" y="510"/>
      <point x="754" y="546"/>
      <point x="687" y="546" type="curve" smooth="yes"/>
      <point x="601" y="546"/>
      <point x="538" y="494"/>
      <point x="465" y="442" type="curve"/>
      <point x="393" y="508"/>
      <point x="292" y="546"/>
      <point x="178" y="546" type="curve" smooth="yes"/>
      <point x="62" y="546"/>
      <point x="0" y="494"/>
      <point x="0" y="424" type="curve" smooth="yes"/>
      <point x="0" y="398"/>
      <point x="12" y="375"/>
      <point x="30" y="361" type="curve"/>
      <point x="52" y="384"/>
      <point x="97" y="401"/>
      <point x="134" y="401" type="curve" smooth="yes"/>
      <point x="195" y="401"/>
      <point x="261" y="371"/>
      <point x="310" y="321" type="curve"/>
      <point x="253" y="254"/>
      <point x="214" y="182"/>
      <point x="214" y="117" type="curve" smooth="yes"/>
      <point x="214" y="40"/>
      <point x="268" y="-10"/>
    </contour>
    <contour>
      <point x="313" y="17" type="curve" smooth="yes"/>
      <point x="269" y="17"/>
      <point x="230" y="56"/>
      <point x="230" y="121" type="curve" smooth="yes"/>
      <point x="230" y="183"/>
      <point x="266" y="254"/>
      <point x="316" y="315" type="curve"/>
      <point x="362" y="265"/>
      <point x="393" y="199"/>
      <point x="393" y="129" type="curve" smooth="yes"/>
      <point x="393" y="68"/>
      <point x="363" y="17"/>
    </contour>
  </outline>
</glyph>
<glyph name="uni026A" format="2">
  <advance width="429"/>
  <unicode hex="026A"/>
  <anchor x="214" y="0" name="bottom"/>
  <anchor x="214" y="536" name="top"/>
  <outline>
    <contour>
      <point x="16" y="0" type="line"/>
      <point x="413" y="0" type="line"/>
      <point x="413" y="10" type="line"/>
      <point x="400" y="10" type="line" smooth="yes"/>
      <point x="364" y="10"/>
      <point x="327" y="30"/>
      <point x="327" y="73" type="curve" smooth="yes"/>
      <point x="327" y="463" type="line" smooth="yes"/>
      <point x="327" y="512"/>
      <point x="364" y="526"/>
      <point x="400" y="526" type="curve" smooth="yes"/>
      <point x="413" y="526" type="line"/>
      <point x="413" y="536" type="line"/>
      <point x="16" y="536" type="line"/>
      <point x="16" y="526" type="line"/>
      <point x="29" y="526" type="line" smooth="yes"/>
      <point x="66" y="526"/>
      <point x="100" y="513"/>
      <point x="100" y="464" type="curve" smooth="yes"/>
      <point x="100" y="73" type="line" smooth="yes"/>
      <point x="100" y="20"/>
      <point x="68" y="10"/>
      <point x="28" y="10" type="curve" smooth="yes"/>
      <point x="16" y="10" type="line"/>
    </contour>
  </outline>
</glyph>
<glyph name="uni026D" format="2">
  <advance width="435"/>
  <unicode hex="026D"/>
  <anchor x="218" y="-240" name="bottom"/>
  <anchor x="218" y="760" name="top"/>
  <outline>
    <contour>
      <point x="345" y="-240" type="curve" smooth="yes"/>
      <point x="428" y="-240"/>
      <point x="479" y="-230"/>
      <point x="515" y="-224" type="curve"/>
      <point x="515" y="-214" type="line"/>
      <point x="484" y="-218"/>
      <point x="460" y="-219"/>
      <point x="445" y="-219" type="curve" smooth="yes"/>
      <point x="390" y="-219"/>
      <point x="354" y="-210"/>
      <point x="354" y="-147" type="curve" smooth="yes"/>
      <point x="354" y="760" type="line"/>
      <point x="41" y="760" type="line"/>
      <point x="41" y="750" type="line"/>
      <point x="47" y="750" type="line" smooth="yes"/>
      <point x="91" y="750"/>
      <point x="127" y="727"/>
      <point x="127" y="695" type="curve" smooth="yes"/>
      <point x="127" y="-56" type="line" smooth="yes"/>
      <point x="127" y="-188"/>
      <point x="182" y="-240"/>
    </contour>
  </outline>
</glyph>
<glyph name="uni027D" format="2">
  <advance width="653"/>
  <unicode hex="027D"/>
  <anchor x="327" y="-240" name="bottom"/>
  <anchor x="327" y="536" name="top"/>
  <outline>
    <contour>
      <point x="318" y="-240" type="curve" smooth="yes"/>
      <point x="401" y="-240"/>
      <point x="452" y="-230"/>
      <point x="488" y="-224" type="curve"/>
      <point x="488" y="-214" type="line"/>
      <point x="458" y="-220"/>
      <point x="433" y="-221"/>
      <point x="418" y="-221" type="curve" smooth="yes"/>
      <point x="363" y="-221"/>
      <point x="327" y="-209"/>
      <point x="327" y="-147" type="curve" smooth="yes"/>
      <point x="327" y="302" type="line" smooth="yes"/>
      <point x="327" y="410"/>
      <point x="341" y="483"/>
      <point x="406" y="483" type="curve" smooth="yes"/>
      <point x="449" y="483"/>
      <point x="463" y="441"/>
      <point x="463" y="331" type="curve"/>
      <point x="563" y="331"/>
      <point x="637" y="373"/>
      <point x="637" y="446" type="curve" smooth="yes"/>
      <point x="637" y="501"/>
      <point x="593" y="550"/>
      <point x="504" y="550" type="curve" smooth="yes"/>
      <point x="420" y="550"/>
      <point x="349" y="504"/>
      <point x="327" y="419" type="curve"/>
      <point x="325" y="419" type="line"/>
      <point x="325" y="536" type="line"/>
      <point x="23" y="536" type="line"/>
      <point x="23" y="526" type="line"/>
      <point x="29" y="526" type="line" smooth="yes"/>
      <point x="76" y="526"/>
      <point x="101" y="523"/>
      <point x="101" y="451" type="curve" smooth="yes"/>
      <point x="101" y="-57" type="line" smooth="yes"/>
      <point x="101" y="-188"/>
      <point x="156" y="-240"/>
    </contour>
  </outline>
</glyph>
<glyph name="rfishhookreversed" format="2">
  <advance width="671"/>
  <unicode hex="027F"/>
  <anchor x="335" y="-217" name="bottom"/>
  <anchor x="335" y="536" name="top"/>
  <outline>
    <contour>
      <point x="242" y="-217" type="line"/>
      <point x="670" y="-217" type="line"/>
      <point x="670" y="-207" type="line"/>
      <point x="656" y="-207" type="line" smooth="yes"/>
      <point x="606" y="-207"/>
      <point x="581" y="-191"/>
      <point x="581" y="-136" type="curve" smooth="yes"/>
      <point x="581" y="297" type="line" smooth="yes"/>
      <point x="581" y="490"/>
      <point x="474" y="552"/>
      <point x="274" y="552" type="curve" smooth="yes"/>
      <point x="92" y="552"/>
      <point x="37" y="481"/>
      <point x="37" y="416" type="curve" smooth="yes"/>
      <point x="37" y="333"/>
      <point x="109" y="311"/>
      <point x="214" y="311" type="curve"/>
      <point x="214" y="487"/>
      <point x="231" y="542"/>
      <point x="289" y="542" type="curve" smooth="yes"/>
      <point x="339" y="542"/>
      <point x="354" y="518"/>
      <point x="354" y="444" type="curve" smooth="yes"/>
      <point x="354" y="-142" type="line" smooth="yes"/>
      <point x="354" y="-200"/>
      <point x="324" y="-207"/>
      <point x="283" y="-207" type="curve" smooth="yes"/>
      <point x="242" y="-207" type="line"/>
    </contour>
  </outline>
</glyph>
<glyph name="eshcurl" format="2">
  <advance width="605"/>
  <unicode hex="0286"/>
  <anchor x="303" y="-239" name="bottom"/>
  <anchor x="303" y="764" name="top"/>
  <outline>
    <contour>
      <point x="128" y="-240" type="curve" smooth="yes"/>
      <point x="285" y="-240"/>
      <point x="355" y="-161"/>
      <point x="372" y="-49" type="curve"/>
      <point x="414" y="-83"/>
      <point x="449" y="-132"/>
      <point x="472" y="-178" type="curve"/>
      <point x="481" y="-174" type="line"/>
      <point x="457" y="-123"/>
      <point x="419" y="-75"/>
      <point x="375" y="-38" type="curve"/>
      <point x="380" y="0"/>
      <point x="381" y="14"/>
      <point x="381" y="38" type="curve" smooth="yes"/>
      <point x="381" y="671" type="line" smooth="yes"/>
      <point x="381" y="729"/>
      <point x="411" y="755"/>
      <point x="451" y="755" type="curve" smooth="yes"/>
      <point x="505" y="755"/>
      <point x="521" y="727"/>
      <point x="521" y="545" type="curve"/>
      <point x="601" y="545"/>
      <point x="698" y="549"/>
      <point x="698" y="622" type="curve" smooth="yes"/>
      <point x="698" y="675"/>
      <point x="667" y="764"/>
      <point x="457" y="764" type="curve" smooth="yes"/>
      <point x="276" y="764"/>
      <point x="154" y="710"/>
      <point x="154" y="522" type="curve" smooth="yes"/>
      <point x="154" y="10" type="line"/>
      <point x="144" y="11"/>
      <point x="137" y="11"/>
      <point x="124" y="11" type="curve" smooth="yes"/>
      <point x="21" y="11"/>
      <point x="-42" y="-44"/>
      <point x="-42" y="-123" type="curve" smooth="yes"/>
      <point x="-42" y="-196"/>
      <point x="21" y="-240"/>
    </contour>
    <contour>
      <point x="59" y="-208" type="curve" smooth="yes"/>
      <point x="5" y="-208"/>
      <point x="-30" y="-179"/>
      <point x="-30" y="-123" type="curve" smooth="yes"/>
      <point x="-30" y="-50"/>
      <point x="27" y="1"/>
      <point x="116" y="1" type="curve" smooth="yes"/>
      <point x="127" y="1"/>
      <point x="144" y="1"/>
      <point x="154" y="0" type="curve"/>
      <point x="154" y="-91" type="line" smooth="yes"/>
      <point x="154" y="-175"/>
      <point x="125" y="-208"/>
    </contour>
  </outline>
</glyph>
<glyph name="eopenclosed" format="2">
  <advance width="734"/>
  <unicode hex="029A"/>
  <anchor x="367" y="0" name="bottom"/>
  <anchor x="367" y="536" name="top"/>
  <outline>
    <contour>
      <point x="335" y="-10" type="curve" smooth="yes"/>
      <point x="583" y="-10"/>
      <point x="690" y="118"/>
      <point x="690" y="298" type="curve" smooth="yes"/>
      <point x="690" y="479"/>
      <point x="563" y="553"/>
      <point x="354" y="553" type="curve" smooth="yes"/>
      <point x="163" y="553"/>
      <point x="55" y="522"/>
      <point x="55" y="422" type="curve" smooth="yes"/>
      <point x="55" y="346"/>
      <point x="132" y="303"/>
      <point x="279" y="297" type="curve"/>
      <point x="279" y="295" type="line"/>
      <point x="121" y="274"/>
      <point x="48" y="239"/>
      <point x="48" y="128" type="curve" smooth="yes"/>
      <point x="48" y="32"/>
      <point x="161" y="-10"/>
    </contour>
    <contour>
      <point x="369" y="0" type="curve" smooth="yes"/>
      <point x="315" y="0"/>
      <point x="278" y="59"/>
      <point x="278" y="131" type="curve" smooth="yes"/>
      <point x="278" y="245"/>
      <point x="304" y="291"/>
      <point x="371" y="291" type="curve" smooth="yes"/>
      <point x="388" y="291" type="line"/>
      <point x="388" y="301" type="line"/>
      <point x="379" y="301" type="line" smooth="yes"/>
      <point x="311" y="303"/>
      <point x="286" y="340"/>
      <point x="286" y="434" type="curve" smooth="yes"/>
      <point x="286" y="494"/>
      <point x="317" y="543"/>
      <point x="364" y="543" type="curve" smooth="yes"/>
      <point x="432" y="543"/>
      <point x="460" y="488"/>
      <point x="460" y="272" type="curve" smooth="yes"/>
      <point x="460" y="55"/>
      <point x="435" y="0"/>
    </contour>
  </outline>
</glyph>
<glyph name="uni029F" format="2">
  <advance width="636"/>
  <unicode hex="029F"/>
  <anchor x="319" y="0" name="bottom"/>
  <anchor x="319" y="536" name="top"/>
  <outline>
    <contour>
      <point x="15" y="0" type="line"/>
      <point x="617" y="0" type="line"/>
      <point x="624" y="264" type="line"/>
      <point x="614" y="264" type="line"/>
      <point x="616" y="276" type="line" smooth="yes"/>
      <point x="601" y="72"/>
      <point x="527" y="10"/>
      <point x="370" y="10" type="curve" smooth="yes"/>
      <point x="329" y="10" type="line"/>
      <point x="329" y="519" type="line" smooth="yes"/>
      <point x="329" y="516"/>
      <point x="343" y="526"/>
      <point x="357" y="526" type="curve" smooth="yes"/>
      <point x="429" y="526" type="line"/>
      <point x="429" y="536" type="line"/>
      <point x="11" y="536" type="line"/>
      <point x="11" y="526" type="line"/>
      <point x="78" y="526" type="line" smooth="yes"/>
      <point x="95" y="526"/>
      <point x="102" y="524"/>
      <point x="102" y="519" type="curve" smooth="yes"/>
      <point x="102" y="17" type="line" smooth="yes"/>
      <point x="102" y="12"/>
      <point x="94" y="10"/>
      <point x="74" y="10" type="curve" smooth="yes"/>
      <point x="15" y="10" type="line"/>
    </contour>
  </outline>
</glyph>
<glyph name="uni02AA" format="2">
  <advance width="1036"/>
  <unicode hex="02AA"/>
  <anchor x="519" y="0" name="bottom"/>
  <anchor x="519" y="760" name="top"/>
  <outline>
    <contour>
      <point x="693" y="-10" type="curve" smooth="yes"/>
      <point x="913" y="-10"/>
      <point x="987" y="68"/>
      <point x="987" y="176" type="curve" smooth="yes"/>
      <point x="987" y="292"/>
      <point x="902" y="331"/>
      <point x="776" y="360" type="curve" smooth="yes"/>
      <point x="668" y="386"/>
      <point x="617" y="402"/>
      <point x="617" y="462" type="curve" smooth="yes"/>
      <point x="617" y="499"/>
      <point x="638" y="541"/>
      <point x="721" y="541" type="curve" smooth="yes"/>
      <point x="806" y="541"/>
      <point x="833" y="502"/>
      <point x="833" y="377" type="curve"/>
      <point x="922" y="377"/>
      <point x="960" y="406"/>
      <point x="960" y="449" type="curve" smooth="yes"/>
      <point x="960" y="503"/>
      <point x="900" y="551"/>
      <point x="740" y="551" type="curve" smooth="yes"/>
      <point x="576" y="551"/>
      <point x="466" y="498"/>
      <point x="466" y="375" type="curve" smooth="yes"/>
      <point x="466" y="265"/>
      <point x="536" y="218"/>
      <point x="679" y="187" type="curve" smooth="yes"/>
      <point x="774" y="168"/>
      <point x="838" y="150"/>
      <point x="838" y="89" type="curve" smooth="yes"/>
      <point x="838" y="39"/>
      <point x="795" y="0"/>
      <point x="715" y="0" type="curve" smooth="yes"/>
      <point x="619" y="0"/>
      <point x="582" y="56"/>
      <point x="582" y="196" type="curve"/>
      <point x="514" y="196"/>
      <point x="459" y="172"/>
      <point x="459" y="116" type="curve" smooth="yes"/>
      <point x="459" y="72"/>
      <point x="489" y="32"/>
      <point x="554" y="10" type="curve"/>
      <point x="410" y="10" type="line" smooth="yes"/>
      <point x="367" y="10"/>
      <point x="337" y="29"/>
      <point x="337" y="79" type="curve" smooth="yes"/>
      <point x="337" y="760" type="line"/>
      <point x="24" y="760" type="line"/>
      <point x="24" y="750" type="line"/>
      <point x="36" y="750" type="line" smooth="yes"/>
      <point x="55" y="750"/>
      <point x="110" y="743"/>
      <point x="110" y="697" type="curve" smooth="yes"/>
      <point x="110" y="79" type="line" smooth="yes"/>
      <point x="110" y="29"/>
      <point x="80" y="10"/>
      <point x="36" y="10" type="curve" smooth="yes"/>
      <point x="24" y="10" type="line"/>
      <point x="24" y="0" type="line"/>
      <point x="589" y="0" type="line"/>
      <point x="619" y="-6"/>
      <point x="654" y="-10"/>
    </contour>
  </outline>
</glyph>
<glyph name="uni02B9" format="2">
  <advance width="297"/>
  <unicode hex="02B9"/>
  <outline>
    <contour>
      <point x="62" y="408" type="curve"/>
      <point x="77" y="408" type="line"/>
      <point x="123" y="481"/>
      <point x="198" y="630"/>
      <point x="223" y="702" type="curve"/>
      <point x="218" y="714" type="line"/>
      <point x="91" y="714" type="line"/>
      <point x="90" y="644"/>
      <point x="76" y="482"/>
    </contour>
  </outline>
</glyph>
<glyph name="uni02C5" format="2">
  <advance width="304"/>
  <unicode hex="02C5"/>
  <outline>
    <contour>
      <point x="131" y="572" type="curve"/>
      <point x="169" y="572" type="line"/>
      <point x="195" y="635"/>
      <point x="239" y="711"/>
      <point x="292" y="778" type="curve"/>
      <point x="292" y="784" type="line"/>
      <point x="277" y="784" type="line"/>
      <point x="223" y="743"/>
      <point x="187" y="706"/>
      <point x="151" y="652" type="curve"/>
      <point x="115" y="706"/>
      <point x="80" y="743"/>
      <point x="25" y="784" type="curve"/>
      <point x="10" y="784" type="line"/>
      <point x="10" y="778" type="line"/>
      <point x="63" y="711"/>
      <point x="105" y="635"/>
    </contour>
  </outline>
</glyph>
<glyph name="circumflex" format="2">
  <advance width="535"/>
  <unicode hex="02C6"/>
  <outline>
    <contour>
      <point x="40" y="606" type="line"/>
      <point x="50" y="606" type="line"/>
      <point x="128" y="635"/>
      <point x="231" y="683"/>
      <point x="268" y="700" type="curve"/>
      <point x="303" y="683"/>
      <point x="407" y="635"/>
      <point x="485" y="606" type="curve"/>
      <point x="495" y="606" type="line"/>
      <point x="495" y="616" type="line"/>
      <point x="434" y="654"/>
      <point x="376" y="721"/>
      <point x="344" y="766" type="curve"/>
      <point x="189" y="766" type="line"/>
      <point x="157" y="721"/>
      <point x="101" y="654"/>
      <point x="40" y="616" type="curve"/>
    </contour>
  </outline>
</glyph>
<glyph name="caron" format="2">
  <advance width="535"/>
  <unicode hex="02C7"/>
  <outline>
    <contour>
      <point x="189" y="606" type="curve"/>
      <point x="344" y="606" type="line"/>
      <point x="376" y="651"/>
      <point x="434" y="718"/>
      <point x="495" y="756" type="curve"/>
      <point x="495" y="766" type="line"/>
      <point x="485" y="766" type="line"/>
      <point x="407" y="737"/>
      <point x="303" y="689"/>
      <point x="268" y="672" type="curve"/>
      <point x="231" y="689"/>
      <point x="128" y="737"/>
      <point x="50" y="766" type="curve"/>
      <point x="40" y="766" type="line"/>
      <point x="40" y="756" type="line"/>
      <point x="101" y="718"/>
      <point x="157" y="651"/>
    </contour>
  </outline>
</glyph>
<glyph name="uni02F2" format="2">
  <advance width="311"/>
  <unicode hex="02F2"/>
  <outline>
    <contour>
      <point x="40" y="-241" type="line"/>
      <point x="46" y="-241" type="line"/>
      <point x="119" y="-192"/>
      <point x="202" y="-154"/>
      <point x="271" y="-130" type="curve"/>
      <point x="271" y="-95" type="line"/>
      <point x="202" y="-71"/>
      <point x="119" y="-31"/>
      <point x="46" y="18" type="curve"/>
      <point x="40" y="18" type="line"/>
      <point x="40" y="4" type="line"/>
      <point x="85" y="-46"/>
      <point x="125" y="-79"/>
      <point x="184" y="-112" type="curve"/>
      <point x="125" y="-145"/>
      <point x="85" y="-177"/>
      <point x="40" y="-227" type="curve"/>
    </contour>
  </outline>
</glyph>
<glyph name="dblgravecomb" format="2">
  <unicode hex="030F"/>
  <anchor x="-426" y="536" name="_top"/>
  <anchor x="-426" y="766" name="top"/>
  <outline>
    <contour>
      <point x="-468" y="606" type="curve"/>
      <point x="-448" y="606" type="line"/>
      <point x="-448" y="626" type="line"/>
      <point x="-479" y="673"/>
      <point x="-509" y="721"/>
      <point x="-533" y="766" type="curve"/>
      <point x="-657" y="766" type="line"/>
      <point x="-657" y="756" type="line"/>
      <point x="-624" y="721"/>
      <point x="-521" y="640"/>
    </contour>
    <contour>
      <point x="-243" y="606" type="curve"/>
      <point x="-223" y="606" type="line"/>
      <point x="-223" y="626" type="line"/>
      <point x="-254" y="673"/>
      <point x="-284" y="721"/>
      <point x="-308" y="766" type="curve"/>
      <point x="-432" y="766" type="line"/>
      <point x="-432" y="756" type="line"/>
      <point x="-399" y="721"/>
      <point x="-296" y="640"/>
    </contour>
  </outline>
</glyph>
<glyph name="hookretroflexbelowcomb" format="2">
  <unicode hex="0322"/>
  <anchor x="-76" y="0" name="_bottom"/>
  <anchor x="-76" y="-197" name="bottom"/>
  <outline>
    <contour>
      <point x="-95" y="-189" type="curve" smooth="yes"/>
      <point x="-25" y="-189"/>
      <point x="26" y="-162"/>
      <point x="26" y="-118" type="curve" smooth="yes"/>
      <point x="26" y="-100"/>
      <point x="20" y="-85"/>
      <point x="9" y="-70" type="curve"/>
      <point x="-29" y="-82"/>
      <point x="-59" y="-88"/>
      <point x="-95" y="-88" type="curve" smooth="yes"/>
      <point x="-172" y="-88"/>
      <point x="-201" y="-64"/>
      <point x="-201" y="-4" type="curve" smooth="yes"/>
      <point x="-201" y="-1" type="line"/>
      <point x="-211" y="-1" type="line"/>
      <point x="-211" y="-95" type="line" smooth="yes"/>
      <point x="-211" y="-156"/>
      <point x="-179" y="-189"/>
    </contour>
  </outline>
</glyph>
<glyph name="commaaccent" format="2">
  <unicode hex="0326"/>
  <anchor x="2" y="0" name="_bottom"/>
  <anchor x="2" y="-221" name="bottom"/>
  <outline>
    <contour>
      <point x="-69" y="-223" type="line"/>
      <point x="-59" y="-223" type="line"/>
      <point x="-6" y="-174"/>
      <point x="62" y="-113"/>
      <point x="104" y="-71" type="curve"/>
      <point x="104" y="-61" type="line"/>
      <point x="-53" y="-61" type="line"/>
      <point x="-48" y="-90"/>
      <point x="-66" y="-205"/>
      <point x="-69" y="-213" type="curve"/>
    </contour>
  </outline>
</glyph>
<glyph name="cedillacomb" format="2">
  <unicode hex="0327"/>
  <anchor x="0" y="0" name="_bottom"/>
  <anchor x="0" y="-240" name="bottom"/>
  <outline>
    <contour>
      <point x="-32" y="-242" type="curve" smooth="yes"/>
      <point x="76" y="-242"/>
      <point x="142" y="-204"/>
      <point x="142" y="-143" type="curve" smooth="yes"/>
      <point x="142" y="-74"/>
      <point x="71" y="-49"/>
      <point x="-66" y="-54" type="curve"/>
      <point x="-51" y="8" type="line"/>
      <point x="-61" y="8" type="line"/>
      <point x="-79" y="-67" type="line"/>
      <point x="-23" y="-68"/>
      <point x="6" y="-95"/>
      <point x="6" y="-136" type="curve" smooth="yes"/>
      <point x="6" y="-186"/>
      <point x="-25" y="-226"/>
      <point x="-87" y="-226" type="curve" smooth="yes"/>
      <point x="-103" y="-226"/>
      <point x="-124" y="-224"/>
      <point x="-142" y="-221" type="curve"/>
      <point x="-142" y="-231" type="line"/>
      <point x="-117" y="-238"/>
      <point x="-48" y="-242"/>
    </contour>
  </outline>
</glyph>
<glyph name="archaicsampi" format="2">
  <advance width="705"/>
  <unicode hex="0373"/>
  <anchor x="353" y="-240" name="bottom"/>
  <anchor x="353" y="536" name="top"/>
  <outline>
    <contour>
      <point x="273" y="-240" type="curve"/>
      <point x="499" y="-240" type="line"/>
      <point x="489" y="-214"/>
      <point x="470" y="-126"/>
      <point x="470" y="40" type="curve" smooth="yes"/>
      <point x="470" y="526" type="line"/>
      <point x="495" y="526" type="line" smooth="yes"/>
      <point x="618" y="526"/>
      <point x="662" y="482"/>
      <point x="675" y="346" type="curve" smooth="yes"/>
      <point x="680" y="301" type="line"/>
      <point x="690" y="301" type="line"/>
      <point x="690" y="536" type="line"/>
      <point x="179" y="536" type="line" smooth="yes"/>
      <point x="50" y="536"/>
      <point x="7" y="441"/>
      <point x="7" y="313" type="curve" smooth="yes"/>
      <point x="7" y="305" type="line"/>
      <point x="17" y="305" type="line"/>
      <point x="17" y="424"/>
      <point x="51" y="526"/>
      <point x="177" y="526" type="curve" smooth="yes"/>
      <point x="246" y="526" type="line"/>
      <point x="246" y="52" type="line" smooth="yes"/>
      <point x="246" y="-120"/>
      <point x="264" y="-195"/>
    </contour>
  </outline>
</glyph>
<glyph name="anoteleia" format="2">
  <advance width="365"/>
  <unicode hex="0387"/>
  <outline>
    <contour>
      <point x="183" y="362" type="curve" smooth="yes"/>
      <point x="234" y="362"/>
      <point x="280" y="382"/>
      <point x="280" y="456" type="curve" smooth="yes"/>
      <point x="280" y="531"/>
      <point x="234" y="551"/>
      <point x="183" y="551" type="curve" smooth="yes"/>
      <point x="128" y="551"/>
      <point x="85" y="531"/>
      <point x="85" y="456" type="curve" smooth="yes"/>
      <point x="85" y="382"/>
      <point x="128" y="362"/>
    </contour>
  </outline>
</glyph>
<glyph name="Gamma" format="2">
  <advance width="715"/>
  <unicode hex="0393"/>
  <anchor x="358" y="0" name="bottom"/>
  <anchor x="358" y="714" name="top"/>
  <outline>
    <contour>
      <point x="24" y="0" type="line"/>
      <point x="497" y="0" type="line"/>
      <point x="497" y="10" type="line"/>
      <point x="426" y="10" type="line" smooth="yes"/>
      <point x="380" y="10"/>
      <point x="363" y="31"/>
      <point x="363" y="54" type="curve" smooth="yes"/>
      <point x="363" y="704" type="line"/>
      <point x="540" y="704" type="line" smooth="yes"/>
      <point x="655" y="704"/>
      <point x="697" y="670"/>
      <point x="711" y="564" type="curve" smooth="yes"/>
      <point x="715" y="534" type="line"/>
      <point x="725" y="534" type="line"/>
      <point x="718" y="714" type="line"/>
      <point x="24" y="714" type="line"/>
      <point x="24" y="704" type="line"/>
      <point x="83" y="704" type="line" smooth="yes"/>
      <point x="109" y="704"/>
      <point x="132" y="688"/>
      <point x="132" y="658" type="curve" smooth="yes"/>
      <point x="132" y="54" type="line" smooth="yes"/>
      <point x="132" y="25"/>
      <point x="114" y="10"/>
      <point x="65" y="10" type="curve" smooth="yes"/>
      <point x="24" y="10" type="line"/>
    </contour>
  </outline>
</glyph>
<glyph name="Lambda" format="2">
  <advance width="833"/>
  <unicode hex="039B"/>
  <anchor x="417" y="0" name="bottom"/>
  <anchor x="417" y="714" name="top"/>
  <outline>
    <contour>
      <point x="0" y="0" type="line"/>
      <point x="281" y="0" type="line"/>
      <point x="281" y="10" type="line"/>
      <point x="179" y="10" type="line" smooth="yes"/>
      <point x="141" y="10"/>
      <point x="131" y="25"/>
      <point x="131" y="43" type="curve" smooth="yes"/>
      <point x="131" y="62"/>
      <point x="141" y="84"/>
      <point x="149" y="106" type="curve" smooth="yes"/>
      <point x="285" y="473" type="line" smooth="yes"/>
      <point x="300" y="517"/>
      <point x="313" y="554"/>
      <point x="322" y="582" type="curve"/>
      <point x="332" y="552"/>
      <point x="342" y="527"/>
      <point x="355" y="489" type="curve" smooth="yes"/>
      <point x="510" y="86" type="line" smooth="yes"/>
      <point x="518" y="65"/>
      <point x="521" y="51"/>
      <point x="521" y="40" type="curve" smooth="yes"/>
      <point x="521" y="20"/>
      <point x="509" y="10"/>
      <point x="473" y="10" type="curve" smooth="yes"/>
      <point x="420" y="10" type="line"/>
      <point x="420" y="0" type="line"/>
      <point x="833" y="0" type="line"/>
      <point x="833" y="10" type="line"/>
      <point x="838" y="10" type="line" smooth="yes"/>
      <point x="810" y="10"/>
      <point x="767" y="33"/>
      <point x="747" y="82" type="curve" smooth="yes"/>
      <point x="485" y="714" type="line"/>
      <point x="362" y="714" type="line"/>
      <point x="127" y="76" type="line"/>
      <point x="104" y="15"/>
      <point x="60" y="10"/>
      <point x="30" y="10" type="curve" smooth="yes"/>
      <point x="0" y="10" type="line"/>
    </contour>
  </outline>
</glyph>
<glyph name="delta" format="2">
  <advance width="746"/>
  <unicode hex="03B4"/>
  <anchor x="373" y="0" name="bottom"/>
  <anchor x="373" y="765" name="top"/>
  <outline>
    <contour>
      <point x="361" y="-10" type="curve" smooth="yes"/>
      <point x="564" y="-10"/>
      <point x="697" y="82"/>
      <point x="697" y="233" type="curve" smooth="yes"/>
      <point x="697" y="372"/>
      <point x="617" y="426"/>
      <point x="460" y="507" type="curve" smooth="yes"/>
      <point x="349" y="562"/>
      <point x="291" y="570"/>
      <point x="291" y="657" type="curve" smooth="yes"/>
      <point x="291" y="731"/>
      <point x="351" y="755"/>
      <point x="401" y="755" type="curve" smooth="yes"/>
      <point x="480" y="755"/>
      <point x="508" y="699"/>
      <point x="508" y="583" type="curve"/>
      <point x="596" y="583"/>
      <point x="644" y="614"/>
      <point x="644" y="658" type="curve" smooth="yes"/>
      <point x="644" y="703"/>
      <point x="590" y="765"/>
      <point x="403" y="765" type="curve" smooth="yes"/>
      <point x="227" y="765"/>
      <point x="141" y="719"/>
      <point x="141" y="603" type="curve" smooth="yes"/>
      <point x="141" y="485"/>
      <point x="243" y="456"/>
      <point x="336" y="402" type="curve"/>
      <point x="154" y="401"/>
      <point x="49" y="342"/>
      <point x="49" y="220" type="curve" smooth="yes"/>
      <point x="49" y="69"/>
      <point x="169" y="-10"/>
    </contour>
    <contour>
      <point x="384" y="0" type="curve" smooth="yes"/>
      <point x="327" y="0"/>
      <point x="280" y="55"/>
      <point x="280" y="208" type="curve" smooth="yes"/>
      <point x="280" y="357"/>
      <point x="322" y="381"/>
      <point x="341" y="400" type="curve"/>
      <point x="413" y="359"/>
      <point x="474" y="301"/>
      <point x="474" y="176" type="curve" smooth="yes"/>
      <point x="474" y="46"/>
      <point x="439" y="0"/>
    </contour>
  </outline>
</glyph>
<glyph name="xi" format="2">
  <advance width="618"/>
  <unicode hex="03BE"/>
  <anchor x="327" y="-207" name="bottom"/>
  <anchor x="327" y="811" name="top"/>
  <outline>
    <contour>
      <point x="316" y="-207" type="line"/>
      <point x="456" y="-183"/>
      <point x="597" y="-136"/>
      <point x="597" y="-16" type="curve" smooth="yes"/>
      <point x="597" y="93"/>
      <point x="466" y="112"/>
      <point x="399" y="122" type="curve" smooth="yes"/>
      <point x="244" y="153"/>
      <point x="219" y="178"/>
      <point x="219" y="246" type="curve" smooth="yes"/>
      <point x="219" y="336"/>
      <point x="299" y="417"/>
      <point x="347" y="429" type="curve"/>
      <point x="375" y="425"/>
      <point x="425" y="416"/>
      <point x="475" y="416" type="curve" smooth="yes"/>
      <point x="545" y="416"/>
      <point x="574" y="434"/>
      <point x="574" y="455" type="curve" smooth="yes"/>
      <point x="574" y="470"/>
      <point x="560" y="483"/>
      <point x="520" y="483" type="curve" smooth="yes"/>
      <point x="474" y="483"/>
      <point x="407" y="464"/>
      <point x="345" y="440" type="curve"/>
      <point x="302" y="456"/>
      <point x="280" y="479"/>
      <point x="280" y="559" type="curve" smooth="yes"/>
      <point x="280" y="651"/>
      <point x="305" y="696"/>
      <point x="337" y="707" type="curve"/>
      <point x="372" y="705"/>
      <point x="416" y="702"/>
      <point x="461" y="702" type="curve" smooth="yes"/>
      <point x="558" y="702"/>
      <point x="608" y="714"/>
      <point x="608" y="738" type="curve" smooth="yes"/>
      <point x="608" y="754"/>
      <point x="588" y="762"/>
      <point x="550" y="762" type="curve" smooth="yes"/>
      <point x="493" y="762"/>
      <point x="413" y="745"/>
      <point x="334" y="717" type="curve"/>
      <point x="230" y="725"/>
      <point x="165" y="757"/>
      <point x="112" y="784" type="curve"/>
      <point x="105" y="776" type="line"/>
      <point x="163" y="745"/>
      <point x="232" y="716"/>
      <point x="314" y="709" type="curve"/>
      <point x="162" y="679"/>
      <point x="89" y="611"/>
      <point x="89" y="546" type="curve" smooth="yes"/>
      <point x="89" y="486"/>
      <point x="144" y="450"/>
      <point x="320" y="432" type="curve"/>
      <point x="320" y="430" type="line"/>
      <point x="116" y="358"/>
      <point x="40" y="284"/>
      <point x="40" y="176" type="curve" smooth="yes"/>
      <point x="40" y="25"/>
      <point x="177" y="7"/>
      <point x="324" y="-28" type="curve" smooth="yes"/>
      <point x="408" y="-48"/>
      <point x="478" y="-64"/>
      <point x="478" y="-113" type="curve" smooth="yes"/>
      <point x="478" y="-161"/>
      <point x="409" y="-179"/>
      <point x="316" y="-197" type="curve"/>
    </contour>
  </outline>
</glyph>
<glyph name="tau" format="2">
  <advance width="642"/>
  <unicode hex="03C4"/>
  <anchor x="322" y="0" name="bottom"/>
  <anchor x="322" y="536" name="top"/>
  <outline>
    <contour>
      <point x="372" y="-10" type="curve" smooth="yes"/>
      <point x="434" y="-10"/>
      <point x="478" y="7"/>
      <point x="504" y="22" type="curve"/>
      <point x="504" y="31" type="line"/>
      <point x="484" y="24"/>
      <point x="465" y="20"/>
      <point x="448" y="20" type="curve" smooth="yes"/>
      <point x="379" y="20"/>
      <point x="372" y="100"/>
      <point x="372" y="208" type="curve" smooth="yes"/>
      <point x="372" y="245"/>
      <point x="381" y="309"/>
      <point x="377" y="351" type="curve"/>
      <point x="594" y="351" type="line"/>
      <point x="594" y="536" type="line"/>
      <point x="208" y="536" type="line" smooth="yes"/>
      <point x="109" y="536"/>
      <point x="13" y="503"/>
      <point x="13" y="266" type="curve"/>
      <point x="23" y="266" type="line"/>
      <point x="23" y="295"/>
      <point x="49" y="351"/>
      <point x="90" y="351" type="curve" smooth="yes"/>
      <point x="295" y="351" type="line"/>
      <point x="271" y="278"/>
      <point x="256" y="186"/>
      <point x="256" y="122" type="curve" smooth="yes"/>
      <point x="256" y="51"/>
      <point x="284" y="-10"/>
    </contour>
  </outline>
</glyph>
<glyph name="upsilon" format="2">
  <advance width="772"/>
  <unicode hex="03C5"/>
  <anchor x="386" y="0" name="bottom"/>
  <anchor x="386" y="536" name="top"/>
  <outline>
    <contour>
      <point x="377" y="-10" type="curve" smooth="yes"/>
      <point x="633" y="-10"/>
      <point x="690" y="161"/>
      <point x="690" y="324" type="curve" smooth="yes"/>
      <point x="690" y="507"/>
      <point x="623" y="544"/>
      <point x="557" y="544" type="curve" smooth="yes"/>
      <point x="476" y="544"/>
      <point x="462" y="475"/>
      <point x="462" y="434" type="curve"/>
      <point x="572" y="444"/>
      <point x="610" y="389"/>
      <point x="610" y="276" type="curve" smooth="yes"/>
      <point x="610" y="140"/>
      <point x="556" y="2"/>
      <point x="418" y="2" type="curve" smooth="yes"/>
      <point x="355" y="2"/>
      <point x="328" y="25"/>
      <point x="328" y="133" type="curve" smooth="yes"/>
      <point x="328" y="536" type="line"/>
      <point x="56" y="536" type="line"/>
      <point x="56" y="526" type="line"/>
      <point x="63" y="526" type="line" smooth="yes"/>
      <point x="108" y="526"/>
      <point x="103" y="506"/>
      <point x="103" y="467" type="curve" smooth="yes"/>
      <point x="103" y="256" type="line" smooth="yes"/>
      <point x="103" y="109"/>
      <point x="164" y="-10"/>
    </contour>
  </outline>
</glyph>
<glyph name="chi" format="2">
  <advance width="766"/>
  <unicode hex="03C7"/>
  <anchor x="383" y="-240" name="bottom"/>
  <anchor x="383" y="536" name="top"/>
  <anchor x="746" y="536" name="topright"/>
  <outline>
    <contour>
      <point x="30" y="-240" type="line"/>
      <point x="270" y="-240" type="line"/>
      <point x="460" y="95" type="line"/>
      <point x="567" y="-191" type="line" smooth="yes"/>
      <point x="589" y="-241"/>
      <point x="633" y="-236"/>
      <point x="677" y="-236" type="curve" smooth="yes"/>
      <point x="721" y="-236"/>
      <point x="747" y="-211"/>
      <point x="756" y="-158" type="curve"/>
      <point x="749" y="-151" type="line"/>
      <point x="714" y="-159"/>
      <point x="687" y="-165"/>
      <point x="663" y="-165" type="curve" smooth="yes"/>
      <point x="605" y="-165"/>
      <point x="559" y="-106"/>
      <point x="517" y="-2" type="curve" smooth="yes"/>
      <point x="466" y="106" type="line"/>
      <point x="738" y="536" type="line"/>
      <point x="507" y="536" type="line"/>
      <point x="351" y="294" type="line"/>
      <point x="267" y="496" type="line" smooth="yes"/>
      <point x="243" y="548"/>
      <point x="201" y="543"/>
      <point x="149" y="543" type="curve" smooth="yes"/>
      <point x="85" y="543"/>
      <point x="61" y="518"/>
      <point x="52" y="465" type="curve"/>
      <point x="59" y="458" type="line"/>
      <point x="98" y="468"/>
      <point x="131" y="474"/>
      <point x="157" y="474" type="curve" smooth="yes"/>
      <point x="229" y="474"/>
      <point x="281" y="409"/>
      <point x="323" y="309" type="curve" smooth="yes"/>
      <point x="344" y="284" type="line"/>
    </contour>
  </outline>
</glyph>
<glyph name="omega" format="2">
  <advance width="961"/>
  <unicode hex="03C9"/>
  <anchor x="480" y="0" name="bottom"/>
  <anchor x="480" y="536" name="top"/>
  <outline>
    <contour>
      <point x="288" y="-10" type="curve" smooth="yes"/>
      <point x="370" y="-10"/>
      <point x="437" y="-1"/>
      <point x="475" y="70" type="curve"/>
      <point x="515" y="-1"/>
      <point x="579" y="-10"/>
      <point x="665" y="-10" type="curve" smooth="yes"/>
      <point x="822" y="-10"/>
      <point x="902" y="100"/>
      <point x="902" y="222" type="curve" smooth="yes"/>
      <point x="902" y="390"/>
      <point x="802" y="506"/>
      <point x="632" y="566" type="curve"/>
      <point x="623" y="560" type="line"/>
      <point x="668" y="507"/>
      <point x="706" y="344"/>
      <point x="706" y="184" type="curve" smooth="yes"/>
      <point x="706" y="94"/>
      <point x="670" y="7"/>
      <point x="594" y="7" type="curve" smooth="yes"/>
      <point x="589" y="7"/>
      <point x="526" y="-13"/>
      <point x="497" y="116" type="curve"/>
      <point x="544" y="210"/>
      <point x="558" y="257"/>
      <point x="558" y="299" type="curve" smooth="yes"/>
      <point x="558" y="366"/>
      <point x="525" y="406"/>
      <point x="474" y="406" type="curve" smooth="yes"/>
      <point x="422" y="406"/>
      <point x="392" y="366"/>
      <point x="392" y="299" type="curve" smooth="yes"/>
      <point x="392" y="257"/>
      <point x="407" y="210"/>
      <point x="453" y="117" type="curve"/>
      <point x="427" y="-17"/>
      <point x="356" y="6"/>
      <point x="356" y="6" type="curve" smooth="yes"/>
      <point x="283" y="6"/>
      <point x="244" y="94"/>
      <point x="244" y="184" type="curve" smooth="yes"/>
      <point x="244" y="344"/>
      <point x="283" y="507"/>
      <point x="326" y="560" type="curve"/>
      <point x="317" y="566" type="line"/>
      <point x="147" y="506"/>
      <point x="48" y="390"/>
      <point x="48" y="222" type="curve" smooth="yes"/>
      <point x="48" y="100"/>
      <point x="128" y="-10"/>
    </contour>
  </outline>
</glyph>
<glyph name="uni03D1" format="2">
  <advance width="830"/>
  <unicode hex="03D1"/>
  <outline>
    <contour>
      <point x="366" y="-10" type="curve" smooth="yes"/>
      <point x="628" y="-10"/>
      <point x="736" y="146"/>
      <point x="736" y="371" type="curve" smooth="yes"/>
      <point x="736" y="398"/>
      <point x="735" y="424"/>
      <point x="733" y="449" type="curve"/>
      <point x="819" y="449" type="line"/>
      <point x="819" y="459" type="line"/>
      <point x="732" y="459" type="line"/>
      <point x="710" y="636"/>
      <point x="619" y="764"/>
      <point x="398" y="764" type="curve" smooth="yes"/>
      <point x="215" y="764"/>
      <point x="122" y="714"/>
      <point x="122" y="618" type="curve" smooth="yes"/>
      <point x="122" y="504"/>
      <point x="248" y="449"/>
      <point x="513" y="449" type="curve"/>
      <point x="514" y="425"/>
      <point x="514" y="396"/>
      <point x="514" y="369" type="curve" smooth="yes"/>
      <point x="514" y="96"/>
      <point x="479" y="0"/>
      <point x="396" y="0" type="curve" smooth="yes"/>
      <point x="341" y="0"/>
      <point x="311" y="41"/>
      <point x="311" y="118" type="curve" smooth="yes"/>
      <point x="311" y="179"/>
      <point x="332" y="250"/>
      <point x="332" y="303" type="curve" smooth="yes"/>
      <point x="332" y="382"/>
      <point x="287" y="411"/>
      <point x="177" y="411" type="curve" smooth="yes"/>
      <point x="10" y="411" type="line"/>
      <point x="10" y="401" type="line"/>
      <point x="46" y="401" type="line" smooth="yes"/>
      <point x="90" y="401"/>
      <point x="104" y="383"/>
      <point x="104" y="340" type="curve" smooth="yes"/>
      <point x="104" y="288"/>
      <point x="87" y="223"/>
      <point x="87" y="172" type="curve" smooth="yes"/>
      <point x="87" y="63"/>
      <point x="175" y="-10"/>
    </contour>
    <contour>
      <point x="511" y="457" type="curve"/>
      <point x="451" y="452"/>
      <point x="321" y="501"/>
      <point x="321" y="669" type="curve" smooth="yes"/>
      <point x="321" y="724"/>
      <point x="359" y="754"/>
      <point x="406" y="754" type="curve" smooth="yes"/>
      <point x="532" y="754"/>
      <point x="501" y="562"/>
    </contour>
  </outline>
</glyph>
<glyph name="uni03D2" format="2">
  <advance width="903"/>
  <unicode hex="03D2"/>
  <anchor x="454" y="714" name="top"/>
  <outline>
    <contour>
      <point x="197" y="0" type="line"/>
      <point x="677" y="0" type="line"/>
      <point x="677" y="10" type="line"/>
      <point x="612" y="10" type="line" smooth="yes"/>
      <point x="581" y="10"/>
      <point x="554" y="26"/>
      <point x="554" y="78" type="curve" smooth="yes"/>
      <point x="554" y="199" type="line" smooth="yes"/>
      <point x="554" y="287"/>
      <point x="595" y="436"/>
      <point x="644" y="521" type="curve" smooth="yes"/>
      <point x="684" y="590"/>
      <point x="720" y="612"/>
      <point x="764" y="612" type="curve" smooth="yes"/>
      <point x="803" y="612"/>
      <point x="818" y="585"/>
      <point x="825" y="563" type="curve"/>
      <point x="874" y="571"/>
      <point x="900" y="592"/>
      <point x="900" y="632" type="curve" smooth="yes"/>
      <point x="900" y="668"/>
      <point x="884" y="721"/>
      <point x="791" y="721" type="curve" smooth="yes"/>
      <point x="696" y="721"/>
      <point x="631" y="663"/>
      <point x="592" y="528" type="curve" smooth="yes"/>
      <point x="572" y="458"/>
      <point x="564" y="382"/>
      <point x="549" y="257" type="curve"/>
      <point x="490" y="440"/>
      <point x="451" y="521"/>
      <point x="426" y="575" type="curve" smooth="yes"/>
      <point x="377" y="682"/>
      <point x="317" y="714"/>
      <point x="237" y="714" type="curve" smooth="yes"/>
      <point x="5" y="714" type="line"/>
      <point x="5" y="704" type="line"/>
      <point x="7" y="704" type="line" smooth="yes"/>
      <point x="52" y="704"/>
      <point x="107" y="660"/>
      <point x="164" y="580" type="curve" smooth="yes"/>
      <point x="201" y="525"/>
      <point x="319" y="318"/>
      <point x="319" y="197" type="curve" smooth="yes"/>
      <point x="319" y="83" type="line" smooth="yes"/>
      <point x="319" y="28"/>
      <point x="291" y="10"/>
      <point x="257" y="10" type="curve" smooth="yes"/>
      <point x="197" y="10" type="line"/>
    </contour>
  </outline>
</glyph>
<glyph name="afii10058" format="2">
  <advance width="1171"/>
  <unicode hex="0409"/>
  <anchor x="585" y="0" name="bottom"/>
  <anchor x="585" y="714" name="top"/>
  <outline>
    <contour>
      <point x="112" y="-7" type="curve" smooth="yes"/>
      <point x="176" y="-7"/>
      <point x="219" y="18"/>
      <point x="257" y="122" type="curve" smooth="yes"/>
      <point x="312" y="285"/>
      <point x="337" y="552"/>
      <point x="345" y="704" type="curve"/>
      <point x="530" y="704" type="line"/>
      <point x="530" y="75" type="line" smooth="yes"/>
      <point x="530" y="44"/>
      <point x="526" y="10"/>
      <point x="481" y="10" type="curve" smooth="yes"/>
      <point x="416" y="10" type="line"/>
      <point x="416" y="0" type="line"/>
      <point x="828" y="0" type="line"/>
      <point x="1069" y="0"/>
      <point x="1164" y="89"/>
      <point x="1164" y="212" type="curve" smooth="yes"/>
      <point x="1164" y="336"/>
      <point x="1083" y="410"/>
      <point x="862" y="410" type="curve" smooth="yes"/>
      <point x="763" y="410" type="line"/>
      <point x="763" y="652" type="line" smooth="yes"/>
      <point x="763" y="683"/>
      <point x="780" y="704"/>
      <point x="815" y="704" type="curve" smooth="yes"/>
      <point x="887" y="704" type="line"/>
      <point x="887" y="714" type="line"/>
      <point x="178" y="714" type="line"/>
      <point x="178" y="704" type="line"/>
      <point x="235" y="704" type="line" smooth="yes"/>
      <point x="248" y="704"/>
      <point x="332" y="720"/>
      <point x="332" y="677" type="curve" smooth="yes"/>
      <point x="332" y="655"/>
      <point x="310" y="313"/>
      <point x="259" y="170" type="curve" smooth="yes"/>
      <point x="236" y="147"/>
      <point x="201" y="104"/>
      <point x="142" y="104" type="curve" smooth="yes"/>
      <point x="107" y="104"/>
      <point x="76" y="119"/>
      <point x="62" y="147" type="curve"/>
      <point x="21" y="150"/>
      <point x="-1" y="122"/>
      <point x="-1" y="80" type="curve" smooth="yes"/>
      <point x="-1" y="22"/>
      <point x="42" y="-7"/>
    </contour>
    <contour>
      <point x="763" y="10" type="line"/>
      <point x="763" y="400" type="line"/>
      <point x="803" y="400" type="line" smooth="yes"/>
      <point x="891" y="400"/>
      <point x="916" y="359"/>
      <point x="916" y="216" type="curve" smooth="yes"/>
      <point x="916" y="55"/>
      <point x="890" y="10"/>
      <point x="804" y="10" type="curve" smooth="yes"/>
    </contour>
  </outline>
</glyph>
<glyph name="afii10021" format="2">
  <advance width="848"/>
  <unicode hex="0414"/>
  <anchor x="425" y="0" name="bottom"/>
  <anchor x="425" y="714" name="top"/>
  <outline>
    <contour>
      <point x="5" y="-210" type="line"/>
      <point x="15" y="-210" type="line"/>
      <point x="15" y="-50"/>
      <point x="33" y="0"/>
      <point x="89" y="0" type="curve" smooth="yes"/>
      <point x="740" y="0" type="line" smooth="yes"/>
      <point x="797" y="0"/>
      <point x="815" y="-50"/>
      <point x="815" y="-210" type="curve"/>
      <point x="825" y="-210" type="line"/>
      <point x="825" y="10" type="line"/>
      <point x="796" y="10" type="line" smooth="yes"/>
      <point x="744" y="10"/>
      <point x="705" y="14"/>
      <point x="705" y="54" type="curve" smooth="yes"/>
      <point x="705" y="657" type="line" smooth="yes"/>
      <point x="705" y="699"/>
      <point x="729" y="704"/>
      <point x="772" y="704" type="curve" smooth="yes"/>
      <point x="802" y="704" type="line"/>
      <point x="802" y="714" type="line"/>
      <point x="189" y="714" type="line"/>
      <point x="189" y="704" type="line"/>
      <point x="274" y="704" type="line" smooth="yes"/>
      <point x="319" y="704"/>
      <point x="346" y="696"/>
      <point x="346" y="670" type="curve" smooth="yes"/>
      <point x="346" y="473"/>
      <point x="271" y="258"/>
      <point x="74" y="10" type="curve"/>
      <point x="5" y="10" type="line"/>
    </contour>
    <contour>
      <point x="87" y="10" type="line"/>
      <point x="286" y="255"/>
      <point x="360" y="499"/>
      <point x="370" y="704" type="curve"/>
      <point x="470" y="704" type="line"/>
      <point x="470" y="10" type="line"/>
    </contour>
  </outline>
</glyph>
<glyph name="afii10040" format="2">
  <advance width="995"/>
  <unicode hex="0426"/>
  <anchor x="498" y="0" name="bottom"/>
  <anchor x="498" y="714" name="top"/>
  <outline>
    <contour>
      <point x="949" y="-210" type="curve"/>
      <point x="959" y="-210" type="line"/>
      <point x="959" y="10" type="line"/>
      <point x="883" y="10" type="line" smooth="yes"/>
      <point x="845" y="10"/>
      <point x="852" y="32"/>
      <point x="852" y="28" type="curve" smooth="yes"/>
      <point x="852" y="647" type="line" smooth="yes"/>
      <point x="852" y="705"/>
      <point x="886" y="704"/>
      <point x="921" y="704" type="curve" smooth="yes"/>
      <point x="960" y="704" type="line"/>
      <point x="960" y="714" type="line"/>
      <point x="534" y="714" type="line"/>
      <point x="534" y="704" type="line"/>
      <point x="556" y="704" type="line" smooth="yes"/>
      <point x="595" y="704"/>
      <point x="620" y="705"/>
      <point x="620" y="647" type="curve" smooth="yes"/>
      <point x="620" y="10" type="line"/>
      <point x="365" y="10" type="line"/>
      <point x="365" y="647" type="line" smooth="yes"/>
      <point x="365" y="705"/>
      <point x="399" y="704"/>
      <point x="433" y="704" type="curve" smooth="yes"/>
      <point x="450" y="704" type="line"/>
      <point x="450" y="714" type="line"/>
      <point x="24" y="714" type="line"/>
      <point x="24" y="704" type="line"/>
      <point x="64" y="704" type="line" smooth="yes"/>
      <point x="96" y="704"/>
      <point x="132" y="706"/>
      <point x="132" y="652" type="curve" smooth="yes"/>
      <point x="132" y="67" type="line" smooth="yes"/>
      <point x="132" y="9"/>
      <point x="101" y="10"/>
      <point x="67" y="10" type="curve" smooth="yes"/>
      <point x="24" y="10" type="line"/>
      <point x="24" y="0" type="line"/>
      <point x="740" y="0" type="line" smooth="yes"/>
      <point x="899" y="0"/>
      <point x="949" y="-50"/>
    </contour>
  </outline>
</glyph>
<glyph name="afii10043" format="2">
  <advance width="1390"/>
  <unicode hex="0429"/>
  <anchor x="695" y="0" name="bottom"/>
  <anchor x="695" y="714" name="top"/>
  <outline>
    <contour>
      <point x="1344" y="-210" type="curve"/>
      <point x="1354" y="-210" type="line"/>
      <point x="1354" y="10" type="line"/>
      <point x="1278" y="10" type="line" smooth="yes"/>
      <point x="1240" y="10"/>
      <point x="1247" y="32"/>
      <point x="1247" y="28" type="curve" smooth="yes"/>
      <point x="1247" y="643" type="line" smooth="yes"/>
      <point x="1247" y="694"/>
      <point x="1266" y="704"/>
      <point x="1308" y="704" type="curve" smooth="yes"/>
      <point x="1354" y="704" type="line"/>
      <point x="1354" y="714" type="line"/>
      <point x="944" y="714" type="line"/>
      <point x="944" y="704" type="line"/>
      <point x="967" y="704" type="line" smooth="yes"/>
      <point x="1008" y="704"/>
      <point x="1026" y="694"/>
      <point x="1026" y="643" type="curve" smooth="yes"/>
      <point x="1026" y="10" type="line"/>
      <point x="800" y="10" type="line"/>
      <point x="800" y="655" type="line" smooth="yes"/>
      <point x="800" y="701"/>
      <point x="825" y="704"/>
      <point x="867" y="704" type="curve" smooth="yes"/>
      <point x="885" y="704" type="line"/>
      <point x="885" y="714" type="line"/>
      <point x="491" y="714" type="line"/>
      <point x="491" y="704" type="line"/>
      <point x="511" y="704" type="line" smooth="yes"/>
      <point x="557" y="704"/>
      <point x="579" y="699"/>
      <point x="579" y="639" type="curve" smooth="yes"/>
      <point x="579" y="10" type="line"/>
      <point x="352" y="10" type="line"/>
      <point x="352" y="643" type="line" smooth="yes"/>
      <point x="352" y="694"/>
      <point x="371" y="704"/>
      <point x="413" y="704" type="curve" smooth="yes"/>
      <point x="432" y="704" type="line"/>
      <point x="432" y="714" type="line"/>
      <point x="24" y="714" type="line"/>
      <point x="24" y="704" type="line"/>
      <point x="71" y="704" type="line" smooth="yes"/>
      <point x="113" y="704"/>
      <point x="132" y="694"/>
      <point x="132" y="643" type="curve" smooth="yes"/>
      <point x="132" y="67" type="line" smooth="yes"/>
      <point x="132" y="20"/>
      <point x="112" y="10"/>
      <point x="71" y="10" type="curve" smooth="yes"/>
      <point x="24" y="10" type="line"/>
      <point x="24" y="0" type="line"/>
      <point x="1135" y="0" type="line" smooth="yes"/>
      <point x="1294" y="0"/>
      <point x="1344" y="-50"/>
    </contour>
  </outline>
</glyph>
<glyph name="afii10066" format="2">
  <advance width="747"/>
  <unicode hex="0431"/>
  <anchor x="373" y="0" name="bottom"/>
  <anchor x="373" y="778" name="top"/>
  <outline>
    <contour>
      <point x="368" y="-10" type="curve" smooth="yes"/>
      <point x="593" y="-10"/>
      <point x="699" y="102"/>
      <point x="699" y="268" type="curve" smooth="yes"/>
      <point x="699" y="433"/>
      <point x="593" y="506"/>
      <point x="402" y="506" type="curve" smooth="yes"/>
      <point x="259" y="506"/>
      <point x="99" y="464"/>
      <point x="64" y="332" type="curve"/>
      <point x="62" y="332" type="line"/>
      <point x="68" y="540"/>
      <point x="101" y="544"/>
      <point x="383" y="565" type="curve" smooth="yes"/>
      <point x="579" y="579"/>
      <point x="674" y="594"/>
      <point x="683" y="779" type="curve"/>
      <point x="670" y="779" type="line"/>
      <point x="661" y="747"/>
      <point x="399" y="746"/>
      <point x="452" y="747" type="curve" smooth="yes"/>
      <point x="119" y="702"/>
      <point x="50" y="577"/>
      <point x="50" y="354" type="curve" smooth="yes"/>
      <point x="50" y="100"/>
      <point x="144" y="-10"/>
    </contour>
    <contour>
      <point x="373" y="0" type="curve" smooth="yes"/>
      <point x="302" y="0"/>
      <point x="280" y="66"/>
      <point x="280" y="255" type="curve" smooth="yes"/>
      <point x="280" y="445"/>
      <point x="302" y="496"/>
      <point x="371" y="496" type="curve" smooth="yes"/>
      <point x="444" y="496"/>
      <point x="468" y="443"/>
      <point x="468" y="255" type="curve" smooth="yes"/>
      <point x="468" y="68"/>
      <point x="444" y="0"/>
    </contour>
  </outline>
</glyph>
<glyph name="uni046A" format="2">
  <advance width="1264"/>
  <unicode hex="046A"/>
  <anchor x="633" y="0" name="bottom"/>
  <anchor x="633" y="714" name="top"/>
  <outline>
    <contour>
      <point x="0" y="0" type="line"/>
      <point x="169" y="0" type="line" smooth="yes"/>
      <point x="248" y="0"/>
      <point x="300" y="16"/>
      <point x="325" y="83" type="curve" smooth="yes"/>
      <point x="431" y="347" type="line" smooth="yes"/>
      <point x="430" y="352"/>
      <point x="454" y="349"/>
      <point x="533" y="349" type="curve"/>
      <point x="533" y="60" type="line" smooth="yes"/>
      <point x="533" y="8"/>
      <point x="519" y="10"/>
      <point x="489" y="10" type="curve" smooth="yes"/>
      <point x="417" y="10" type="line"/>
      <point x="417" y="0" type="line"/>
      <point x="849" y="0" type="line"/>
      <point x="849" y="10" type="line"/>
      <point x="780" y="10" type="line" smooth="yes"/>
      <point x="748" y="10"/>
      <point x="732" y="10"/>
      <point x="732" y="70" type="curve" smooth="yes"/>
      <point x="732" y="348" type="line"/>
      <point x="809" y="348"/>
      <point x="833" y="354"/>
      <point x="833" y="346" type="curve" smooth="yes"/>
      <point x="931" y="99" type="line" smooth="yes"/>
      <point x="964" y="15"/>
      <point x="1006" y="0"/>
      <point x="1095" y="0" type="curve" smooth="yes"/>
      <point x="1264" y="0" type="line"/>
      <point x="1264" y="10" type="line"/>
      <point x="1250" y="10" type="line" smooth="yes"/>
      <point x="1201" y="10"/>
      <point x="1162" y="57"/>
      <point x="1108" y="173" type="curve" smooth="yes"/>
      <point x="1087" y="214" type="line" smooth="yes"/>
      <point x="1034" y="330"/>
      <point x="958" y="362"/>
      <point x="735" y="362" type="curve"/>
      <point x="1002" y="704" type="line"/>
      <point x="1002" y="714" type="line"/>
      <point x="236" y="714" type="line"/>
      <point x="236" y="704" type="line"/>
      <point x="534" y="362" type="line"/>
      <point x="298" y="362"/>
      <point x="230" y="328"/>
      <point x="178" y="215" type="curve" smooth="yes"/>
      <point x="156" y="173" type="line" smooth="yes"/>
      <point x="102" y="58"/>
      <point x="53" y="10"/>
      <point x="0" y="10" type="curve" smooth="yes"/>
      <point x="0" y="10" type="line"/>
    </contour>
    <contour>
      <point x="731" y="372" type="line"/>
      <point x="458" y="704" type="line"/>
      <point x="989" y="704" type="line"/>
    </contour>
  </outline>
</glyph>
<glyph name="uni0474" format="2">
  <advance width="919"/>
  <unicode hex="0474"/>
  <anchor x="455" y="0" name="bottom"/>
  <anchor x="455" y="714" name="top"/>
  <outline>
    <contour>
      <point x="349" y="0" type="line"/>
      <point x="474" y="0" type="line"/>
      <point x="632" y="430" type="line" smooth="yes"/>
      <point x="674" y="548"/>
      <point x="707" y="592"/>
      <point x="765" y="592" type="curve" smooth="yes"/>
      <point x="808" y="592"/>
      <point x="828" y="569"/>
      <point x="838" y="536" type="curve"/>
      <point x="873" y="544"/>
      <point x="919" y="564"/>
      <point x="919" y="627" type="curve" smooth="yes"/>
      <point x="919" y="691"/>
      <point x="876" y="720"/>
      <point x="805" y="720" type="curve" smooth="yes"/>
      <point x="709" y="720"/>
      <point x="663" y="656"/>
      <point x="594" y="405" type="curve" smooth="yes"/>
      <point x="538" y="216" type="line" smooth="yes"/>
      <point x="527" y="180"/>
      <point x="517" y="141"/>
      <point x="517" y="151" type="curve"/>
      <point x="513" y="152"/>
      <point x="496" y="196"/>
      <point x="461" y="290" type="curve" smooth="yes"/>
      <point x="322" y="630" type="line" smooth="yes"/>
      <point x="313" y="657"/>
      <point x="306" y="674"/>
      <point x="306" y="689" type="curve" smooth="yes"/>
      <point x="306" y="692"/>
      <point x="303" y="704"/>
      <point x="330" y="704" type="curve" smooth="yes"/>
      <point x="398" y="704" type="line"/>
      <point x="398" y="714" type="line"/>
      <point x="0" y="714" type="line"/>
      <point x="0" y="704" type="line"/>
      <point x="15" y="704" type="line" smooth="yes"/>
      <point x="38" y="704"/>
      <point x="61" y="696"/>
      <point x="74" y="664" type="curve" smooth="yes"/>
    </contour>
  </outline>
</glyph>
<glyph name="uni0475" format="2">
  <advance width="793"/>
  <unicode hex="0475"/>
  <anchor x="396" y="0" name="bottom"/>
  <anchor x="396" y="536" name="top"/>
  <outline>
    <contour>
      <point x="289" y="0" type="line"/>
      <point x="504" y="0" type="line"/>
      <point x="565" y="219" type="line" smooth="yes"/>
      <point x="598" y="336"/>
      <point x="621" y="423"/>
      <point x="714" y="423" type="curve" smooth="yes"/>
      <point x="727" y="423"/>
      <point x="748" y="420"/>
      <point x="758" y="404" type="curve"/>
      <point x="775" y="413"/>
      <point x="795" y="440"/>
      <point x="795" y="467" type="curve" smooth="yes"/>
      <point x="795" y="497"/>
      <point x="768" y="542"/>
      <point x="719" y="542" type="curve" smooth="yes"/>
      <point x="716" y="542"/>
      <point x="639" y="561"/>
      <point x="633" y="528" type="curve" smooth="yes"/>
      <point x="611" y="417"/>
      <point x="529" y="127"/>
      <point x="494" y="-9" type="curve"/>
      <point x="492" y="-9" type="line"/>
      <point x="444" y="149"/>
      <point x="410" y="219"/>
      <point x="402" y="235" type="curve" smooth="yes"/>
      <point x="335" y="406" type="line" smooth="yes"/>
      <point x="320" y="451"/>
      <point x="307" y="481"/>
      <point x="307" y="510" type="curve" smooth="yes"/>
      <point x="307" y="524"/>
      <point x="321" y="526"/>
      <point x="339" y="526" type="curve" smooth="yes"/>
      <point x="374" y="526" type="line"/>
      <point x="374" y="536" type="line"/>
      <point x="8" y="536" type="line"/>
      <point x="8" y="526" type="line"/>
      <point x="52" y="526"/>
      <point x="71" y="518"/>
      <point x="97" y="452" type="curve" smooth="yes"/>
    </contour>
  </outline>
</glyph>
<glyph name="uni047C" format="2">
  <advance width="1335"/>
  <unicode hex="047C"/>
  <outline>
    <contour>
      <point x="452" y="910" type="curve"/>
      <point x="462" y="910" type="line"/>
      <point x="464" y="916" type="line" smooth="yes"/>
      <point x="476" y="971"/>
      <point x="517" y="985"/>
      <point x="564" y="985" type="curve" smooth="yes"/>
      <point x="650" y="985"/>
      <point x="731" y="910"/>
      <point x="880" y="910" type="curve" smooth="yes"/>
      <point x="901" y="910" type="line"/>
      <point x="901" y="1047" type="line"/>
      <point x="894" y="1047" type="line"/>
      <point x="783" y="1047"/>
      <point x="709" y="1102"/>
      <point x="628" y="1102" type="curve" smooth="yes"/>
      <point x="530" y="1102"/>
      <point x="458" y="1002"/>
    </contour>
    <contour>
      <point x="623" y="755" type="line"/>
      <point x="716" y="773"/>
      <point x="752" y="809"/>
      <point x="752" y="853" type="curve" smooth="yes"/>
      <point x="752" y="895"/>
      <point x="728" y="926"/>
      <point x="678" y="926" type="curve" smooth="yes"/>
      <point x="648" y="926"/>
      <point x="626" y="910"/>
      <point x="626" y="882" type="curve" smooth="yes"/>
      <point x="626" y="822"/>
      <point x="699" y="842"/>
      <point x="699" y="808" type="curve" smooth="yes"/>
      <point x="699" y="782"/>
      <point x="663" y="772"/>
      <point x="623" y="765" type="curve"/>
    </contour>
    <component base="uniA64C"/>
  </outline>
</glyph>
<glyph name="uni0494" format="2">
  <advance width="876"/>
  <unicode hex="0494"/>
  <anchor x="439" y="-251" name="bottom"/>
  <anchor x="439" y="714" name="top"/>
  <outline>
    <contour>
      <point x="463" y="-251" type="curve" smooth="yes"/>
      <point x="718" y="-251"/>
      <point x="843" y="-103"/>
      <point x="843" y="88" type="curve" smooth="yes"/>
      <point x="843" y="251"/>
      <point x="796" y="395"/>
      <point x="463" y="395" type="curve" smooth="yes"/>
      <point x="439" y="395"/>
      <point x="390" y="392"/>
      <point x="367" y="391" type="curve"/>
      <point x="367" y="704" type="line"/>
      <point x="486" y="704" type="line" smooth="yes"/>
      <point x="621" y="704"/>
      <point x="673" y="660"/>
      <point x="697" y="524" type="curve" smooth="yes"/>
      <point x="703" y="492" type="line"/>
      <point x="713" y="492" type="line"/>
      <point x="702" y="714" type="line"/>
      <point x="24" y="714" type="line"/>
      <point x="24" y="704" type="line"/>
      <point x="83" y="704" type="line" smooth="yes"/>
      <point x="109" y="704"/>
      <point x="132" y="688"/>
      <point x="132" y="658" type="curve" smooth="yes"/>
      <point x="132" y="54" type="line" smooth="yes"/>
      <point x="132" y="25"/>
      <point x="114" y="10"/>
      <point x="65" y="10" type="curve" smooth="yes"/>
      <point x="24" y="10" type="line"/>
      <point x="24" y="0" type="line"/>
      <point x="497" y="0" type="line"/>
      <point x="497" y="10" type="line"/>
      <point x="430" y="10" type="line" smooth="yes"/>
      <point x="384" y="10"/>
      <point x="367" y="31"/>
      <point x="367" y="54" type="curve" smooth="yes"/>
      <point x="367" y="379" type="line"/>
      <point x="376" y="381"/>
      <point x="385" y="381"/>
      <point x="396" y="381" type="curve" smooth="yes"/>
      <point x="535" y="381"/>
      <point x="592" y="324"/>
      <point x="592" y="92" type="curve" smooth="yes"/>
      <point x="592" y="-161"/>
      <point x="561" y="-241"/>
      <point x="465" y="-241" type="curve" smooth="yes"/>
      <point x="400" y="-241"/>
      <point x="374" y="-179"/>
      <point x="358" y="-53" type="curve"/>
      <point x="262" y="-53"/>
      <point x="220" y="-88"/>
      <point x="220" y="-128" type="curve" smooth="yes"/>
      <point x="220" y="-205"/>
      <point x="295" y="-251"/>
    </contour>
  </outline>
</glyph>
<glyph name="uni049C" format="2">
  <advance width="901"/>
  <unicode hex="049C"/>
  <anchor x="451" y="0" name="bottom"/>
  <anchor x="451" y="714" name="top"/>
  <outline>
    <contour>
      <point x="26" y="0" type="line"/>
      <point x="452" y="0" type="line"/>
      <point x="452" y="10" type="line"/>
      <point x="408" y="10" type="line" smooth="yes"/>
      <point x="363" y="10"/>
      <point x="343" y="16"/>
      <point x="343" y="65" type="curve" smooth="yes"/>
      <point x="343" y="354" type="line"/>
      <point x="437" y="354" type="line"/>
      <point x="437" y="174" type="line"/>
      <point x="447" y="174" type="line"/>
      <point x="447" y="354" type="line"/>
      <point x="473" y="353"/>
      <point x="495" y="331"/>
      <point x="516" y="266" type="curve" smooth="yes"/>
      <point x="552" y="159" type="line" smooth="yes"/>
      <point x="596" y="29"/>
      <point x="666" y="0"/>
      <point x="736" y="0" type="curve" smooth="yes"/>
      <point x="900" y="0" type="line"/>
      <point x="900" y="10" type="line"/>
      <point x="899" y="10" type="line" smooth="yes"/>
      <point x="892" y="10"/>
      <point x="867" y="-23"/>
      <point x="770" y="177" type="curve" smooth="yes"/>
      <point x="711" y="295" type="line" smooth="yes"/>
      <point x="675" y="353"/>
      <point x="590" y="372"/>
      <point x="496" y="374" type="curve"/>
      <point x="531" y="408"/>
      <point x="570" y="457"/>
      <point x="625" y="565" type="curve" smooth="yes"/>
      <point x="644" y="595"/>
      <point x="669" y="622"/>
      <point x="727" y="622" type="curve" smooth="yes"/>
      <point x="769" y="622"/>
      <point x="807" y="611"/>
      <point x="820" y="575" type="curve"/>
      <point x="863" y="585"/>
      <point x="882" y="608"/>
      <point x="882" y="645" type="curve" smooth="yes"/>
      <point x="882" y="692"/>
      <point x="848" y="720"/>
      <point x="787" y="720" type="curve" smooth="yes"/>
      <point x="740" y="720"/>
      <point x="697" y="721"/>
      <point x="615" y="556" type="curve" smooth="yes"/>
      <point x="566" y="465"/>
      <point x="496" y="361"/>
      <point x="447" y="367" type="curve"/>
      <point x="447" y="544" type="line"/>
      <point x="437" y="544" type="line"/>
      <point x="437" y="364" type="line"/>
      <point x="343" y="364" type="line"/>
      <point x="343" y="649" type="line" smooth="yes"/>
      <point x="343" y="698"/>
      <point x="353" y="704"/>
      <point x="402" y="704" type="curve" smooth="yes"/>
      <point x="452" y="704" type="line"/>
      <point x="452" y="714" type="line"/>
      <point x="26" y="714" type="line"/>
      <point x="26" y="704" type="line"/>
      <point x="67" y="704" type="line" smooth="yes"/>
      <point x="110" y="704"/>
      <point x="132" y="698"/>
      <point x="132" y="657" type="curve" smooth="yes"/>
      <point x="132" y="65" type="line" smooth="yes"/>
      <point x="132" y="24"/>
      <point x="110" y="10"/>
      <point x="67" y="10" type="curve" smooth="yes"/>
      <point x="26" y="10" type="line"/>
    </contour>
  </outline>
</glyph>
<glyph name="uni04A2" format="2">
  <advance width="978"/>
  <unicode hex="04A2"/>
  <anchor x="489" y="0" name="bottom"/>
  <anchor x="489" y="714" name="top"/>
  <outline>
    <contour>
      <point x="944" y="-210" type="curve"/>
      <point x="954" y="-210" type="line"/>
      <point x="954" y="10" type="line"/>
      <point x="878" y="10" type="line" smooth="yes"/>
      <point x="840" y="10"/>
      <point x="846" y="32"/>
      <point x="846" y="28" type="curve" smooth="yes"/>
      <point x="846" y="658" type="line" smooth="yes"/>
      <point x="846" y="683"/>
      <point x="868" y="704"/>
      <point x="892" y="704" type="curve" smooth="yes"/>
      <point x="954" y="704" type="line"/>
      <point x="954" y="714" type="line"/>
      <point x="528" y="714" type="line"/>
      <point x="528" y="704" type="line"/>
      <point x="564" y="704" type="line" smooth="yes"/>
      <point x="598" y="704"/>
      <point x="614" y="683"/>
      <point x="614" y="658" type="curve" smooth="yes"/>
      <point x="614" y="378" type="line"/>
      <point x="364" y="378" type="line"/>
      <point x="364" y="661" type="line" smooth="yes"/>
      <point x="364" y="683"/>
      <point x="381" y="704"/>
      <point x="407" y="704" type="curve" smooth="yes"/>
      <point x="450" y="704" type="line"/>
      <point x="450" y="714" type="line"/>
      <point x="24" y="714" type="line"/>
      <point x="24" y="704" type="line"/>
      <point x="76" y="704" type="line" smooth="yes"/>
      <point x="100" y="704"/>
      <point x="132" y="684"/>
      <point x="132" y="655" type="curve" smooth="yes"/>
      <point x="132" y="55" type="line" smooth="yes"/>
      <point x="132" y="43"/>
      <point x="108" y="10"/>
      <point x="86" y="10" type="curve" smooth="yes"/>
      <point x="24" y="10" type="line"/>
      <point x="24" y="0" type="line"/>
      <point x="450" y="0" type="line"/>
      <point x="450" y="10" type="line"/>
      <point x="407" y="10" type="line" smooth="yes"/>
      <point x="381" y="10"/>
      <point x="364" y="43"/>
      <point x="364" y="55" type="curve" smooth="yes"/>
      <point x="364" y="368" type="line"/>
      <point x="614" y="368" type="line"/>
      <point x="614" y="62" type="line" smooth="yes"/>
      <point x="614" y="42"/>
      <point x="596" y="10"/>
      <point x="565" y="10" type="curve" smooth="yes"/>
      <point x="528" y="10" type="line"/>
      <point x="528" y="0" type="line"/>
      <point x="735" y="0" type="line" smooth="yes"/>
      <point x="894" y="0"/>
      <point x="944" y="-50"/>
    </contour>
  </outline>
</glyph>
<glyph name="uni04AC" format="2">
  <advance width="795"/>
  <unicode hex="04AC"/>
  <anchor x="397" y="-210" name="bottom"/>
  <anchor x="397" y="714" name="top"/>
  <outline>
    <contour>
      <point x="614" y="-210" type="curve"/>
      <point x="624" y="-210" type="line"/>
      <point x="624" y="10" type="line"/>
      <point x="548" y="10" type="line" smooth="yes"/>
      <point x="510" y="10"/>
      <point x="516" y="32"/>
      <point x="516" y="28" type="curve" smooth="yes"/>
      <point x="516" y="704" type="line"/>
      <point x="618" y="704" type="line" smooth="yes"/>
      <point x="728" y="704"/>
      <point x="765" y="666"/>
      <point x="778" y="544" type="curve" smooth="yes"/>
      <point x="783" y="492" type="line"/>
      <point x="793" y="492" type="line"/>
      <point x="786" y="714" type="line"/>
      <point x="11" y="714" type="line"/>
      <point x="4" y="492" type="line"/>
      <point x="14" y="492" type="line"/>
      <point x="17" y="544" type="line" smooth="yes"/>
      <point x="24" y="666"/>
      <point x="69" y="704"/>
      <point x="179" y="704" type="curve" smooth="yes"/>
      <point x="281" y="704" type="line"/>
      <point x="281" y="73" type="line" smooth="yes"/>
      <point x="281" y="10"/>
      <point x="245" y="10"/>
      <point x="208" y="10" type="curve" smooth="yes"/>
      <point x="172" y="10" type="line"/>
      <point x="172" y="0" type="line"/>
      <point x="404" y="0" type="line" smooth="yes"/>
      <point x="564" y="0"/>
      <point x="614" y="-50"/>
    </contour>
  </outline>
</glyph>
<glyph name="uni04B8" format="2">
  <advance width="931"/>
  <unicode hex="04B8"/>
  <anchor x="465" y="0" name="bottom"/>
  <anchor x="465" y="714" name="top"/>
  <outline>
    <contour>
      <point x="448" y="112" type="line"/>
      <point x="458" y="112" type="line"/>
      <point x="458" y="488" type="line"/>
      <point x="448" y="488" type="line"/>
    </contour>
    <component base="afii10041"/>
  </outline>
</glyph>
<glyph name="uni04BA" format="2">
  <advance width="931"/>
  <unicode hex="04BA"/>
  <anchor x="465" y="0" name="bottom"/>
  <anchor x="465" y="714" name="top"/>
  <outline>
    <contour>
      <point x="32" y="0" type="line"/>
      <point x="449" y="0" type="line"/>
      <point x="449" y="10" type="line"/>
      <point x="422" y="10" type="line" smooth="yes"/>
      <point x="378" y="10"/>
      <point x="365" y="21"/>
      <point x="365" y="67" type="curve" smooth="yes"/>
      <point x="365" y="433" type="line"/>
      <point x="389" y="440"/>
      <point x="439" y="454"/>
      <point x="490" y="454" type="curve" smooth="yes"/>
      <point x="583" y="454"/>
      <point x="600" y="401"/>
      <point x="600" y="318" type="curve" smooth="yes"/>
      <point x="600" y="67" type="line" smooth="yes"/>
      <point x="600" y="17"/>
      <point x="582" y="10"/>
      <point x="540" y="10" type="curve" smooth="yes"/>
      <point x="511" y="10" type="line"/>
      <point x="511" y="0" type="line"/>
      <point x="920" y="0" type="line"/>
      <point x="920" y="10" type="line"/>
      <point x="891" y="10" type="line" smooth="yes"/>
      <point x="848" y="10"/>
      <point x="835" y="21"/>
      <point x="835" y="68" type="curve" smooth="yes"/>
      <point x="835" y="245" type="line" smooth="yes"/>
      <point x="835" y="425"/>
      <point x="733" y="472"/>
      <point x="587" y="472" type="curve" smooth="yes"/>
      <point x="488" y="472"/>
      <point x="406" y="452"/>
      <point x="365" y="447" type="curve"/>
      <point x="365" y="654" type="line" smooth="yes"/>
      <point x="365" y="685"/>
      <point x="382" y="704"/>
      <point x="410" y="704" type="curve" smooth="yes"/>
      <point x="474" y="704" type="line"/>
      <point x="474" y="714" type="line"/>
      <point x="25" y="714" type="line"/>
      <point x="25" y="704" type="line"/>
      <point x="84" y="704" type="line" smooth="yes"/>
      <point x="106" y="704"/>
      <point x="130" y="685"/>
      <point x="130" y="654" type="curve" smooth="yes"/>
      <point x="130" y="72" type="line" smooth="yes"/>
      <point x="130" y="18"/>
      <point x="107" y="10"/>
      <point x="74" y="10" type="curve" smooth="yes"/>
      <point x="32" y="10" type="line"/>
    </contour>
  </outline>
</glyph>
<glyph name="uni04BD" format="2">
  <advance width="876"/>
  <unicode hex="04BD"/>
  <anchor x="528" y="0" name="bottom"/>
  <anchor x="528" y="536" name="top"/>
  <outline>
    <contour>
      <point x="592" y="-10" type="curve" smooth="yes"/>
      <point x="692" y="-10"/>
      <point x="811" y="26"/>
      <point x="811" y="117" type="curve" smooth="yes"/>
      <point x="811" y="161"/>
      <point x="785" y="179"/>
      <point x="739" y="187" type="curve"/>
      <point x="744" y="70"/>
      <point x="715" y="2"/>
      <point x="620" y="2" type="curve" smooth="yes"/>
      <point x="502" y="2"/>
      <point x="457" y="90"/>
      <point x="455" y="285" type="curve"/>
      <point x="833" y="285" type="line"/>
      <point x="833" y="310" type="line" smooth="yes"/>
      <point x="833" y="470"/>
      <point x="721" y="552"/>
      <point x="538" y="552" type="curve" smooth="yes"/>
      <point x="352" y="552"/>
      <point x="240" y="466"/>
      <point x="228" y="298" type="curve"/>
      <point x="167" y="309"/>
      <point x="142" y="348"/>
      <point x="142" y="400" type="curve" smooth="yes"/>
      <point x="142" y="423"/>
      <point x="147" y="440"/>
      <point x="154" y="452" type="curve"/>
      <point x="130" y="461"/>
      <point x="118" y="463"/>
      <point x="101" y="463" type="curve" smooth="yes"/>
      <point x="54" y="463"/>
      <point x="12" y="434"/>
      <point x="12" y="391" type="curve" smooth="yes"/>
      <point x="12" y="266"/>
      <point x="136" y="285"/>
      <point x="227" y="285" type="curve"/>
      <point x="227" y="91"/>
      <point x="343" y="-10"/>
    </contour>
    <contour>
      <point x="455" y="295" type="line"/>
      <point x="455" y="473"/>
      <point x="484" y="542"/>
      <point x="537" y="542" type="curve" smooth="yes"/>
      <point x="593" y="542"/>
      <point x="611" y="473"/>
      <point x="611" y="295" type="curve"/>
    </contour>
  </outline>
</glyph>
<glyph name="uni04C3" format="2">
  <advance width="916"/>
  <unicode hex="04C3"/>
  <anchor x="459" y="-251" name="bottom"/>
  <anchor x="459" y="714" name="top"/>
  <outline>
    <contour>
      <point x="488" y="-251" type="curve" smooth="yes"/>
      <point x="738" y="-251"/>
      <point x="865" y="-103"/>
      <point x="865" y="87" type="curve" smooth="yes"/>
      <point x="865" y="314"/>
      <point x="762" y="392"/>
      <point x="518" y="402" type="curve"/>
      <point x="548" y="442"/>
      <point x="584" y="484"/>
      <point x="640" y="565" type="curve" smooth="yes"/>
      <point x="665" y="594"/>
      <point x="683" y="622"/>
      <point x="735" y="622" type="curve" smooth="yes"/>
      <point x="774" y="622"/>
      <point x="811" y="611"/>
      <point x="824" y="575" type="curve"/>
      <point x="865" y="585"/>
      <point x="883" y="608"/>
      <point x="883" y="645" type="curve" smooth="yes"/>
      <point x="883" y="692"/>
      <point x="851" y="720"/>
      <point x="793" y="720" type="curve" smooth="yes"/>
      <point x="750" y="720"/>
      <point x="722" y="715"/>
      <point x="629" y="557" type="curve" smooth="yes"/>
      <point x="592" y="499"/>
      <point x="556" y="470"/>
      <point x="542" y="445" type="curve" smooth="yes"/>
      <point x="515" y="413"/>
      <point x="510" y="395"/>
      <point x="366" y="364" type="curve"/>
      <point x="366" y="649" type="line" smooth="yes"/>
      <point x="366" y="698"/>
      <point x="376" y="704"/>
      <point x="425" y="704" type="curve" smooth="yes"/>
      <point x="475" y="704" type="line"/>
      <point x="475" y="714" type="line"/>
      <point x="26" y="714" type="line"/>
      <point x="26" y="704" type="line"/>
      <point x="67" y="704" type="line" smooth="yes"/>
      <point x="110" y="704"/>
      <point x="132" y="698"/>
      <point x="132" y="657" type="curve" smooth="yes"/>
      <point x="132" y="65" type="line" smooth="yes"/>
      <point x="132" y="24"/>
      <point x="110" y="10"/>
      <point x="67" y="10" type="curve" smooth="yes"/>
      <point x="26" y="10" type="line"/>
      <point x="26" y="0" type="line"/>
      <point x="475" y="0" type="line"/>
      <point x="475" y="10" type="line"/>
      <point x="431" y="10" type="line" smooth="yes"/>
      <point x="386" y="10"/>
      <point x="366" y="16"/>
      <point x="366" y="65" type="curve" smooth="yes"/>
      <point x="366" y="348" type="line"/>
      <point x="424" y="372"/>
      <point x="490" y="389"/>
      <point x="523" y="389" type="curve" smooth="yes"/>
      <point x="582" y="389"/>
      <point x="614" y="355"/>
      <point x="614" y="117" type="curve" smooth="yes"/>
      <point x="614" y="-166"/>
      <point x="593" y="-241"/>
      <point x="497" y="-241" type="curve" smooth="yes"/>
      <point x="422" y="-241"/>
      <point x="396" y="-204"/>
      <point x="380" y="-53" type="curve"/>
      <point x="284" y="-53"/>
      <point x="242" y="-90"/>
      <point x="242" y="-124" type="curve" smooth="yes"/>
      <point x="242" y="-208"/>
      <point x="317" y="-251"/>
    </contour>
  </outline>
</glyph>
<glyph name="uni04C5" format="2">
  <advance width="869"/>
  <unicode hex="04C5"/>
  <anchor x="425" y="0" name="bottom"/>
  <anchor x="435" y="714" name="top"/>
  <outline>
    <contour>
      <point x="636" y="-210" type="line"/>
      <point x="774" y="-210" type="line"/>
      <point x="838" y="-6" type="line"/>
      <point x="840" y="10" type="line"/>
      <point x="827" y="10" type="line"/>
      <point x="827" y="0" type="line"/>
    </contour>
    <component base="afii10029"/>
  </outline>
</glyph>
<glyph name="uni04D8" format="2">
  <advance width="879"/>
  <unicode hex="04D8"/>
  <anchor x="439" y="0" name="bottom"/>
  <anchor x="439" y="714" name="top"/>
  <outline>
    <contour>
      <point x="425" y="-10" type="curve" smooth="yes"/>
      <point x="643" y="-10"/>
      <point x="816" y="97"/>
      <point x="816" y="379" type="curve" smooth="yes"/>
      <point x="816" y="608"/>
      <point x="659" y="725"/>
      <point x="383" y="725" type="curve" smooth="yes"/>
      <point x="234" y="725"/>
      <point x="83" y="667"/>
      <point x="83" y="596" type="curve" smooth="yes"/>
      <point x="83" y="565"/>
      <point x="101" y="542"/>
      <point x="126" y="532" type="curve"/>
      <point x="162" y="658"/>
      <point x="236" y="711"/>
      <point x="332" y="711" type="curve" smooth="yes"/>
      <point x="478" y="711"/>
      <point x="578" y="680"/>
      <point x="582" y="352" type="curve"/>
      <point x="64" y="352" type="line"/>
      <point x="64" y="323" type="line" smooth="yes"/>
      <point x="64" y="154"/>
      <point x="144" y="-10"/>
    </contour>
    <contour>
      <point x="443" y="0" type="curve" smooth="yes"/>
      <point x="342" y="0"/>
      <point x="313" y="69"/>
      <point x="309" y="342" type="curve"/>
      <point x="582" y="342" type="line"/>
      <point x="582" y="68"/>
      <point x="551" y="0"/>
    </contour>
  </outline>
</glyph>
<glyph name="uni04F6" format="2">
  <advance width="715"/>
  <unicode hex="04F6"/>
  <anchor x="358" y="-210" name="bottom"/>
  <anchor x="358" y="714" name="top"/>
  <outline>
    <contour>
      <point x="487" y="-210" type="curve"/>
      <point x="497" y="-210" type="line"/>
      <point x="497" y="10" type="line"/>
      <point x="394" y="10" type="line" smooth="yes"/>
      <point x="356" y="10"/>
      <point x="363" y="32"/>
      <point x="363" y="28" type="curve" smooth="yes"/>
      <point x="363" y="704" type="line"/>
      <point x="540" y="704" type="line" smooth="yes"/>
      <point x="655" y="704"/>
      <point x="697" y="670"/>
      <point x="711" y="564" type="curve" smooth="yes"/>
      <point x="715" y="534" type="line"/>
      <point x="725" y="534" type="line"/>
      <point x="718" y="714" type="line"/>
      <point x="24" y="714" type="line"/>
      <point x="24" y="704" type="line"/>
      <point x="83" y="704" type="line" smooth="yes"/>
      <point x="109" y="704"/>
      <point x="132" y="688"/>
      <point x="132" y="658" type="curve" smooth="yes"/>
      <point x="132" y="54" type="line" smooth="yes"/>
      <point x="132" y="25"/>
      <point x="114" y="10"/>
      <point x="65" y="10" type="curve" smooth="yes"/>
      <point x="24" y="10" type="line"/>
      <point x="24" y="0" type="line"/>
      <point x="278" y="0" type="line" smooth="yes"/>
      <point x="437" y="0"/>
      <point x="487" y="-50"/>
    </contour>
  </outline>
</glyph>
<glyph name="uni0503" format="2">
  <advance width="1216"/>
  <unicode hex="0503"/>
  <anchor x="609" y="0" name="bottom"/>
  <anchor x="609" y="760" name="top"/>
  <outline>
    <contour>
      <point x="267" y="-10" type="curve" smooth="yes"/>
      <point x="368" y="-10"/>
      <point x="421" y="42"/>
      <point x="427" y="156" type="curve"/>
      <point x="429" y="156" type="line"/>
      <point x="495" y="11"/>
      <point x="629" y="-10"/>
      <point x="780" y="-10" type="curve" smooth="yes"/>
      <point x="986" y="-10"/>
      <point x="1103" y="73"/>
      <point x="1103" y="194" type="curve" smooth="yes"/>
      <point x="1103" y="279" type="line" smooth="yes"/>
      <point x="1103" y="342"/>
      <point x="1180" y="341"/>
      <point x="1176" y="341" type="curve" smooth="yes"/>
      <point x="1198" y="341" type="line"/>
      <point x="1198" y="351" type="line"/>
      <point x="782" y="351" type="line"/>
      <point x="782" y="341" type="line"/>
      <point x="803" y="341" type="line" smooth="yes"/>
      <point x="797" y="341"/>
      <point x="877" y="342"/>
      <point x="877" y="284" type="curve" smooth="yes"/>
      <point x="877" y="115" type="line" smooth="yes"/>
      <point x="877" y="37"/>
      <point x="842" y="0"/>
      <point x="778" y="0" type="curve" smooth="yes"/>
      <point x="724" y="0"/>
      <point x="675" y="17"/>
      <point x="675" y="111" type="curve" smooth="yes"/>
      <point x="675" y="760" type="line"/>
      <point x="346" y="760" type="line"/>
      <point x="346" y="750" type="line"/>
      <point x="366" y="750" type="line" smooth="yes"/>
      <point x="414" y="750"/>
      <point x="448" y="735"/>
      <point x="448" y="679" type="curve" smooth="yes"/>
      <point x="448" y="610" type="line" smooth="yes"/>
      <point x="448" y="563"/>
      <point x="448" y="451"/>
      <point x="449" y="356" type="curve"/>
      <point x="447" y="356" type="line"/>
      <point x="424" y="491"/>
      <point x="351" y="550"/>
      <point x="254" y="550" type="curve" smooth="yes"/>
      <point x="118" y="550"/>
      <point x="46" y="448"/>
      <point x="46" y="275" type="curve" smooth="yes"/>
      <point x="46" y="97"/>
      <point x="118" y="-10"/>
    </contour>
    <contour>
      <point x="352" y="30" type="curve" smooth="yes"/>
      <point x="302" y="30"/>
      <point x="274" y="154"/>
      <point x="274" y="282" type="curve" smooth="yes"/>
      <point x="274" y="381"/>
      <point x="306" y="490"/>
      <point x="353" y="490" type="curve" smooth="yes"/>
      <point x="399" y="490"/>
      <point x="448" y="401"/>
      <point x="448" y="277" type="curve" smooth="yes"/>
      <point x="448" y="127"/>
      <point x="393" y="30"/>
    </contour>
  </outline>
</glyph>
<glyph name="uni0509" format="2">
  <advance width="1240"/>
  <unicode hex="0509"/>
  <anchor x="620" y="0" name="bottom"/>
  <anchor x="620" y="536" name="top"/>
  <outline>
    <contour>
      <point x="800" y="-10" type="curve" smooth="yes"/>
      <point x="1025" y="-10"/>
      <point x="1128" y="65"/>
      <point x="1128" y="186" type="curve" smooth="yes"/>
      <point x="1128" y="279" type="line" smooth="yes"/>
      <point x="1128" y="334"/>
      <point x="1181" y="341"/>
      <point x="1202" y="341" type="curve" smooth="yes"/>
      <point x="1223" y="341" type="line"/>
      <point x="1223" y="351" type="line"/>
      <point x="807" y="351" type="line"/>
      <point x="807" y="341" type="line"/>
      <point x="828" y="341" type="line" smooth="yes"/>
      <point x="849" y="341"/>
      <point x="901" y="334"/>
      <point x="901" y="284" type="curve" smooth="yes"/>
      <point x="901" y="103" type="line" smooth="yes"/>
      <point x="901" y="22"/>
      <point x="862" y="0"/>
      <point x="800" y="0" type="curve" smooth="yes"/>
      <point x="737" y="0"/>
      <point x="698" y="22"/>
      <point x="698" y="102" type="curve" smooth="yes"/>
      <point x="698" y="463" type="line" smooth="yes"/>
      <point x="698" y="526"/>
      <point x="774" y="526"/>
      <point x="763" y="526" type="curve" smooth="yes"/>
      <point x="785" y="526" type="line"/>
      <point x="785" y="536" type="line"/>
      <point x="166" y="536" type="line"/>
      <point x="166" y="526" type="line"/>
      <point x="214" y="526" type="line" smooth="yes"/>
      <point x="291" y="526"/>
      <point x="300" y="499"/>
      <point x="300" y="465" type="curve" smooth="yes"/>
      <point x="300" y="415"/>
      <point x="303" y="405"/>
      <point x="288" y="341" type="curve" smooth="yes"/>
      <point x="261" y="234"/>
      <point x="220" y="94"/>
      <point x="132" y="94" type="curve" smooth="yes"/>
      <point x="100" y="94"/>
      <point x="82" y="111"/>
      <point x="79" y="134" type="curve"/>
      <point x="58" y="128"/>
      <point x="-1" y="123"/>
      <point x="-1" y="61" type="curve" smooth="yes"/>
      <point x="-1" y="17"/>
      <point x="37" y="-7"/>
      <point x="86" y="-7" type="curve" smooth="yes"/>
      <point x="145" y="-7"/>
      <point x="183" y="32"/>
      <point x="242" y="151" type="curve" smooth="yes"/>
      <point x="297" y="272"/>
      <point x="321" y="440"/>
      <point x="313" y="526" type="curve"/>
      <point x="471" y="526" type="line"/>
      <point x="471" y="203" type="line" smooth="yes"/>
      <point x="471" y="54"/>
      <point x="577" y="-10"/>
    </contour>
  </outline>
</glyph>
<glyph name="uni0514" format="2">
  <advance width="1301"/>
  <unicode hex="0514"/>
  <anchor x="678" y="0" name="bottom"/>
  <anchor x="678" y="714" name="top"/>
  <outline>
    <contour>
      <point x="112" y="-7" type="curve" smooth="yes"/>
      <point x="176" y="-7"/>
      <point x="219" y="18"/>
      <point x="257" y="122" type="curve" smooth="yes"/>
      <point x="312" y="285"/>
      <point x="337" y="552"/>
      <point x="345" y="704" type="curve"/>
      <point x="445" y="704" type="line" smooth="yes"/>
      <point x="493" y="704"/>
      <point x="516" y="691"/>
      <point x="541" y="651" type="curve" smooth="yes"/>
      <point x="753" y="327" type="line"/>
      <point x="576" y="108" type="line" smooth="yes"/>
      <point x="521" y="33"/>
      <point x="489" y="10"/>
      <point x="447" y="10" type="curve" smooth="yes"/>
      <point x="399" y="10" type="line"/>
      <point x="399" y="0" type="line"/>
      <point x="670" y="0" type="line"/>
      <point x="670" y="10" type="line"/>
      <point x="637" y="10" type="line" smooth="yes"/>
      <point x="575" y="10"/>
      <point x="559" y="18"/>
      <point x="559" y="45" type="curve" smooth="yes"/>
      <point x="559" y="65"/>
      <point x="563" y="72"/>
      <point x="587" y="101" type="curve" smooth="yes"/>
      <point x="760" y="317" type="line"/>
      <point x="893" y="114" type="line" smooth="yes"/>
      <point x="910" y="89"/>
      <point x="918" y="69"/>
      <point x="918" y="53" type="curve" smooth="yes"/>
      <point x="918" y="24"/>
      <point x="893" y="10"/>
      <point x="842" y="10" type="curve" smooth="yes"/>
      <point x="851" y="10" type="line"/>
      <point x="851" y="0" type="line"/>
      <point x="1287" y="0" type="line"/>
      <point x="1287" y="10" type="line"/>
      <point x="1267" y="10" type="line" smooth="yes"/>
      <point x="1215" y="10"/>
      <point x="1189" y="23"/>
      <point x="1163" y="63" type="curve" smooth="yes"/>
      <point x="924" y="431" type="line"/>
      <point x="1068" y="606" type="line" smooth="yes"/>
      <point x="1123" y="681"/>
      <point x="1155" y="704"/>
      <point x="1197" y="704" type="curve" smooth="yes"/>
      <point x="1249" y="704" type="line"/>
      <point x="1249" y="714" type="line"/>
      <point x="974" y="714" type="line"/>
      <point x="974" y="704" type="line"/>
      <point x="1007" y="704" type="line" smooth="yes"/>
      <point x="1069" y="704"/>
      <point x="1085" y="696"/>
      <point x="1085" y="669" type="curve" smooth="yes"/>
      <point x="1085" y="649"/>
      <point x="1081" y="642"/>
      <point x="1057" y="613" type="curve" smooth="yes"/>
      <point x="918" y="438" type="line"/>
      <point x="800" y="616" type="line" smooth="yes"/>
      <point x="788" y="632"/>
      <point x="782" y="647"/>
      <point x="782" y="661" type="curve" smooth="yes"/>
      <point x="782" y="689"/>
      <point x="813" y="704"/>
      <point x="875" y="704" type="curve" smooth="yes"/>
      <point x="867" y="704" type="line"/>
      <point x="867" y="714" type="line"/>
      <point x="178" y="714" type="line"/>
      <point x="178" y="704" type="line"/>
      <point x="235" y="704" type="line" smooth="yes"/>
      <point x="248" y="704"/>
      <point x="332" y="720"/>
      <point x="332" y="677" type="curve" smooth="yes"/>
      <point x="332" y="655"/>
      <point x="310" y="313"/>
      <point x="259" y="170" type="curve" smooth="yes"/>
      <point x="236" y="147"/>
      <point x="201" y="104"/>
      <point x="142" y="104" type="curve" smooth="yes"/>
      <point x="107" y="104"/>
      <point x="76" y="119"/>
      <point x="62" y="147" type="curve"/>
      <point x="21" y="150"/>
      <point x="-1" y="122"/>
      <point x="-1" y="80" type="curve" smooth="yes"/>
      <point x="-1" y="22"/>
      <point x="42" y="-7"/>
    </contour>
  </outline>
</glyph>
<glyph name="uni0515" format="2">
  <advance width="1144"/>
  <unicode hex="0515"/>
  <anchor x="573" y="0" name="bottom"/>
  <anchor x="573" y="536" name="top"/>
  <outline>
    <contour>
      <point x="86" y="-7" type="curve" smooth="yes"/>
      <point x="145" y="-7"/>
      <point x="183" y="32"/>
      <point x="242" y="151" type="curve" smooth="yes"/>
      <point x="297" y="272"/>
      <point x="321" y="440"/>
      <point x="313" y="526" type="curve"/>
      <point x="396" y="526" type="line" smooth="yes"/>
      <point x="436" y="526"/>
      <point x="487" y="504"/>
      <point x="512" y="468" type="curve" smooth="yes"/>
      <point x="670" y="240" type="line"/>
      <point x="513" y="87" type="line" smooth="yes"/>
      <point x="457" y="28"/>
      <point x="439" y="10"/>
      <point x="387" y="10" type="curve" smooth="yes"/>
      <point x="350" y="10" type="line"/>
      <point x="350" y="0" type="line"/>
      <point x="694" y="0" type="line"/>
      <point x="694" y="10" type="line"/>
      <point x="611" y="10" type="line" smooth="yes"/>
      <point x="550" y="10"/>
      <point x="515" y="26"/>
      <point x="515" y="54" type="curve" smooth="yes"/>
      <point x="515" y="67"/>
      <point x="523" y="82"/>
      <point x="537" y="94" type="curve" smooth="yes"/>
      <point x="676" y="231" type="line"/>
      <point x="742" y="141" type="line" smooth="yes"/>
      <point x="770" y="101"/>
      <point x="788" y="68"/>
      <point x="788" y="46" type="curve" smooth="yes"/>
      <point x="788" y="23"/>
      <point x="766" y="10"/>
      <point x="712" y="10" type="curve" smooth="yes"/>
      <point x="705" y="10" type="line"/>
      <point x="705" y="0" type="line"/>
      <point x="1133" y="0" type="line"/>
      <point x="1133" y="10" type="line"/>
      <point x="1109" y="10" type="line" smooth="yes"/>
      <point x="1076" y="10"/>
      <point x="1031" y="25"/>
      <point x="1002" y="69" type="curve" smooth="yes"/>
      <point x="827" y="319" type="line"/>
      <point x="959" y="449" type="line" smooth="yes"/>
      <point x="1015" y="508"/>
      <point x="1033" y="526"/>
      <point x="1085" y="526" type="curve" smooth="yes"/>
      <point x="1102" y="526" type="line"/>
      <point x="1102" y="536" type="line"/>
      <point x="818" y="536" type="line"/>
      <point x="818" y="526" type="line"/>
      <point x="861" y="526" type="line" smooth="yes"/>
      <point x="922" y="526"/>
      <point x="957" y="510"/>
      <point x="957" y="482" type="curve" smooth="yes"/>
      <point x="957" y="469"/>
      <point x="949" y="454"/>
      <point x="935" y="442" type="curve" smooth="yes"/>
      <point x="821" y="327" type="line"/>
      <point x="735" y="450" type="line" smooth="yes"/>
      <point x="725" y="463"/>
      <point x="717" y="480"/>
      <point x="717" y="494" type="curve" smooth="yes"/>
      <point x="717" y="512"/>
      <point x="731" y="526"/>
      <point x="773" y="526" type="curve" smooth="yes"/>
      <point x="783" y="526" type="line"/>
      <point x="783" y="536" type="line"/>
      <point x="166" y="536" type="line"/>
      <point x="166" y="526" type="line"/>
      <point x="214" y="526" type="line" smooth="yes"/>
      <point x="291" y="526"/>
      <point x="300" y="499"/>
      <point x="300" y="465" type="curve" smooth="yes"/>
      <point x="300" y="415"/>
      <point x="303" y="405"/>
      <point x="288" y="341" type="curve" smooth="yes"/>
      <point x="261" y="234"/>
      <point x="220" y="94"/>
      <point x="132" y="94" type="curve" smooth="yes"/>
      <point x="100" y="94"/>
      <point x="82" y="111"/>
      <point x="79" y="134" type="curve"/>
      <point x="58" y="128"/>
      <point x="-1" y="123"/>
      <point x="-1" y="61" type="curve" smooth="yes"/>
      <point x="-1" y="17"/>
      <point x="37" y="-7"/>
    </contour>
  </outline>
</glyph>
<glyph name="uni0528" format="2">
  <advance width="978"/>
  <unicode hex="0528"/>
  <anchor x="489" y="-240" name="bottom"/>
  <anchor x="489" y="714" name="top"/>
  <outline>
    <contour>
      <point x="-1" y="-240" type="line"/>
      <point x="48" y="-240" type="line" smooth="yes"/>
      <point x="227" y="-240"/>
      <point x="364" y="-137"/>
      <point x="364" y="33" type="curve" smooth="yes"/>
      <point x="364" y="368" type="line"/>
      <point x="614" y="368" type="line"/>
      <point x="614" y="67" type="line" smooth="yes"/>
      <point x="614" y="43"/>
      <point x="596" y="10"/>
      <point x="564" y="10" type="curve" smooth="yes"/>
      <point x="528" y="10" type="line"/>
      <point x="528" y="0" type="line"/>
      <point x="954" y="0" type="line"/>
      <point x="954" y="10" type="line"/>
      <point x="895" y="10" type="line" smooth="yes"/>
      <point x="871" y="10"/>
      <point x="846" y="41"/>
      <point x="846" y="59" type="curve" smooth="yes"/>
      <point x="846" y="658" type="line" smooth="yes"/>
      <point x="846" y="683"/>
      <point x="868" y="704"/>
      <point x="892" y="704" type="curve" smooth="yes"/>
      <point x="954" y="704" type="line"/>
      <point x="954" y="714" type="line"/>
      <point x="528" y="714" type="line"/>
      <point x="528" y="704" type="line"/>
      <point x="564" y="704" type="line" smooth="yes"/>
      <point x="598" y="704"/>
      <point x="614" y="683"/>
      <point x="614" y="658" type="curve" smooth="yes"/>
      <point x="614" y="378" type="line"/>
      <point x="364" y="378" type="line"/>
      <point x="364" y="661" type="line" smooth="yes"/>
      <point x="364" y="683"/>
      <point x="381" y="704"/>
      <point x="407" y="704" type="curve" smooth="yes"/>
      <point x="450" y="704" type="line"/>
      <point x="450" y="714" type="line"/>
      <point x="24" y="714" type="line"/>
      <point x="24" y="704" type="line"/>
      <point x="76" y="704" type="line" smooth="yes"/>
      <point x="100" y="704"/>
      <point x="132" y="684"/>
      <point x="132" y="655" type="curve" smooth="yes"/>
      <point x="132" y="-76" type="line" smooth="yes"/>
      <point x="132" y="-185"/>
      <point x="87" y="-230"/>
      <point x="17" y="-230" type="curve" smooth="yes"/>
      <point x="-1" y="-230" type="line"/>
    </contour>
  </outline>
</glyph>
<glyph name="uni1AB7" format="2">
  <unicode hex="1AB7"/>
  <anchor x="-204" y="0" name="_bottom"/>
  <anchor x="-204" y="-253" name="bottom"/>
  <outline>
    <contour>
      <point x="-204" y="-254" type="curve" smooth="yes"/>
      <point x="-145" y="-254"/>
      <point x="-111" y="-236"/>
      <point x="-111" y="-199" type="curve" smooth="yes"/>
      <point x="-111" y="-192"/>
      <point x="-112" y="-177"/>
      <point x="-118" y="-171" type="curve"/>
      <point x="-150" y="-186"/>
      <point x="-178" y="-192"/>
      <point x="-209" y="-192" type="curve" smooth="yes"/>
      <point x="-275" y="-192"/>
      <point x="-289" y="-171"/>
      <point x="-289" y="-141" type="curve" smooth="yes"/>
      <point x="-289" y="-40" type="line"/>
      <point x="-299" y="-40" type="line"/>
      <point x="-299" y="-171" type="line" smooth="yes"/>
      <point x="-299" y="-225"/>
      <point x="-279" y="-254"/>
    </contour>
  </outline>
</glyph>
<glyph name="uni1AB8" format="2">
  <unicode hex="1AB8"/>
  <anchor x="-321" y="0" name="_bottom"/>
  <anchor x="-321" y="-253" name="bottom"/>
  <outline>
    <contour>
      <point x="-204" y="-254" type="curve" smooth="yes"/>
      <point x="-145" y="-254"/>
      <point x="-111" y="-236"/>
      <point x="-111" y="-199" type="curve" smooth="yes"/>
      <point x="-111" y="-192"/>
      <point x="-112" y="-177"/>
      <point x="-118" y="-171" type="curve"/>
      <point x="-150" y="-186"/>
      <point x="-178" y="-192"/>
      <point x="-209" y="-192" type="curve" smooth="yes"/>
      <point x="-275" y="-192"/>
      <point x="-289" y="-171"/>
      <point x="-289" y="-141" type="curve" smooth="yes"/>
      <point x="-289" y="-40" type="line"/>
      <point x="-299" y="-40" type="line"/>
      <point x="-299" y="-171" type="line" smooth="yes"/>
      <point x="-299" y="-225"/>
      <point x="-279" y="-254"/>
    </contour>
    <contour>
      <point x="-436" y="-254" type="curve" smooth="yes"/>
      <point x="-377" y="-254"/>
      <point x="-343" y="-236"/>
      <point x="-343" y="-199" type="curve" smooth="yes"/>
      <point x="-343" y="-192"/>
      <point x="-344" y="-177"/>
      <point x="-350" y="-171" type="curve"/>
      <point x="-382" y="-186"/>
      <point x="-410" y="-192"/>
      <point x="-441" y="-192" type="curve" smooth="yes"/>
      <point x="-507" y="-192"/>
      <point x="-521" y="-171"/>
      <point x="-521" y="-141" type="curve" smooth="yes"/>
      <point x="-521" y="-40" type="line"/>
      <point x="-531" y="-40" type="line"/>
      <point x="-531" y="-171" type="line" smooth="yes"/>
      <point x="-531" y="-225"/>
      <point x="-511" y="-254"/>
    </contour>
  </outline>
</glyph>
<glyph name="uni1ABB" format="2">
  <unicode hex="1ABB"/>
  <anchor x="-335" y="536" name="_top"/>
  <anchor x="-335" y="805" name="top"/>
  <outline>
    <contour>
      <point x="-125" y="569" type="line"/>
      <point x="-48" y="574"/>
      <point x="21" y="615"/>
      <point x="21" y="688" type="curve" smooth="yes"/>
      <point x="21" y="763"/>
      <point x="-46" y="799"/>
      <point x="-125" y="805" type="curve"/>
      <point x="-125" y="795" type="line"/>
      <point x="-89" y="786"/>
      <point x="-53" y="779"/>
      <point x="-53" y="688" type="curve" smooth="yes"/>
      <point x="-53" y="597"/>
      <point x="-89" y="589"/>
      <point x="-125" y="579" type="curve"/>
    </contour>
    <contour>
      <point x="-544" y="571" type="curve"/>
      <point x="-544" y="581" type="line"/>
      <point x="-580" y="590"/>
      <point x="-615" y="599"/>
      <point x="-615" y="690" type="curve" smooth="yes"/>
      <point x="-615" y="781"/>
      <point x="-580" y="789"/>
      <point x="-544" y="797" type="curve"/>
      <point x="-544" y="807" type="line"/>
      <point x="-623" y="802"/>
      <point x="-689" y="764"/>
      <point x="-689" y="690" type="curve" smooth="yes"/>
      <point x="-689" y="616"/>
      <point x="-621" y="576"/>
    </contour>
  </outline>
</glyph>
<glyph name="uni1C86" format="2">
  <advance width="835"/>
  <unicode hex="1C86"/>
  <anchor x="417" y="0" name="bottom"/>
  <anchor x="417" y="760" name="top"/>
  <outline>
    <contour>
      <point x="132" y="0" type="line"/>
      <point x="545" y="0" type="line" smooth="yes"/>
      <point x="733" y="0"/>
      <point x="823" y="70"/>
      <point x="823" y="160" type="curve" smooth="yes"/>
      <point x="823" y="289"/>
      <point x="699" y="313"/>
      <point x="556" y="313" type="curve" smooth="yes"/>
      <point x="445" y="313" type="line"/>
      <point x="445" y="688" type="line" smooth="yes"/>
      <point x="445" y="714"/>
      <point x="467" y="750"/>
      <point x="529" y="750" type="curve" smooth="yes"/>
      <point x="544" y="750" type="line"/>
      <point x="544" y="760" type="line"/>
      <point x="18" y="760" type="line"/>
      <point x="11" y="553" type="line"/>
      <point x="21" y="553" type="line"/>
      <point x="25" y="608" type="line" smooth="yes"/>
      <point x="33" y="715"/>
      <point x="71" y="750"/>
      <point x="203" y="750" type="curve" smooth="yes"/>
      <point x="218" y="750" type="line"/>
      <point x="218" y="71" type="line" smooth="yes"/>
      <point x="218" y="39"/>
      <point x="207" y="10"/>
      <point x="144" y="10" type="curve" smooth="yes"/>
      <point x="132" y="10" type="line"/>
    </contour>
    <contour>
      <point x="445" y="10" type="line"/>
      <point x="445" y="303" type="line"/>
      <point x="485" y="303" type="line" smooth="yes"/>
      <point x="562" y="303"/>
      <point x="592" y="264"/>
      <point x="592" y="166" type="curve" smooth="yes"/>
      <point x="592" y="53"/>
      <point x="563" y="10"/>
      <point x="486" y="10" type="curve" smooth="yes"/>
    </contour>
  </outline>
</glyph>
<glyph name="uni1C87" format="2">
  <advance width="817"/>
  <unicode hex="1C87"/>
  <anchor x="409" y="0" name="bottom"/>
  <anchor x="409" y="760" name="top"/>
  <outline>
    <contour>
      <point x="115" y="0" type="line"/>
      <point x="526" y="0" type="line" smooth="yes"/>
      <point x="718" y="0"/>
      <point x="808" y="70"/>
      <point x="808" y="164" type="curve" smooth="yes"/>
      <point x="808" y="288"/>
      <point x="685" y="313"/>
      <point x="545" y="313" type="curve" smooth="yes"/>
      <point x="429" y="313" type="line"/>
      <point x="429" y="597" type="line"/>
      <point x="458" y="597" type="line" smooth="yes"/>
      <point x="575" y="597"/>
      <point x="619" y="564"/>
      <point x="629" y="462" type="curve" smooth="yes"/>
      <point x="631" y="441" type="line"/>
      <point x="641" y="441" type="line"/>
      <point x="634" y="607" type="line"/>
      <point x="429" y="607" type="line"/>
      <point x="429" y="705" type="line" smooth="yes"/>
      <point x="429" y="730"/>
      <point x="445" y="750"/>
      <point x="468" y="750" type="curve" smooth="yes"/>
      <point x="516" y="750" type="line"/>
      <point x="516" y="760" type="line"/>
      <point x="119" y="760" type="line"/>
      <point x="119" y="750" type="line"/>
      <point x="166" y="750" type="line" smooth="yes"/>
      <point x="180" y="750"/>
      <point x="202" y="744"/>
      <point x="202" y="696" type="curve" smooth="yes"/>
      <point x="202" y="607" type="line"/>
      <point x="1" y="607" type="line"/>
      <point x="-6" y="441" type="line"/>
      <point x="4" y="441" type="line"/>
      <point x="6" y="462" type="line" smooth="yes"/>
      <point x="16" y="564"/>
      <point x="60" y="597"/>
      <point x="178" y="597" type="curve" smooth="yes"/>
      <point x="202" y="597" type="line"/>
      <point x="202" y="77" type="line" smooth="yes"/>
      <point x="202" y="26"/>
      <point x="184" y="10"/>
      <point x="126" y="10" type="curve" smooth="yes"/>
      <point x="115" y="10" type="line"/>
    </contour>
    <contour>
      <point x="429" y="10" type="line"/>
      <point x="429" y="303" type="line"/>
      <point x="472" y="303" type="line" smooth="yes"/>
      <point x="548" y="303"/>
      <point x="576" y="267"/>
      <point x="576" y="167" type="curve" smooth="yes"/>
      <point x="576" y="50"/>
      <point x="549" y="10"/>
      <point x="473" y="10" type="curve" smooth="yes"/>
    </contour>
  </outline>
</glyph>
<glyph name="uni1D0F" format="2">
  <advance width="795"/>
  <unicode hex="1D0F"/>
  <anchor x="397" y="0" name="bottom"/>
  <anchor x="397" y="536" name="top"/>
  <outline>
    <contour>
      <point x="395" y="-8" type="curve" smooth="yes"/>
      <point x="620" y="-8"/>
      <point x="746" y="84"/>
      <point x="746" y="268" type="curve" smooth="yes"/>
      <point x="746" y="451"/>
      <point x="622" y="544"/>
      <point x="400" y="544" type="curve" smooth="yes"/>
      <point x="185" y="544"/>
      <point x="50" y="451"/>
      <point x="50" y="268" type="curve" smooth="yes"/>
      <point x="50" y="84"/>
      <point x="183" y="-8"/>
    </contour>
    <contour>
      <point x="398" y="2" type="curve" smooth="yes"/>
      <point x="303" y="2"/>
      <point x="276" y="64"/>
      <point x="276" y="267" type="curve" smooth="yes"/>
      <point x="276" y="468"/>
      <point x="303" y="534"/>
      <point x="396" y="534" type="curve" smooth="yes"/>
      <point x="489" y="534"/>
      <point x="521" y="468"/>
      <point x="521" y="267" type="curve" smooth="yes"/>
      <point x="521" y="64"/>
      <point x="493" y="2"/>
    </contour>
  </outline>
</glyph>
<glyph name="uni1D24" format="2">
  <advance width="639"/>
  <unicode hex="1D24"/>
  <anchor x="320" y="0" name="bottom"/>
  <anchor x="320" y="536" name="top"/>
  <outline>
    <contour>
      <point x="319" y="-4" type="curve" smooth="yes"/>
      <point x="526" y="-4"/>
      <point x="581" y="65"/>
      <point x="581" y="107" type="curve" smooth="yes"/>
      <point x="581" y="161"/>
      <point x="515" y="171"/>
      <point x="430" y="171" type="curve"/>
      <point x="430" y="55"/>
      <point x="386" y="6"/>
      <point x="282" y="6" type="curve" smooth="yes"/>
      <point x="206" y="6"/>
      <point x="164" y="29"/>
      <point x="164" y="73" type="curve" smooth="yes"/>
      <point x="164" y="128"/>
      <point x="219" y="172"/>
      <point x="326" y="172" type="curve"/>
      <point x="326" y="210" type="line"/>
      <point x="437" y="213"/>
      <point x="552" y="255"/>
      <point x="552" y="382" type="curve" smooth="yes"/>
      <point x="552" y="480"/>
      <point x="481" y="545"/>
      <point x="292" y="545" type="curve" smooth="yes"/>
      <point x="124" y="545"/>
      <point x="58" y="494"/>
      <point x="58" y="444" type="curve" smooth="yes"/>
      <point x="58" y="419"/>
      <point x="78" y="396"/>
      <point x="199" y="396" type="curve"/>
      <point x="199" y="494"/>
      <point x="230" y="535"/>
      <point x="306" y="535" type="curve" smooth="yes"/>
      <point x="373" y="535"/>
      <point x="410" y="503"/>
      <point x="410" y="461" type="curve" smooth="yes"/>
      <point x="410" y="433"/>
      <point x="390" y="419"/>
      <point x="320" y="401" type="curve"/>
      <point x="320" y="370" type="line"/>
      <point x="173" y="352"/>
      <point x="23" y="331"/>
      <point x="23" y="177" type="curve" smooth="yes"/>
      <point x="23" y="63"/>
      <point x="111" y="-4"/>
    </contour>
  </outline>
</glyph>
<glyph name="uni1D25" format="2">
  <advance width="874"/>
  <unicode hex="1D25"/>
  <anchor x="437" y="0" name="bottom"/>
  <anchor x="437" y="536" name="top"/>
  <outline>
    <contour>
      <point x="219" y="-5" type="curve" smooth="yes"/>
      <point x="304" y="-5"/>
      <point x="350" y="25"/>
      <point x="435" y="106" type="curve"/>
      <point x="534" y="33"/>
      <point x="576" y="-5"/>
      <point x="665" y="-5" type="curve" smooth="yes"/>
      <point x="728" y="-5"/>
      <point x="780" y="24"/>
      <point x="780" y="99" type="curve" smooth="yes"/>
      <point x="780" y="156"/>
      <point x="736" y="190"/>
      <point x="664" y="178" type="curve"/>
      <point x="656" y="98"/>
      <point x="623" y="64"/>
      <point x="578" y="64" type="curve" smooth="yes"/>
      <point x="543" y="64"/>
      <point x="502" y="85"/>
      <point x="459" y="122" type="curve"/>
      <point x="594" y="211"/>
      <point x="667" y="278"/>
      <point x="667" y="373" type="curve" smooth="yes"/>
      <point x="667" y="465"/>
      <point x="592" y="553"/>
      <point x="435" y="553" type="curve" smooth="yes"/>
      <point x="278" y="553"/>
      <point x="203" y="465"/>
      <point x="203" y="366" type="curve" smooth="yes"/>
      <point x="203" y="278"/>
      <point x="256" y="211"/>
      <point x="406" y="119" type="curve"/>
      <point x="371" y="84"/>
      <point x="330" y="64"/>
      <point x="295" y="64" type="curve" smooth="yes"/>
      <point x="248" y="64"/>
      <point x="211" y="98"/>
      <point x="204" y="178" type="curve"/>
      <point x="136" y="185"/>
      <point x="90" y="157"/>
      <point x="90" y="99" type="curve" smooth="yes"/>
      <point x="90" y="33"/>
      <point x="143" y="-5"/>
    </contour>
  </outline>
</glyph>
<glyph name="uni1D26" format="2">
  <advance width="623"/>
  <unicode hex="1D26"/>
  <outline>
    <contour>
      <point x="17" y="0" type="line"/>
      <point x="434" y="0" type="line"/>
      <point x="434" y="10" type="line"/>
      <point x="384" y="10" type="line" smooth="yes"/>
      <point x="351" y="10"/>
      <point x="325" y="9"/>
      <point x="325" y="51" type="curve" smooth="yes"/>
      <point x="325" y="526" type="line"/>
      <point x="407" y="526" type="line" smooth="yes"/>
      <point x="542" y="526"/>
      <point x="589" y="481"/>
      <point x="605" y="337" type="curve" smooth="yes"/>
      <point x="606" y="341" type="line"/>
      <point x="616" y="341" type="line"/>
      <point x="608" y="536" type="line"/>
      <point x="17" y="536" type="line"/>
      <point x="17" y="526" type="line"/>
      <point x="49" y="526" type="line" smooth="yes"/>
      <point x="82" y="526"/>
      <point x="107" y="528"/>
      <point x="107" y="487" type="curve" smooth="yes"/>
      <point x="107" y="60" type="line" smooth="yes"/>
      <point x="107" y="10"/>
      <point x="82" y="10"/>
      <point x="51" y="10" type="curve" smooth="yes"/>
      <point x="17" y="10" type="line"/>
    </contour>
  </outline>
</glyph>
<glyph name="uni1D79" format="2">
  <advance width="671"/>
  <unicode hex="1D79"/>
  <outline>
    <contour>
      <point x="335" y="-240" type="curve" smooth="yes"/>
      <point x="528" y="-240"/>
      <point x="623" y="-157"/>
      <point x="623" y="1" type="curve" smooth="yes"/>
      <point x="623" y="67"/>
      <point x="606" y="141"/>
      <point x="511" y="210" type="curve" smooth="yes"/>
      <point x="343" y="327" type="line"/>
      <point x="633" y="480" type="line"/>
      <point x="633" y="536" type="line"/>
      <point x="83" y="536" type="line"/>
      <point x="74" y="288" type="line"/>
      <point x="86" y="288" type="line"/>
      <point x="88" y="324" type="line" smooth="yes"/>
      <point x="91" y="376"/>
      <point x="114" y="393"/>
      <point x="180" y="393" type="curve" smooth="yes"/>
      <point x="454" y="393" type="line"/>
      <point x="288" y="310" type="line"/>
      <point x="288" y="292" type="line"/>
      <point x="367" y="214" type="line"/>
      <point x="356" y="215"/>
      <point x="335" y="217"/>
      <point x="312" y="217" type="curve" smooth="yes"/>
      <point x="147" y="217"/>
      <point x="48" y="131"/>
      <point x="48" y="-5" type="curve" smooth="yes"/>
      <point x="48" y="-163"/>
      <point x="154" y="-240"/>
    </contour>
    <contour>
      <point x="336" y="-230" type="curve" smooth="yes"/>
      <point x="275" y="-230"/>
      <point x="256" y="-177"/>
      <point x="256" y="-9" type="curve" smooth="yes"/>
      <point x="256" y="152"/>
      <point x="275" y="206"/>
      <point x="336" y="206" type="curve" smooth="yes"/>
      <point x="394" y="206"/>
      <point x="413" y="152"/>
      <point x="413" y="-9" type="curve" smooth="yes"/>
      <point x="413" y="-177"/>
      <point x="394" y="-230"/>
    </contour>
  </outline>
</glyph>
<glyph name="dottedgrave" format="2">
  <unicode hex="1DC0"/>
  <anchor x="18" y="536" name="_top"/>
  <anchor x="18" y="853" name="top"/>
  <outline>
    <contour>
      <point x="98" y="598" type="curve"/>
      <point x="114" y="598" type="line"/>
      <point x="114" y="613" type="line"/>
      <point x="91" y="676"/>
      <point x="67" y="751"/>
      <point x="54" y="818" type="curve"/>
      <point x="-121" y="818" type="line"/>
      <point x="-121" y="799" type="line"/>
      <point x="-42" y="708"/>
      <point x="24" y="658"/>
    </contour>
    <contour>
      <point x="-147" y="571" type="curve" smooth="yes"/>
      <point x="-112" y="571"/>
      <point x="-74" y="590"/>
      <point x="-74" y="651" type="curve" smooth="yes"/>
      <point x="-74" y="713"/>
      <point x="-112" y="731"/>
      <point x="-147" y="731" type="curve" smooth="yes"/>
      <point x="-183" y="731"/>
      <point x="-219" y="713"/>
      <point x="-219" y="651" type="curve" smooth="yes"/>
      <point x="-219" y="590"/>
      <point x="-183" y="571"/>
    </contour>
    <contour>
      <point x="208" y="680" type="curve" smooth="yes"/>
      <point x="240" y="680"/>
      <point x="278" y="699"/>
      <point x="278" y="760" type="curve" smooth="yes"/>
      <point x="278" y="822"/>
      <point x="240" y="840"/>
      <point x="208" y="840" type="curve" smooth="yes"/>
      <point x="170" y="840"/>
      <point x="133" y="822"/>
      <point x="133" y="760" type="curve" smooth="yes"/>
      <point x="133" y="699"/>
      <point x="170" y="680"/>
    </contour>
  </outline>
</glyph>
<glyph name="dottedacute" format="2">
  <unicode hex="1DC1"/>
  <anchor x="0" y="536" name="_top"/>
  <anchor x="0" y="856" name="top"/>
  <outline>
    <contour>
      <point x="-109" y="598" type="line"/>
      <point x="-93" y="598" type="line"/>
      <point x="-19" y="658"/>
      <point x="46" y="708"/>
      <point x="126" y="799" type="curve"/>
      <point x="126" y="818" type="line"/>
      <point x="-49" y="818" type="line"/>
      <point x="-63" y="751"/>
      <point x="-86" y="676"/>
      <point x="-109" y="613" type="curve"/>
    </contour>
    <contour>
      <point x="-219" y="571" type="curve" smooth="yes"/>
      <point x="-183" y="571"/>
      <point x="-146" y="590"/>
      <point x="-146" y="651" type="curve" smooth="yes"/>
      <point x="-146" y="713"/>
      <point x="-183" y="731"/>
      <point x="-219" y="731" type="curve" smooth="yes"/>
      <point x="-254" y="731"/>
      <point x="-290" y="713"/>
      <point x="-290" y="651" type="curve" smooth="yes"/>
      <point x="-290" y="590"/>
      <point x="-254" y="571"/>
    </contour>
    <contour>
      <point x="230" y="684" type="curve" smooth="yes"/>
      <point x="262" y="684"/>
      <point x="299" y="703"/>
      <point x="299" y="764" type="curve" smooth="yes"/>
      <point x="299" y="826"/>
      <point x="262" y="844"/>
      <point x="230" y="844" type="curve" smooth="yes"/>
      <point x="191" y="844"/>
      <point x="155" y="826"/>
      <point x="155" y="764" type="curve" smooth="yes"/>
      <point x="155" y="703"/>
      <point x="191" y="684"/>
    </contour>
  </outline>
</glyph>
<glyph name="longshighstroke" format="2">
  <advance width="507"/>
  <unicode hex="1E9D"/>
  <anchor x="254" y="0" name="bottom"/>
  <anchor x="254" y="767" name="top"/>
  <outline>
    <contour>
      <point x="15" y="0" type="line"/>
      <point x="485" y="0" type="line"/>
      <point x="485" y="10" type="line"/>
      <point x="421" y="10" type="line" smooth="yes"/>
      <point x="394" y="10"/>
      <point x="348" y="17"/>
      <point x="348" y="67" type="curve" smooth="yes"/>
      <point x="348" y="562" type="line"/>
      <point x="507" y="562" type="line"/>
      <point x="507" y="572" type="line"/>
      <point x="348" y="572" type="line"/>
      <point x="348" y="646" type="line" smooth="yes"/>
      <point x="348" y="730"/>
      <point x="360" y="757"/>
      <point x="391" y="757" type="curve" smooth="yes"/>
      <point x="427" y="757"/>
      <point x="436" y="754"/>
      <point x="436" y="640" type="curve"/>
      <point x="522" y="640"/>
      <point x="587" y="645"/>
      <point x="587" y="691" type="curve" smooth="yes"/>
      <point x="587" y="722"/>
      <point x="554" y="767"/>
      <point x="382" y="767" type="curve" smooth="yes"/>
      <point x="191" y="767"/>
      <point x="122" y="703"/>
      <point x="122" y="573" type="curve" smooth="yes"/>
      <point x="122" y="572" type="line"/>
      <point x="19" y="572" type="line"/>
      <point x="19" y="562" type="line"/>
      <point x="122" y="562" type="line"/>
      <point x="122" y="67" type="line" smooth="yes"/>
      <point x="122" y="17"/>
      <point x="68" y="10"/>
      <point x="49" y="10" type="curve" smooth="yes"/>
      <point x="15" y="10" type="line"/>
    </contour>
  </outline>
</glyph>
<glyph name="v.middleWelsh" format="2">
  <advance width="758"/>
  <unicode hex="1EFD"/>
  <anchor x="379" y="0" name="bottom"/>
  <anchor x="379" y="764" name="top"/>
  <outline>
    <contour>
      <point x="371" y="-10" type="curve" smooth="yes"/>
      <point x="581" y="-10"/>
      <point x="717" y="78"/>
      <point x="717" y="233" type="curve" smooth="yes"/>
      <point x="717" y="373"/>
      <point x="622" y="440"/>
      <point x="454" y="440" type="curve" smooth="yes"/>
      <point x="333" y="440"/>
      <point x="318" y="413"/>
      <point x="318" y="398" type="curve" smooth="yes"/>
      <point x="318" y="393"/>
      <point x="321" y="388"/>
      <point x="329" y="386" type="curve"/>
      <point x="344" y="413"/>
      <point x="373" y="416"/>
      <point x="394" y="416" type="curve" smooth="yes"/>
      <point x="460" y="416"/>
      <point x="475" y="372"/>
      <point x="475" y="224" type="curve" smooth="yes"/>
      <point x="475" y="51"/>
      <point x="445" y="0"/>
      <point x="382" y="0" type="curve" smooth="yes"/>
      <point x="302" y="0"/>
      <point x="288" y="69"/>
      <point x="288" y="296" type="curve" smooth="yes"/>
      <point x="288" y="584"/>
      <point x="436" y="696"/>
      <point x="531" y="750" type="curve"/>
      <point x="531" y="760" type="line"/>
      <point x="253" y="697"/>
      <point x="46" y="571"/>
      <point x="46" y="292" type="curve" smooth="yes"/>
      <point x="46" y="85"/>
      <point x="180" y="-10"/>
    </contour>
  </outline>
</glyph>
<glyph name="uni1FDF" format="2">
  <advance width="467"/>
  <unicode hex="1FDF"/>
  <anchor x="252" y="536" name="_top"/>
  <anchor x="252" y="917" name="top"/>
  <outline>
    <contour>
      <point x="34" y="762" type="curve"/>
      <point x="45" y="762" type="line"/>
      <point x="53" y="812"/>
      <point x="79" y="807"/>
      <point x="106" y="807" type="curve" smooth="yes"/>
      <point x="173" y="807"/>
      <point x="247" y="776"/>
      <point x="305" y="776" type="curve" smooth="yes"/>
      <point x="371" y="776"/>
      <point x="405" y="808"/>
      <point x="422" y="903" type="curve"/>
      <point x="411" y="903" type="line"/>
      <point x="398" y="860"/>
      <point x="378" y="854"/>
      <point x="346" y="854" type="curve" smooth="yes"/>
      <point x="284" y="854"/>
      <point x="220" y="889"/>
      <point x="162" y="889" type="curve" smooth="yes"/>
      <point x="93" y="889"/>
      <point x="48" y="850"/>
    </contour>
    <contour>
      <point x="305" y="545" type="curve"/>
      <point x="305" y="555" type="line"/>
      <point x="249" y="567"/>
      <point x="217" y="577"/>
      <point x="217" y="606" type="curve" smooth="yes"/>
      <point x="217" y="660"/>
      <point x="308" y="634"/>
      <point x="308" y="696" type="curve" smooth="yes"/>
      <point x="308" y="720"/>
      <point x="298" y="757"/>
      <point x="226" y="757" type="curve" smooth="yes"/>
      <point x="179" y="757"/>
      <point x="141" y="732"/>
      <point x="141" y="673" type="curve" smooth="yes"/>
      <point x="141" y="613"/>
      <point x="177" y="565"/>
    </contour>
  </outline>
</glyph>
<glyph name="uni1FEF" format="2">
  <unicode hex="1FEF"/>
  <anchor x="489" y="536" name="_top"/>
  <anchor x="489" y="760" name="top"/>
  <outline>
    <contour>
      <point x="563" y="566" type="curve"/>
      <point x="579" y="566" type="line"/>
      <point x="579" y="583" type="line"/>
      <point x="570" y="631"/>
      <point x="553" y="706"/>
      <point x="545" y="760" type="curve"/>
      <point x="398" y="760" type="line"/>
      <point x="398" y="750" type="line"/>
      <point x="450" y="686"/>
      <point x="506" y="622"/>
    </contour>
  </outline>
</glyph>
<glyph name="quoteright" format="2">
  <advance width="352"/>
  <unicode hex="2019"/>
  <outline>
    <contour>
      <point x="65" y="380" type="line"/>
      <point x="226" y="416"/>
      <point x="287" y="491"/>
      <point x="287" y="582" type="curve" smooth="yes"/>
      <point x="287" y="659"/>
      <point x="245" y="714"/>
      <point x="176" y="714" type="curve" smooth="yes"/>
      <point x="115" y="714"/>
      <point x="77" y="674"/>
      <point x="77" y="622" type="curve" smooth="yes"/>
      <point x="77" y="538"/>
      <point x="182" y="573"/>
      <point x="182" y="487" type="curve" smooth="yes"/>
      <point x="182" y="425"/>
      <point x="134" y="413"/>
      <point x="65" y="389" type="curve"/>
    </contour>
  </outline>
</glyph>
<glyph name="quotedblright" format="2">
  <advance width="604"/>
  <unicode hex="201D"/>
  <outline>
    <contour>
      <point x="75" y="380" type="line"/>
      <point x="236" y="416"/>
      <point x="297" y="491"/>
      <point x="297" y="582" type="curve" smooth="yes"/>
      <point x="297" y="659"/>
      <point x="255" y="714"/>
      <point x="186" y="714" type="curve" smooth="yes"/>
      <point x="125" y="714"/>
      <point x="87" y="674"/>
      <point x="87" y="622" type="curve" smooth="yes"/>
      <point x="87" y="538"/>
      <point x="192" y="573"/>
      <point x="192" y="487" type="curve" smooth="yes"/>
      <point x="192" y="425"/>
      <point x="144" y="413"/>
      <point x="75" y="389" type="curve"/>
    </contour>
    <contour>
      <point x="306" y="380" type="line"/>
      <point x="467" y="416"/>
      <point x="528" y="491"/>
      <point x="528" y="582" type="curve" smooth="yes"/>
      <point x="528" y="659"/>
      <point x="486" y="714"/>
      <point x="417" y="714" type="curve" smooth="yes"/>
      <point x="356" y="714"/>
      <point x="318" y="674"/>
      <point x="318" y="622" type="curve" smooth="yes"/>
      <point x="318" y="538"/>
      <point x="423" y="573"/>
      <point x="423" y="487" type="curve" smooth="yes"/>
      <point x="423" y="425"/>
      <point x="375" y="413"/>
      <point x="306" y="389" type="curve"/>
    </contour>
  </outline>
</glyph>
<glyph name="uni201F" format="2">
  <advance width="603"/>
  <unicode hex="201F"/>
  <outline>
    <contour>
      <point x="538" y="380" type="curve"/>
      <point x="538" y="389" type="line"/>
      <point x="469" y="413"/>
      <point x="421" y="425"/>
      <point x="421" y="487" type="curve" smooth="yes"/>
      <point x="421" y="573"/>
      <point x="526" y="538"/>
      <point x="526" y="622" type="curve" smooth="yes"/>
      <point x="526" y="674"/>
      <point x="488" y="714"/>
      <point x="427" y="714" type="curve" smooth="yes"/>
      <point x="358" y="714"/>
      <point x="316" y="659"/>
      <point x="316" y="582" type="curve" smooth="yes"/>
      <point x="316" y="491"/>
      <point x="377" y="416"/>
    </contour>
    <contour>
      <point x="287" y="380" type="curve"/>
      <point x="287" y="389" type="line"/>
      <point x="218" y="413"/>
      <point x="170" y="425"/>
      <point x="170" y="487" type="curve" smooth="yes"/>
      <point x="170" y="573"/>
      <point x="275" y="538"/>
      <point x="275" y="622" type="curve" smooth="yes"/>
      <point x="275" y="674"/>
      <point x="237" y="714"/>
      <point x="176" y="714" type="curve" smooth="yes"/>
      <point x="107" y="714"/>
      <point x="65" y="659"/>
      <point x="65" y="582" type="curve" smooth="yes"/>
      <point x="65" y="491"/>
      <point x="126" y="416"/>
    </contour>
  </outline>
</glyph>
<glyph name="twodotenleader" format="2">
  <advance width="706"/>
  <unicode hex="2025"/>
  <outline>
    <contour>
      <point x="515" y="259" type="curve" smooth="yes"/>
      <point x="574" y="259"/>
      <point x="626" y="283"/>
      <point x="626" y="353" type="curve" smooth="yes"/>
      <point x="626" y="425"/>
      <point x="574" y="448"/>
      <point x="515" y="448" type="curve" smooth="yes"/>
      <point x="452" y="448"/>
      <point x="403" y="425"/>
      <point x="403" y="353" type="curve" smooth="yes"/>
      <point x="403" y="283"/>
      <point x="452" y="259"/>
    </contour>
    <contour>
      <point x="191" y="259" type="curve" smooth="yes"/>
      <point x="251" y="259"/>
      <point x="303" y="283"/>
      <point x="303" y="353" type="curve" smooth="yes"/>
      <point x="303" y="425"/>
      <point x="251" y="448"/>
      <point x="191" y="448" type="curve" smooth="yes"/>
      <point x="129" y="448"/>
      <point x="80" y="425"/>
      <point x="80" y="353" type="curve" smooth="yes"/>
      <point x="80" y="283"/>
      <point x="129" y="259"/>
    </contour>
  </outline>
</glyph>
<glyph name="reversedparagraph" format="2">
  <advance width="740"/>
  <unicode hex="204B"/>
  <outline>
    <contour>
      <point x="48" y="-111" type="line"/>
      <point x="252" y="-111" type="line"/>
      <point x="252" y="750" type="line"/>
      <point x="341" y="750" type="line"/>
      <point x="341" y="-111" type="line"/>
      <point x="545" y="-111" type="line"/>
      <point x="545" y="-101" type="line"/>
      <point x="529" y="-101" type="line" smooth="yes"/>
      <point x="477" y="-101"/>
      <point x="434" y="-94"/>
      <point x="434" y="-31" type="curve" smooth="yes"/>
      <point x="434" y="386" type="line"/>
      <point x="517" y="386" type="line" smooth="yes"/>
      <point x="653" y="386"/>
      <point x="695" y="478"/>
      <point x="695" y="582" type="curve" smooth="yes"/>
      <point x="695" y="689"/>
      <point x="646" y="760"/>
      <point x="515" y="760" type="curve" smooth="yes"/>
      <point x="48" y="760" type="line"/>
      <point x="48" y="750" type="line"/>
      <point x="63" y="750" type="line" smooth="yes"/>
      <point x="116" y="750"/>
      <point x="159" y="741"/>
      <point x="159" y="678" type="curve" smooth="yes"/>
      <point x="159" y="-31" type="line" smooth="yes"/>
      <point x="159" y="-94"/>
      <point x="116" y="-101"/>
      <point x="63" y="-101" type="curve" smooth="yes"/>
      <point x="48" y="-101" type="line"/>
    </contour>
  </outline>
</glyph>
<glyph name="invisibleseparator" format="2">
  <advance width="1000"/>
  <unicode hex="2063"/>
  <outline>
    <contour>
      <point x="505" y="263" type="curve" smooth="yes"/>
      <point x="468" y="263"/>
      <point x="440" y="242"/>
      <point x="440" y="204" type="curve" smooth="yes"/>
      <point x="440" y="143"/>
      <point x="513" y="152"/>
      <point x="513" y="112" type="curve" smooth="yes"/>
      <point x="513" y="73"/>
      <point x="484" y="43"/>
      <point x="418" y="22" type="curve"/>
      <point x="418" y="-20" type="line"/>
      <point x="537" y="15"/>
      <point x="582" y="91"/>
      <point x="582" y="176" type="curve" smooth="yes"/>
      <point x="582" y="233"/>
      <point x="546" y="263"/>
    </contour>
    <contour>
      <point x="95" y="-39" type="line"/>
      <point x="41" y="-39" type="line"/>
      <point x="41" y="-187" type="line"/>
      <point x="189" y="-187" type="line"/>
      <point x="189" y="-134" type="line"/>
      <point x="95" y="-134" type="line"/>
    </contour>
    <contour>
      <point x="95" y="151" type="line"/>
      <point x="41" y="151" type="line"/>
      <point x="41" y="19" type="line"/>
      <point x="95" y="19" type="line"/>
    </contour>
    <contour>
      <point x="380" y="-134" type="line"/>
      <point x="248" y="-134" type="line"/>
      <point x="248" y="-187" type="line"/>
      <point x="380" y="-187" type="line"/>
    </contour>
    <contour>
      <point x="95" y="343" type="line"/>
      <point x="41" y="343" type="line"/>
      <point x="41" y="210" type="line"/>
      <point x="95" y="210" type="line"/>
    </contour>
    <contour>
      <point x="572" y="-134" type="line"/>
      <point x="439" y="-134" type="line"/>
      <point x="439" y="-187" type="line"/>
      <point x="572" y="-187" type="line"/>
    </contour>
    <contour>
      <point x="763" y="-134" type="line"/>
      <point x="630" y="-134" type="line"/>
      <point x="630" y="-187" type="line"/>
      <point x="763" y="-187" type="line"/>
    </contour>
    <contour>
      <point x="95" y="534" type="line"/>
      <point x="41" y="534" type="line"/>
      <point x="41" y="402" type="line"/>
      <point x="95" y="402" type="line"/>
    </contour>
    <contour>
      <point x="189" y="741" type="line"/>
      <point x="41" y="741" type="line"/>
      <point x="41" y="593" type="line"/>
      <point x="95" y="593" type="line"/>
      <point x="95" y="687" type="line"/>
      <point x="189" y="687" type="line"/>
    </contour>
    <contour>
      <point x="969" y="-39" type="line"/>
      <point x="916" y="-39" type="line"/>
      <point x="916" y="-134" type="line"/>
      <point x="821" y="-134" type="line"/>
      <point x="821" y="-187" type="line"/>
      <point x="969" y="-187" type="line"/>
    </contour>
    <contour>
      <point x="969" y="151" type="line"/>
      <point x="916" y="151" type="line"/>
      <point x="916" y="19" type="line"/>
      <point x="969" y="19" type="line"/>
    </contour>
    <contour>
      <point x="380" y="741" type="line"/>
      <point x="248" y="741" type="line"/>
      <point x="248" y="687" type="line"/>
      <point x="380" y="687" type="line"/>
    </contour>
    <contour>
      <point x="969" y="343" type="line"/>
      <point x="916" y="343" type="line"/>
      <point x="916" y="210" type="line"/>
      <point x="969" y="210" type="line"/>
    </contour>
    <contour>
      <point x="572" y="741" type="line"/>
      <point x="439" y="741" type="line"/>
      <point x="439" y="687" type="line"/>
      <point x="572" y="687" type="line"/>
    </contour>
    <contour>
      <point x="969" y="534" type="line"/>
      <point x="916" y="534" type="line"/>
      <point x="916" y="402" type="line"/>
      <point x="969" y="402" type="line"/>
    </contour>
    <contour>
      <point x="763" y="741" type="line"/>
      <point x="630" y="741" type="line"/>
      <point x="630" y="687" type="line"/>
      <point x="763" y="687" type="line"/>
    </contour>
    <contour>
      <point x="969" y="741" type="line"/>
      <point x="821" y="741" type="line"/>
      <point x="821" y="687" type="line"/>
      <point x="916" y="687" type="line"/>
      <point x="916" y="593" type="line"/>
      <point x="969" y="593" type="line"/>
    </contour>
  </outline>
</glyph>
<glyph name="sevensuperior" format="2">
  <advance width="487"/>
  <unicode hex="2077"/>
  <outline>
    <contour>
      <point x="120" y="387" type="line"/>
      <point x="270" y="387" type="line"/>
      <point x="461" y="737" type="line"/>
      <point x="461" y="814" type="line"/>
      <point x="74" y="814" type="line"/>
      <point x="67" y="641" type="line"/>
      <point x="77" y="641" type="line"/>
      <point x="80" y="664" type="line" smooth="yes"/>
      <point x="85" y="694"/>
      <point x="95" y="702"/>
      <point x="132" y="702" type="curve" smooth="yes"/>
      <point x="438" y="702" type="line"/>
    </contour>
  </outline>
</glyph>
<glyph name="livreTournois" format="2">
  <advance width="692"/>
  <unicode hex="20B6"/>
  <outline>
    <contour>
      <point x="492" y="-10" type="curve" smooth="yes"/>
      <point x="641" y="-10"/>
      <point x="659" y="17"/>
      <point x="686" y="26" type="curve"/>
      <point x="686" y="38" type="line"/>
      <point x="661" y="24"/>
      <point x="640" y="18"/>
      <point x="620" y="18" type="curve" smooth="yes"/>
      <point x="587" y="18"/>
      <point x="562" y="41"/>
      <point x="562" y="98" type="curve" smooth="yes"/>
      <point x="562" y="526" type="line"/>
      <point x="675" y="526" type="line"/>
      <point x="675" y="536" type="line"/>
      <point x="562" y="536" type="line"/>
      <point x="562" y="714" type="line"/>
      <point x="350" y="714" type="line"/>
      <point x="350" y="536" type="line"/>
      <point x="236" y="536" type="line"/>
      <point x="236" y="714" type="line"/>
      <point x="24" y="714" type="line"/>
      <point x="24" y="536" type="line"/>
      <point x="-11" y="536" type="line"/>
      <point x="-11" y="526" type="line"/>
      <point x="24" y="526" type="line"/>
      <point x="24" y="0" type="line"/>
      <point x="236" y="0" type="line"/>
      <point x="236" y="526" type="line"/>
      <point x="350" y="526" type="line"/>
      <point x="350" y="151" type="line" smooth="yes"/>
      <point x="350" y="26"/>
      <point x="431" y="-10"/>
    </contour>
  </outline>
</glyph>
<glyph name="uni20B9" format="2">
  <advance width="652"/>
  <unicode hex="20B9"/>
  <outline>
    <contour>
      <point x="490" y="0" type="curve" smooth="yes"/>
      <point x="596" y="0" type="line"/>
      <point x="596" y="10" type="line"/>
      <point x="594" y="10" type="line" smooth="yes"/>
      <point x="548" y="10"/>
      <point x="505" y="46"/>
      <point x="466" y="92" type="curve" smooth="yes"/>
      <point x="283" y="325" type="line"/>
      <point x="420" y="346"/>
      <point x="487" y="411"/>
      <point x="489" y="516" type="curve"/>
      <point x="595" y="516" type="line"/>
      <point x="595" y="526" type="line"/>
      <point x="489" y="526" type="line"/>
      <point x="479" y="617"/>
      <point x="430" y="700"/>
      <point x="221" y="704" type="curve"/>
      <point x="595" y="704" type="line"/>
      <point x="595" y="714" type="line"/>
      <point x="38" y="714" type="line"/>
      <point x="38" y="704" type="line"/>
      <point x="102" y="704" type="line" smooth="yes"/>
      <point x="186" y="704"/>
      <point x="238" y="644"/>
      <point x="239" y="526" type="curve"/>
      <point x="44" y="526" type="line"/>
      <point x="44" y="516" type="line"/>
      <point x="239" y="516" type="line"/>
      <point x="238" y="393"/>
      <point x="185" y="330"/>
      <point x="80" y="330" type="curve" smooth="yes"/>
      <point x="38" y="330" type="line"/>
      <point x="38" y="320" type="line"/>
      <point x="207" y="90" type="line" smooth="yes"/>
      <point x="254" y="28"/>
      <point x="301" y="0"/>
    </contour>
  </outline>
</glyph>
<glyph name="centrelinesymbol" format="2">
  <advance width="881"/>
  <unicode hex="2104"/>
  <outline>
    <contour>
      <point x="174" y="0" type="line"/>
      <point x="844" y="0" type="line"/>
      <point x="852" y="265" type="line"/>
      <point x="842" y="265" type="line"/>
      <point x="835" y="160" type="line" smooth="yes"/>
      <point x="828" y="46"/>
      <point x="788" y="10"/>
      <point x="675" y="10" type="curve" smooth="yes"/>
      <point x="500" y="10" type="line"/>
      <point x="500" y="132" type="line"/>
      <point x="590" y="138"/>
      <point x="653" y="165"/>
      <point x="686" y="183" type="curve"/>
      <point x="686" y="195" type="line"/>
      <point x="645" y="170"/>
      <point x="585" y="150"/>
      <point x="500" y="142" type="curve"/>
      <point x="500" y="572" type="line"/>
      <point x="541" y="571"/>
      <point x="563" y="516"/>
      <point x="563" y="398" type="curve"/>
      <point x="670" y="398"/>
      <point x="726" y="420"/>
      <point x="726" y="468" type="curve" smooth="yes"/>
      <point x="726" y="542"/>
      <point x="631" y="584"/>
      <point x="500" y="588" type="curve"/>
      <point x="500" y="643" type="line" smooth="yes"/>
      <point x="500" y="703"/>
      <point x="534" y="704"/>
      <point x="551" y="704" type="curve" smooth="yes"/>
      <point x="595" y="704" type="line"/>
      <point x="595" y="714" type="line"/>
      <point x="174" y="714" type="line"/>
      <point x="174" y="704" type="line"/>
      <point x="222" y="704" type="line" smooth="yes"/>
      <point x="238" y="704"/>
      <point x="277" y="704"/>
      <point x="277" y="639" type="curve" smooth="yes"/>
      <point x="277" y="579" type="line"/>
      <point x="110" y="557"/>
      <point x="14" y="511"/>
      <point x="14" y="363" type="curve" smooth="yes"/>
      <point x="14" y="239"/>
      <point x="90" y="157"/>
      <point x="277" y="138" type="curve"/>
      <point x="277" y="75" type="line" smooth="yes"/>
      <point x="277" y="10"/>
      <point x="238" y="10"/>
      <point x="222" y="10" type="curve" smooth="yes"/>
      <point x="174" y="10" type="line"/>
    </contour>
    <contour>
      <point x="277" y="160" type="line"/>
      <point x="212" y="174"/>
      <point x="197" y="244"/>
      <point x="197" y="362" type="curve" smooth="yes"/>
      <point x="197" y="490"/>
      <point x="207" y="539"/>
      <point x="277" y="559" type="curve"/>
    </contour>
  </outline>
</glyph>
<glyph name="afii61352" format="2">
  <advance width="1197"/>
  <unicode hex="2116"/>
  <outline>
    <contour>
      <point x="33" y="0" type="line"/>
      <point x="298" y="0" type="line"/>
      <point x="298" y="10" type="line"/>
      <point x="227" y="10" type="line" smooth="yes"/>
      <point x="183" y="10"/>
      <point x="170" y="23"/>
      <point x="170" y="67" type="curve" smooth="yes"/>
      <point x="170" y="700" type="line"/>
      <point x="529" y="0" type="line"/>
      <point x="652" y="0" type="line"/>
      <point x="652" y="647" type="line" smooth="yes"/>
      <point x="652" y="691"/>
      <point x="670" y="704"/>
      <point x="728" y="704" type="curve" smooth="yes"/>
      <point x="782" y="704" type="line"/>
      <point x="782" y="714" type="line"/>
      <point x="515" y="714" type="line"/>
      <point x="515" y="704" type="line"/>
      <point x="587" y="704" type="line" smooth="yes"/>
      <point x="628" y="704"/>
      <point x="642" y="692"/>
      <point x="642" y="651" type="curve" smooth="yes"/>
      <point x="642" y="217" type="line"/>
      <point x="395" y="714" type="line"/>
      <point x="33" y="714" type="line"/>
      <point x="33" y="704" type="line"/>
      <point x="124" y="704" type="line" smooth="yes"/>
      <point x="136" y="704"/>
      <point x="160" y="704"/>
      <point x="160" y="651" type="curve" smooth="yes"/>
      <point x="160" y="67" type="line" smooth="yes"/>
      <point x="160" y="23"/>
      <point x="146" y="10"/>
      <point x="104" y="10" type="curve" smooth="yes"/>
      <point x="33" y="10" type="line"/>
    </contour>
    <contour>
      <point x="756" y="60" type="line"/>
      <point x="1195" y="60" type="line"/>
      <point x="1195" y="70" type="line"/>
      <point x="756" y="70" type="line"/>
    </contour>
    <contour>
      <point x="978" y="133" type="curve" smooth="yes"/>
      <point x="1128" y="133"/>
      <point x="1208" y="188"/>
      <point x="1208" y="303" type="curve" smooth="yes"/>
      <point x="1208" y="418"/>
      <point x="1121" y="472"/>
      <point x="980" y="472" type="curve" smooth="yes"/>
      <point x="826" y="472"/>
      <point x="747" y="418"/>
      <point x="747" y="303" type="curve" smooth="yes"/>
      <point x="747" y="188"/>
      <point x="831" y="133"/>
    </contour>
    <contour>
      <point x="979" y="143" type="curve" smooth="yes"/>
      <point x="928" y="143"/>
      <point x="908" y="188"/>
      <point x="908" y="305" type="curve" smooth="yes"/>
      <point x="908" y="418"/>
      <point x="926" y="462"/>
      <point x="978" y="462" type="curve" smooth="yes"/>
      <point x="1028" y="462"/>
      <point x="1048" y="418"/>
      <point x="1048" y="305" type="curve" smooth="yes"/>
      <point x="1048" y="188"/>
      <point x="1030" y="143"/>
    </contour>
  </outline>
</glyph>
<glyph name="prescription" format="2">
  <advance width="1007"/>
  <unicode hex="211E"/>
  <outline>
    <contour>
      <point x="24" y="0" type="line"/>
      <point x="364" y="0" type="line"/>
      <point x="364" y="334" type="line"/>
      <point x="405" y="334" type="line"/>
      <point x="591" y="128" type="line"/>
      <point x="549" y="74" type="line" smooth="yes"/>
      <point x="512" y="27"/>
      <point x="494" y="10"/>
      <point x="424" y="10" type="curve" smooth="yes"/>
      <point x="395" y="10" type="line"/>
      <point x="395" y="0" type="line"/>
      <point x="653" y="0" type="line"/>
      <point x="653" y="10" type="line"/>
      <point x="585" y="10"/>
      <point x="553" y="14"/>
      <point x="553" y="45" type="curve" smooth="yes"/>
      <point x="553" y="68"/>
      <point x="573" y="88"/>
      <point x="597" y="121" type="curve"/>
      <point x="633" y="82" type="line" smooth="yes"/>
      <point x="716" y="-11"/>
      <point x="735" y="0"/>
      <point x="893" y="0" type="curve" smooth="yes"/>
      <point x="993" y="0" type="line"/>
      <point x="993" y="10" type="line"/>
      <point x="991" y="10" type="line" smooth="yes"/>
      <point x="969" y="10"/>
      <point x="951" y="23"/>
      <point x="850" y="123" type="curve" smooth="yes"/>
      <point x="758" y="221" type="line"/>
      <point x="830" y="318" type="line" smooth="yes"/>
      <point x="865" y="366"/>
      <point x="885" y="382"/>
      <point x="960" y="382" type="curve" smooth="yes"/>
      <point x="981" y="382" type="line"/>
      <point x="981" y="392" type="line"/>
      <point x="735" y="392" type="line"/>
      <point x="735" y="382" type="line"/>
      <point x="797" y="382"/>
      <point x="828" y="377"/>
      <point x="828" y="350" type="curve" smooth="yes"/>
      <point x="828" y="330"/>
      <point x="815" y="317"/>
      <point x="752" y="229" type="curve"/>
      <point x="616" y="372" type="line"/>
      <point x="744" y="399"/>
      <point x="776" y="467"/>
      <point x="776" y="529" type="curve" smooth="yes"/>
      <point x="776" y="635"/>
      <point x="694" y="714"/>
      <point x="407" y="714" type="curve" smooth="yes"/>
      <point x="24" y="714" type="line"/>
      <point x="24" y="704" type="line"/>
      <point x="75" y="704" type="line" smooth="yes"/>
      <point x="76" y="704"/>
      <point x="132" y="705"/>
      <point x="132" y="653" type="curve" smooth="yes"/>
      <point x="132" y="60" type="line" smooth="yes"/>
      <point x="132" y="8"/>
      <point x="86" y="10"/>
      <point x="75" y="10" type="curve" smooth="yes"/>
      <point x="24" y="10" type="line"/>
    </contour>
    <contour>
      <point x="364" y="344" type="line"/>
      <point x="364" y="704" type="line"/>
      <point x="402" y="704" type="line" smooth="yes"/>
      <point x="496" y="704"/>
      <point x="532" y="647"/>
      <point x="532" y="502" type="curve" smooth="yes"/>
      <point x="532" y="403"/>
      <point x="497" y="344"/>
      <point x="405" y="344" type="curve" smooth="yes"/>
    </contour>
  </outline>
</glyph>
<glyph name="uni214E" format="2">
  <advance width="625"/>
  <unicode hex="214E"/>
  <outline>
    <contour>
      <point x="28" y="0" type="line"/>
      <point x="624" y="0" type="line"/>
      <point x="624" y="10" type="line"/>
      <point x="593" y="10" type="line" smooth="yes"/>
      <point x="560" y="10"/>
      <point x="534" y="10"/>
      <point x="534" y="55" type="curve" smooth="yes"/>
      <point x="534" y="477" type="line" smooth="yes"/>
      <point x="534" y="526"/>
      <point x="560" y="526"/>
      <point x="591" y="526" type="curve" smooth="yes"/>
      <point x="624" y="526" type="line"/>
      <point x="624" y="536" type="line"/>
      <point x="207" y="536" type="line"/>
      <point x="207" y="526" type="line"/>
      <point x="260" y="526" type="line" smooth="yes"/>
      <point x="292" y="526"/>
      <point x="317" y="529"/>
      <point x="317" y="494" type="curve" smooth="yes"/>
      <point x="317" y="278" type="line"/>
      <point x="88" y="278" type="line"/>
      <point x="88" y="268" type="line"/>
      <point x="317" y="268" type="line"/>
      <point x="317" y="10" type="line"/>
      <point x="242" y="10" type="line" smooth="yes"/>
      <point x="92" y="10"/>
      <point x="43" y="44"/>
      <point x="31" y="150" type="curve" smooth="yes"/>
      <point x="29" y="159" type="line"/>
      <point x="19" y="159" type="line"/>
    </contour>
  </outline>
</glyph>
<glyph name="uni2C6B" format="2">
  <advance width="840"/>
  <unicode hex="2C6B"/>
  <anchor x="421" y="-206" name="bottom"/>
  <anchor x="421" y="714" name="top"/>
  <outline>
    <contour>
      <point x="745" y="-210" type="curve"/>
      <point x="755" y="-210" type="line"/>
      <point x="755" y="10" type="line"/>
      <point x="302" y="10" type="line"/>
      <point x="755" y="704" type="line"/>
      <point x="755" y="714" type="line"/>
      <point x="85" y="714" type="line"/>
      <point x="76" y="462" type="line"/>
      <point x="85" y="462" type="line"/>
      <point x="88" y="484" type="line" smooth="yes"/>
      <point x="105" y="657"/>
      <point x="152" y="704"/>
      <point x="308" y="704" type="curve" smooth="yes"/>
      <point x="508" y="704" type="line"/>
      <point x="57" y="10" type="line"/>
      <point x="57" y="0" type="line"/>
      <point x="536" y="0" type="line" smooth="yes"/>
      <point x="695" y="0"/>
      <point x="745" y="-50"/>
    </contour>
  </outline>
</glyph>
<glyph name="uni2C74" format="2">
  <advance width="690"/>
  <unicode hex="2C74"/>
  <anchor x="345" y="0" name="bottom"/>
  <anchor x="345" y="536" name="top"/>
  <outline>
    <contour>
      <point x="234" y="0" type="line"/>
      <point x="406" y="0" type="line"/>
      <point x="580" y="453" type="line" smooth="yes"/>
      <point x="605" y="516"/>
      <point x="627" y="526"/>
      <point x="684" y="526" type="curve" smooth="yes"/>
      <point x="692" y="526" type="line"/>
      <point x="692" y="536" type="line"/>
      <point x="451" y="536" type="line"/>
      <point x="451" y="526" type="line"/>
      <point x="487" y="526" type="line" smooth="yes"/>
      <point x="554" y="526"/>
      <point x="576" y="512"/>
      <point x="576" y="486" type="curve" smooth="yes"/>
      <point x="576" y="474"/>
      <point x="571" y="459"/>
      <point x="564" y="442" type="curve" smooth="yes"/>
      <point x="471" y="198" type="line" smooth="yes"/>
      <point x="444" y="120"/>
      <point x="429" y="82"/>
      <point x="410" y="26" type="curve"/>
      <point x="393" y="85"/>
      <point x="379" y="113"/>
      <point x="343" y="208" type="curve" smooth="yes"/>
      <point x="314" y="279" type="line"/>
      <point x="388" y="307"/>
      <point x="430" y="360"/>
      <point x="430" y="431" type="curve" smooth="yes"/>
      <point x="430" y="502"/>
      <point x="390" y="546"/>
      <point x="240" y="546" type="curve" smooth="yes"/>
      <point x="122" y="546"/>
      <point x="68" y="498"/>
      <point x="68" y="417" type="curve" smooth="yes"/>
      <point x="68" y="371"/>
      <point x="84" y="319"/>
      <point x="107" y="284" type="curve" smooth="yes"/>
      <point x="112" y="274" type="line"/>
      <point x="74" y="273"/>
      <point x="25" y="280"/>
      <point x="-8" y="293" type="curve"/>
      <point x="-11" y="283" type="line"/>
      <point x="26" y="270"/>
      <point x="75" y="263"/>
      <point x="116" y="264" type="curve"/>
    </contour>
    <contour>
      <point x="311" y="290" type="curve"/>
      <point x="292" y="338" type="line" smooth="yes"/>
      <point x="268" y="395"/>
      <point x="257" y="440"/>
      <point x="257" y="468" type="curve" smooth="yes"/>
      <point x="257" y="496"/>
      <point x="279" y="530"/>
      <point x="327" y="530" type="curve" smooth="yes"/>
      <point x="377" y="530"/>
      <point x="417" y="495"/>
      <point x="417" y="431" type="curve" smooth="yes"/>
      <point x="417" y="365"/>
      <point x="378" y="316"/>
    </contour>
  </outline>
</glyph>
<glyph name="dottedtranspositionmarker" format="2">
  <advance width="583"/>
  <unicode hex="2E08"/>
  <outline>
    <contour>
      <point x="223" y="212" type="curve" smooth="yes"/>
      <point x="346" y="212"/>
      <point x="421" y="264"/>
      <point x="421" y="340" type="curve" smooth="yes"/>
      <point x="421" y="416"/>
      <point x="351" y="453"/>
      <point x="294" y="491" type="curve" smooth="yes"/>
      <point x="241" y="526"/>
      <point x="189" y="560"/>
      <point x="189" y="618" type="curve" smooth="yes"/>
      <point x="189" y="685"/>
      <point x="261" y="729"/>
      <point x="358" y="729" type="curve" smooth="yes"/>
      <point x="416" y="729"/>
      <point x="472" y="714"/>
      <point x="529" y="690" type="curve"/>
      <point x="538" y="708" type="line"/>
      <point x="488" y="733"/>
      <point x="424" y="749"/>
      <point x="361" y="749" type="curve" smooth="yes"/>
      <point x="247" y="749"/>
      <point x="166" y="698"/>
      <point x="166" y="616" type="curve" smooth="yes"/>
      <point x="166" y="551"/>
      <point x="219" y="516"/>
      <point x="283" y="472" type="curve" smooth="yes"/>
      <point x="354" y="423"/>
      <point x="398" y="391"/>
      <point x="398" y="339" type="curve" smooth="yes"/>
      <point x="398" y="272"/>
      <point x="329" y="232"/>
      <point x="222" y="232" type="curve" smooth="yes"/>
      <point x="163" y="232"/>
      <point x="99" y="244"/>
      <point x="54" y="264" type="curve"/>
      <point x="46" y="246" type="line"/>
      <point x="93" y="225"/>
      <point x="160" y="212"/>
    </contour>
    <contour>
      <point x="468" y="491" type="curve" smooth="yes"/>
      <point x="495" y="491"/>
      <point x="517" y="505"/>
      <point x="517" y="541" type="curve" smooth="yes"/>
      <point x="517" y="574"/>
      <point x="500" y="591"/>
      <point x="468" y="591" type="curve" smooth="yes"/>
      <point x="434" y="591"/>
      <point x="419" y="573"/>
      <point x="419" y="541" type="curve" smooth="yes"/>
      <point x="419" y="505"/>
      <point x="439" y="491"/>
    </contour>
  </outline>
</glyph>
<glyph name="rightlowparaphrasebracket" format="2">
  <advance width="584"/>
  <unicode hex="2E1D"/>
  <outline>
    <contour>
      <point x="98" y="-53" type="line"/>
      <point x="496" y="258" type="line"/>
      <point x="484" y="274" type="line"/>
      <point x="86" y="-37" type="line"/>
    </contour>
  </outline>
</glyph>
<glyph name="brackhalftopleft" format="2">
  <advance width="524"/>
  <unicode hex="2E22"/>
  <outline>
    <contour>
      <point x="113" y="316" type="line"/>
      <point x="336" y="316" type="line"/>
      <point x="336" y="678" type="line" smooth="yes"/>
      <point x="336" y="749"/>
      <point x="393" y="750"/>
      <point x="431" y="750" type="curve" smooth="yes"/>
      <point x="482" y="750" type="line"/>
      <point x="482" y="760" type="line"/>
      <point x="113" y="760" type="line"/>
    </contour>
  </outline>
</glyph>
<glyph name="daggerwithleftguard" format="2">
  <advance width="582"/>
  <unicode hex="2E36"/>
  <outline>
    <contour>
      <point x="286" y="-111" type="curve"/>
      <point x="296" y="-111" type="line"/>
      <point x="296" y="134"/>
      <point x="356" y="270"/>
      <point x="390" y="355" type="curve"/>
      <point x="293" y="517" type="line"/>
      <point x="379" y="760" type="line"/>
      <point x="207" y="760" type="line"/>
      <point x="288" y="520" type="line"/>
      <point x="40" y="593" type="line"/>
      <point x="40" y="440" type="line"/>
      <point x="288" y="515" type="line"/>
      <point x="195" y="355" type="line"/>
      <point x="226" y="270"/>
      <point x="286" y="134"/>
    </contour>
  </outline>
</glyph>
<glyph name="uni2E41" format="2">
  <advance width="352"/>
  <unicode hex="2E41"/>
  <outline>
    <contour>
      <point x="287" y="-152" type="curve"/>
      <point x="287" y="-143" type="line"/>
      <point x="218" y="-119"/>
      <point x="170" y="-107"/>
      <point x="170" y="-45" type="curve" smooth="yes"/>
      <point x="170" y="41"/>
      <point x="275" y="6"/>
      <point x="275" y="90" type="curve" smooth="yes"/>
      <point x="275" y="142"/>
      <point x="237" y="182"/>
      <point x="176" y="182" type="curve" smooth="yes"/>
      <point x="107" y="182"/>
      <point x="65" y="127"/>
      <point x="65" y="50" type="curve" smooth="yes"/>
      <point x="65" y="-41"/>
      <point x="126" y="-116"/>
    </contour>
  </outline>
</glyph>
